{
.appVersion = "3112";
.formatVersion = 3;
axes = (
{
name = Weight;
tag = wght;
}
);
customParameters = (
{
name = "Variable Font Origin";
value = "19FA402B-9607-46D9-AAD6-815AECBA5B6B";
},
{
name = "Use Typo Metrics";
value = 1;
}
);
date = "2022-05-27 18:49:23 +0000";
familyName = "26F Galaxy Sans";
featurePrefixes = (
{
automatic = 1;
code = "languagesystem DFLT dflt;

languagesystem latn dflt;
languagesystem latn ROM;
languagesystem latn MOL;
languagesystem latn CAT;
languagesystem latn NLD;
languagesystem latn AZE;
languagesystem latn CRT;
languagesystem latn KAZ;
languagesystem latn TAT;
languagesystem latn TRK;
";
name = Languagesystems;
}
);
features = (
{
automatic = 1;
code = "feature locl;
feature subs;
feature sinf;
feature sups;
feature numr;
feature dnom;
feature frac;
feature ordn;
feature ss01;
";
tag = aalt;
},
{
code = "lookup locl_latn_0 {
	script latn;
	language ROM;
	sub Scedilla by Scommaaccent;
	sub Tcedilla by Tcommaaccent;
	language MOL;
	sub Scedilla by Scommaaccent;
	sub Tcedilla by Tcommaaccent;
} locl_latn_0;

lookup locl_latn_1 {
	script latn;
	language CAT;
	sub  L' periodcentered' L by Ldot;
} locl_latn_1;

lookup locl_latn_2 {
	script latn;
	language NLD;
	sub Iacute J' by Jacute;
} locl_latn_2;

lookup locl_latn_3 {
	script latn;
	language AZE;
	sub i by Idotaccent;
	language CRT;
	sub i by Idotaccent;
	language KAZ;
	sub i by Idotaccent;
	language TAT;
	sub i by Idotaccent;
	language TRK;
	sub i by Idotaccent;
} locl_latn_3;
";
tag = locl;
},
{
automatic = 1;
code = "sub zero by zeroinferior;
sub one by oneinferior;
sub two by twoinferior;
sub three by threeinferior;
sub four by fourinferior;
sub five by fiveinferior;
sub six by sixinferior;
sub seven by seveninferior;
sub eight by eightinferior;
sub nine by nineinferior;
";
tag = subs;
},
{
automatic = 1;
code = "sub zero by zeroinferior;
sub one by oneinferior;
sub two by twoinferior;
sub three by threeinferior;
sub four by fourinferior;
sub five by fiveinferior;

glyphs = (
{
color = 4;
glyphname = A;
kernLeft = A;
kernRight = A;
lastChange = "2022-06-05 20:10:17 +0000";
layers = (
{
anchors = (
{
name = bottom;
pos = (676,0);
},
{
name = ogonek;
pos = (1267,0);
},
{
name = top;
pos = (798,1400);
}
);
layerId = m01;
shapes = (
{
closed = 1;
nodes = (
(449,681,l),
(451,684,o),
(451,687,o),
(451,690,cs),
(453,704,o),
(443,715,o),
(429,715,cs),
(419,715,o),
(409,709,o),
(404,701,cs),
(65,34,l),
(63,31,o),
(62,28,o),
(62,25,cs),
(61,11,o),
(71,0,o),
(85,0,cs),
(95,0,o),
(105,6,o),
(109,14,cs)
);
},
{
closed = 1;
nodes = (
(832,1386,ls),
(829,1394,o),
(820,1400,o),
(810,1400,cs),
(796,1400,o),
(785,1389,o),
(783,1375,cs),
(783,1372,o),
(784,1368,o),
(788,1353,cs),
(1245,14,ls),
(1249,6,o),
(1257,0,o),
(1267,0,cs),
(1281,0,o),
(1293,11,o),
(1294,25,cs),
(1294,28,o),
(1294,32,o),
(1289,47,cs)
);
}
);
width = 1352;
},
{
anchors = (
{
name = bottom;
pos = (706,0);
},
{
name = ogonek;
pos = (1283,-1);
},
{
name = top;
pos = (828,1400);
}
);
layerId = "19FA402B-9607-46D9-AAD6-815AECBA5B6B";
name = Regular;
shapes = (
{
closed = 1;
nodes = (
(495,637,ls),
(498,644,o),
(501,652,o),
(502,661,cs),
(505,694,o),
(480,721,o),
(447,721,cs),
(423,721,o),
(401,707,o),
(389,686,cs),
(82,84,ls),
(79,77,o),
(76,69,o),
(75,60,cs),
(72,27,o),
(97,0,o),
(130,0,cs),
(154,0,o),
(176,14,o),
(188,35,cs)
);
},
{
closed = 1;
nodes = (
(907,1365,ls),
(899,1386,o),
(880,1400,o),
(855,1400,cs),
(822,1400,o),
(793,1373,o),
(790,1340,cs),
(789,1331,o),
(791,1323,o),
(794,1316,c),
(1230,35,ls),
(1238,14,o),
(1257,0,o),
(1282,0,cs),
(1315,0,o),
(1344,27,o),
(1347,60,cs),
(1348,69,o),
(1347,77,o),
(1343,84,c)
);
}
);
width = 1412;
},
{
anchors = (
{
name = bottom;
pos = (768,0);
},
{
name = ogonek;
pos = (1290,3);
},
{
name = top;
pos = (890,1400);
}
);
layerId = "FF87E3F2-B049-41CB-BF2F-09DB15105515";
name = Black;
shapes = (
{
closed = 1;
nodes = (
(620,522,ls),
(631,542,o),
(639,565,o),
(642,589,cs),
(649,672,o),
(588,739,o),
(505,739,cs),
(446,739,o),
(392,705,o),
(362,655,cs),
(120,217,ls),
(108,197,o),
(100,174,o),
(98,150,cs),
(91,67,o),
(152,0,o),
(235,0,cs),
(294,0,o),
(348,34,o),
(377,84,cs)
);
},
{
closed = 1;
nodes = (
(1039,1316,l),
(1018,1365,o),
(970,1400,o),
(911,1400,cs),
(828,1400,o),
(756,1332,o),
(748,1250,cs),
(746,1226,o),
(750,1203,o),
(757,1183,cs),
(1173,84,l),
(1194,35,o),
(1242,0,o),
(1301,0,cs),
(1384,0,o),
(1457,68,o),
(1464,150,cs),
(1466,174,o),
(1462,197,o),
(1455,217,cs)
);
}
);
width = 1536;
}
);
unicode = (65,97);
},
{
color = 5;
glyphname = Aacute;
kernLeft = A;
kernRight = A;
lastChange = "2022-06-05 20:10:17 +0000";
layers = (
{
anchors = (
{
name = bottom;
pos = (676,0);
},
{
name = ogonek;
pos = (1267,0);
},
{
name = top;
pos = (837,1839);
}
);
layerId = m01;
shapes = (
{
closed = 1;
nodes = (
(449,681,l),
(451,684,o),
(451,687,o),
(451,690,cs),
(453,704,o),
(443,715,o),
(429,715,cs),
(419,715,o),
(409,709,o),
(404,701,cs),
(65,34,l),
(63,31,o),
(62,28,o),
(62,25,cs),
(61,11,o),
(71,0,o),
(85,0,cs),
(95,0,o),
(105,6,o),
(109,14,cs)
);
},
{
closed = 1;
nodes = (
(832,1386,ls),
(829,1394,o),
(820,1400,o),
(810,1400,cs),
(796,1400,o),
(785,1389,o),
(783,1375,cs),
(783,1372,o),
(784,1368,o),
(788,1353,cs),
(1245,14,ls),
(1249,6,o),
(1257,0,o),
(1267,0,cs),
(1281,0,o),
(1293,11,o),
(1294,25,cs),
(1294,28,o),
(1294,32,o),
(1289,47,cs)
);
},
{
closed = 1;
nodes = (
(1157,1802,ls),
(1162,1806,o),
(1166,1812,o),
(1166,1818,cs),
(1167,1830,o),
(1159,1839,o),
(1147,1839,cs),
(1142,1839,o),
(1138,1838,o),
(1134,1835,cs),
(818,1605,ls),
(813,1601,o),
(810,1595,o),
(809,1589,cs),
(808,1577,o),
(816,1568,o),
(828,1568,cs),
(833,1568,o),
(837,1569,o),
(842,1572,cs)
);
}
);
width = 1352;
},
{
anchors = (
{
name = bottom;
pos = (706,0);
},
{
name = ogonek;
pos = (1283,-1);
},
{
name = top;
pos = (866,1830);
}
);
layerId = "19FA402B-9607-46D9-AAD6-815AECBA5B6B";
shapes = (
{
closed = 1;
nodes = (
(495,637,ls),
(498,644,o),
(501,652,o),
(502,661,cs),
(505,694,o),
(480,721,o),
(447,721,cs),
(423,721,o),
(401,707,o),
(389,686,cs),
(82,84,ls),
(79,77,o),
(76,69,o),
(75,60,cs),
(72,27,o),
(97,0,o),
(130,0,cs),
(154,0,o),
(176,14,o),
(188,35,cs)
);
},
{
closed = 1;
nodes = (
(907,1365,ls),
(899,1386,o),
(880,1400,o),
(855,1400,cs),
(822,1400,o),
(793,1373,o),
(790,1340,cs),
(789,1331,o),
(791,1323,o),
(794,1316,c),
(1230,35,ls),
(1238,14,o),
(1257,0,o),
(1282,0,cs),
(1315,0,o),
(1344,27,o),
(1347,60,cs),
(1348,69,o),
(1347,77,o),
(1343,84,c)
);
},
{
closed = 1;
nodes = (
(1176,1764,ls),
(1190,1773,o),
(1199,1787,o),
(1201,1804,cs),
(1203,1832,o),
(1183,1854,o),
(1155,1854,cs),
(1144,1854,o),
(1134,1851,o),
(1125,1845,cs),
(822,1643,ls),
(808,1634,o),
(799,1620,o),
(797,1603,cs),
(795,1575,o),
(815,1553,o),
(843,1553,cs),
(854,1553,o),
(864,1556,o),
(873,1562,cs)
);
}
);
width = 1412;
},
{
anchors = (
{
name = bottom;
pos = (768,0);
},
{
name = ogonek;
pos = (1290,3);
},
{
name = top;
pos = (933,1890);
}
);
layerId = "FF87E3F2-B049-41CB-BF2F-09DB15105515";
shapes = (
{
closed = 1;
nodes = (
(620,522,ls),
(631,542,o),
(639,565,o),
(642,589,cs),
(649,672,o),
(588,739,o),
(505,739,cs),
(446,739,o),
(392,705,o),
(362,655,cs),
(120,217,ls),
(108,197,o),
(100,174,o),
(98,150,cs),
(91,67,o),
(152,0,o),
(235,0,cs),
(294,0,o),
(348,34,o),
(377,84,cs)
);
},
{
closed = 1;
nodes = (
(1039,1316,l),
(1018,1365,o),
(970,1400,o),
(911,1400,cs),
(828,1400,o),
(756,1332,o),
(748,1250,cs),
(746,1226,o),
(750,1203,o),
(757,1183,cs),
(1173,84,l),
(1194,35,o),
(1242,0,o),
(1301,0,cs),
(1384,0,o),
(1457,68,o),
(1464,150,cs),
(1466,174,o),
(1462,197,o),
(1455,217,cs)
);
},
{
closed = 1;
nodes = (
(1243,1698,ls),
(1270,1716,o),
(1290,1746,o),
(1293,1780,cs),
(1298,1835,o),
(1256,1880,o),
(1201,1880,cs),
(1180,1880,o),
(1161,1874,o),
(1144,1863,cs),
(900,1709,ls),
(872,1691,o),
(852,1661,o),
(849,1627,cs),
(845,1572,o),
(886,1527,o),
(941,1527,cs),
(962,1527,o),
(981,1533,o),
(998,1544,cs)
);
}
);
width = 1536;
}
);
unicode = (193,225);
},
{
color = 5;
glyphname = Abreve;
kernLeft = A;
kernRight = A;
lastChange = "2022-06-05 20:10:17 +0000";
layers = (
{
anchors = (
{
name = bottom;
pos = (676,0);
},
{
name = ogonek;
pos = (1267,0);
},
{
name = top;
pos = (835,1818);
}
);
layerId = m01;
shapes = (
{
closed = 1;
nodes = (
(449,681,l),
(451,684,o),
(451,687,o),
(451,690,cs),
(453,704,o),
(443,715,o),
(429,715,cs),
(419,715,o),
(409,709,o),
(404,701,cs),
(65,34,l),
(63,31,o),
(62,28,o),
(62,25,cs),
(61,11,o),
(71,0,o),
(85,0,cs),
(95,0,o),
(105,6,o),
(109,14,cs)
);
},
{
closed = 1;
nodes = (
(832,1386,ls),
(829,1394,o),
(820,1400,o),
(810,1400,cs),
(796,1400,o),
(785,1389,o),
(783,1375,cs),
(783,1372,o),
(784,1368,o),
(788,1353,cs),
(1245,14,ls),
(1249,6,o),
(1257,0,o),
(1267,0,cs),
(1281,0,o),
(1293,11,o),
(1294,25,cs),
(1294,28,o),
(1294,32,o),
(1289,47,cs)
);
},
{
closed = 1;
nodes = (
(953,1552,o),
(1076,1660,o),
(1098,1798,cs),
(1100,1810,o),
(1091,1820,o),
(1079,1820,cs),
(1068,1820,o),
(1059,1812,o),
(1057,1801,cs),
(1038,1682,o),
(936,1594,o),
(816,1594,cs),
(694,1594,o),
(608,1682,o),
(611,1801,cs),
(611,1812,o),
(602,1820,o),
(591,1820,cs),
(579,1820,o),
(568,1810,o),
(568,1798,cs),
(566,1660,o),
(671,1552,o),
(813,1552,cs)
);
}
);
width = 1352;
},
{
anchors = (
{
name = bottom;
pos = (706,0);
},
{
name = ogonek;
pos = (1283,-1);
},
{
name = top;
pos = (865,1823);
}
);
layerId = "19FA402B-9607-46D9-AAD6-815AECBA5B6B";
shapes = (
{
closed = 1;
nodes = (
(495,637,ls),
(498,644,o),
(501,652,o),
(502,661,cs),
(505,694,o),
(480,721,o),
(447,721,cs),
(423,721,o),
(401,707,o),
(389,686,cs),
(82,84,ls),
(79,77,o),
(76,69,o),
(75,60,cs),
(72,27,o),
(97,0,o),
(130,0,cs),
(154,0,o),
(176,14,o),
(188,35,cs)
);
},
{
closed = 1;
nodes = (
(907,1365,ls),
(899,1386,o),
(880,1400,o),
(855,1400,cs),
(822,1400,o),
(793,1373,o),
(790,1340,cs),
(789,1331,o),
(791,1323,o),
(794,1316,c),
(1230,35,ls),
(1238,14,o),
(1257,0,o),
(1282,0,cs),
(1315,0,o),
(1344,27,o),
(1347,60,cs),
(1348,69,o),
(1347,77,o),
(1343,84,c)
);
},
{
closed = 1;
nodes = (
(984,1523,o),
(1113,1627,o),
(1150,1765,cs),
(1159,1795,o),
(1137,1823,o),
(1106,1823,cs),
(1081,1823,o),
(1060,1805,o),
(1054,1781,cs),
(1031,1686,o),
(951,1623,o),
(849,1623,cs),
(746,1623,o),
(677,1686,o),
(670,1781,cs),
(668,1805,o),
(649,1823,o),
(624,1823,cs),
(593,1823,o),
(567,1795,o),
(570,1765,cs),
(583,1627,o),
(694,1523,o),
(840,1523,cs)
);
}
);
width = 1412;
},
{
anchors = (
{
name = bottom;
pos = (768,0);
},
{
name = ogonek;
pos = (1290,3);
},
{
name = top;
pos = (931,1868);
}
);
layerId = "FF87E3F2-B049-41CB-BF2F-09DB15105515";
shapes = (
{
closed = 1;
nodes = (
(620,522,ls),
(631,542,o),
(639,565,o),
(642,589,cs),
(649,672,o),
(588,739,o),
(505,739,cs),
(446,739,o),
(392,705,o),
(362,655,cs),
(120,217,ls),
(108,197,o),
(100,174,o),
(98,150,cs),
(91,67,o),
(152,0,o),
(235,0,cs),
(294,0,o),
(348,34,o),
(377,84,cs)
);
},
{
closed = 1;
nodes = (
(1039,1316,l),
(1018,1365,o),
(970,1400,o),
(911,1400,cs),
(828,1400,o),
(756,1332,o),
(748,1250,cs),
(746,1226,o),
(750,1203,o),
(757,1183,cs),
(1173,84,l),
(1194,35,o),
(1242,0,o),
(1301,0,cs),
(1384,0,o),
(1457,68,o),
(1464,150,cs),
(1466,174,o),
(1462,197,o),
(1455,217,cs)
);
},
{
closed = 1;
nodes = (
(1050,1523,o),
(1184,1616,o),
(1244,1747,cs),
(1270,1801,o),
(1243,1880,o),
(1163,1880,cs),
(1119,1880,o),
(1079,1851,o),
(1063,1810,cs),
(1041,1753,o),
(992,1723,o),
(920,1723,cs),
(846,1723,o),
(801,1753,o),
(789,1810,cs),
(781,1850,o),
(745,1880,o),
(701,1880,cs),
(621,1880,o),
(583,1799,o),
(598,1747,cs),
(634,1616,o),
(753,1523,o),
(902,1523,cs)
);
}
);
width = 1536;
}
);
unicode = (258,259);
},
{
color = 5;
glyphname = Abreveacute;
kernLeft = A;
kernRight = A;
lastChange = "2022-06-05 20:10:17 +0000";
layers = (
{
anchors = (
{
name = bottom;
pos = (676,0);
},
{
name = ogonek;
pos = (1267,0);
},
{
name = top;
pos = (860,2107);
}
);
layerId = m01;
shapes = (
{
closed = 1;
nodes = (
(449,681,l),
(451,684,o),
(451,687,o),
(451,690,cs),
(453,704,o),
(443,715,o),
(429,715,cs),
(419,715,o),
(409,709,o),
(404,701,cs),
(65,34,l),
(63,31,o),
(62,28,o),
(62,25,cs),
(61,11,o),
(71,0,o),
(85,0,cs),
(95,0,o),
(105,6,o),
(109,14,cs)
);
},
{
closed = 1;
nodes = (
(832,1386,ls),
(829,1394,o),
(820,1400,o),
(810,1400,cs),
(796,1400,o),
(785,1389,o),
(783,1375,cs),
(783,1372,o),
(784,1368,o),
(788,1353,cs),
(1245,14,ls),
(1249,6,o),
(1257,0,o),
(1267,0,cs),
(1281,0,o),
(1293,11,o),
(1294,25,cs),
(1294,28,o),
(1294,32,o),
(1289,47,cs)
);
},
{
closed = 1;
nodes = (
(953,1552,o),
(1076,1660,o),
(1098,1798,cs),
(1100,1810,o),
(1091,1820,o),
(1079,1820,cs),
(1068,1820,o),
(1059,1812,o),
(1057,1801,cs),
(1038,1682,o),
(936,1594,o),
(816,1594,cs),
(694,1594,o),
(608,1682,o),
(611,1801,cs),
(611,1812,o),
(602,1820,o),
(591,1820,cs),
(579,1820,o),
(568,1810,o),
(568,1798,cs),
(566,1660,o),
(671,1552,o),
(813,1552,cs)
);
},
{
closed = 1;
nodes = (
(1180,2070,ls),
(1185,2074,o),
(1189,2080,o),
(1190,2086,cs),
(1191,2098,o),
(1182,2107,o),
(1170,2107,cs),
(1165,2107,o),
(1161,2106,o),
(1157,2103,cs),
(842,1873,ls),
(837,1869,o),
(833,1863,o),
(832,1857,cs),
(831,1845,o),
(840,1836,o),
(852,1836,cs),
(857,1836,o),
(861,1837,o),
(865,1840,cs)
);
}
);
width = 1352;
},
{
anchors = (
{
name = bottom;
pos = (706,0);
},
{
name = ogonek;
pos = (1283,-1);
},
{
name = top;
pos = (890,2103);
}
);
layerId = "19FA402B-9607-46D9-AAD6-815AECBA5B6B";
shapes = (
{
closed = 1;
nodes = (
(495,637,ls),
(498,644,o),
(501,652,o),
(502,661,cs),
(505,694,o),
(480,721,o),
(447,721,cs),
(423,721,o),
(401,707,o),
(389,686,cs),
(82,84,ls),
(79,77,o),
(76,69,o),
(75,60,cs),
(72,27,o),
(97,0,o),
(130,0,cs),
(154,0,o),
(176,14,o),
(188,35,cs)
);
},
{
closed = 1;
nodes = (
(907,1365,ls),
(899,1386,o),
(880,1400,o),
(855,1400,cs),
(822,1400,o),
(793,1373,o),
(790,1340,cs),
(789,1331,o),
(791,1323,o),
(794,1316,c),
(1230,35,ls),
(1238,14,o),
(1257,0,o),
(1282,0,cs),
(1315,0,o),
(1344,27,o),
(1347,60,cs),
(1348,69,o),
(1347,77,o),
(1343,84,c)
);
},
{
closed = 1;
nodes = (
(984,1523,o),
(1113,1627,o),
(1150,1765,cs),
(1159,1795,o),
(1137,1823,o),
(1106,1823,cs),
(1081,1823,o),
(1060,1805,o),
(1054,1781,cs),
(1031,1686,o),
(951,1623,o),
(849,1623,cs),
(746,1623,o),
(677,1686,o),
(670,1781,cs),
(668,1805,o),
(649,1823,o),
(624,1823,cs),
(593,1823,o),
(567,1795,o),
(570,1765,cs),
(583,1627,o),
(694,1523,o),
(840,1523,cs)
);
},
{
closed = 1;
nodes = (
(1200,2037,ls),
(1214,2046,o),
(1223,2060,o),
(1225,2077,cs),
(1227,2105,o),
(1207,2127,o),
(1179,2127,cs),
(1168,2127,o),
(1158,2124,o),
(1149,2118,cs),
(846,1916,ls),
(832,1907,o),
(823,1893,o),
(821,1876,cs),
(819,1848,o),
(839,1826,o),
(867,1826,cs),
(878,1826,o),
(888,1829,o),
(897,1835,cs)
);
}
);
width = 1412;
},
{
anchors = (
{
name = bottom;
pos = (768,0);
},
{
name = ogonek;
pos = (1290,3);
},
{
name = top;
pos = (964,2238);
}
);
layerId = "FF87E3F2-B049-41CB-BF2F-09DB15105515";
shapes = (
{
closed = 1;
nodes = (
(620,522,ls),
(631,542,o),
(639,565,o),
(642,589,cs),
(649,672,o),
(588,739,o),
(505,739,cs),
(446,739,o),
(392,705,o),
(362,655,cs),
(120,217,ls),
(108,197,o),
(100,174,o),
(98,150,cs),
(91,67,o),
(152,0,o),
(235,0,cs),
(294,0,o),
(348,34,o),
(377,84,cs)
);
},
{
closed = 1;
nodes = (
(1039,1316,l),
(1018,1365,o),
(970,1400,o),
(911,1400,cs),
(828,1400,o),
(756,1332,o),
(748,1250,cs),
(746,1226,o),
(750,1203,o),
(757,1183,cs),
(1173,84,l),
(1194,35,o),
(1242,0,o),
(1301,0,cs),
(1384,0,o),
(1457,68,o),
(1464,150,cs),
(1466,174,o),
(1462,197,o),
(1455,217,cs)
);
},
{
closed = 1;
nodes = (
(1050,1523,o),
(1184,1616,o),
(1244,1747,cs),
(1270,1801,o),
(1243,1880,o),
(1163,1880,cs),
(1119,1880,o),
(1079,1851,o),
(1063,1810,cs),
(1041,1753,o),
(992,1723,o),
(920,1723,cs),
(846,1723,o),
(801,1753,o),
(789,1810,cs),
(781,1850,o),
(745,1880,o),
(701,1880,cs),
(621,1880,o),
(583,1799,o),
(598,1747,cs),
(634,1616,o),
(753,1523,o),
(902,1523,cs)
);
},
{
closed = 1;
nodes = (
(1273,2046,ls),
(1301,2064,o),
(1320,2094,o),
(1323,2128,cs),
(1328,2183,o),
(1287,2228,o),
(1232,2228,cs),
(1211,2228,o),
(1191,2222,o),
(1174,2211,cs),
(930,2057,ls),
(902,2039,o),
(883,2009,o),
(880,1975,cs),
(875,1920,o),
(916,1875,o),
(971,1875,cs),
(992,1875,o),
(1012,1881,o),
(1029,1892,cs)
);
}
);
width = 1536;
}
);
unicode = (7854,7855);
},
{
color = 5;
glyphname = Abrevedotbelow;
kernLeft = A;
kernRight = A;
lastChange = "2022-06-05 20:10:17 +0000";
layers = (
{
anchors = (
{
name = bottom;
pos = (676,0);
},
{
name = ogonek;
pos = (1267,0);
},
{
name = top;
pos = (835,1818);
}
);
layerId = m01;
shapes = (
{
closed = 1;
nodes = (
(449,681,l),
(451,684,o),
(451,687,o),
(451,690,cs),
(453,704,o),
(443,715,o),
(429,715,cs),
(419,715,o),
(409,709,o),
(404,701,cs),
(65,34,l),
(63,31,o),
(62,28,o),
(62,25,cs),
(61,11,o),
(71,0,o),
(85,0,cs),
(95,0,o),
(105,6,o),
(109,14,cs)
);
},
{
closed = 1;
nodes = (
(832,1386,ls),
(829,1394,o),
(820,1400,o),
(810,1400,cs),
(796,1400,o),
(785,1389,o),
(783,1375,cs),
(783,1372,o),
(784,1368,o),
(788,1353,cs),
(1245,14,ls),
(1249,6,o),
(1257,0,o),
(1267,0,cs),
(1281,0,o),
(1293,11,o),
(1294,25,cs),
(1294,28,o),
(1294,32,o),
(1289,47,cs)
);
},
{
closed = 1;
nodes = (
(953,1552,o),
(1076,1660,o),
(1098,1798,cs),
(1100,1810,o),
(1091,1820,o),
(1079,1820,cs),
(1068,1820,o),
(1059,1812,o),
(1057,1801,cs),
(1038,1682,o),
(936,1594,o),
(816,1594,cs),
(694,1594,o),
(608,1682,o),
(611,1801,cs),
(611,1812,o),
(602,1820,o),
(591,1820,cs),
(579,1820,o),
(568,1810,o),
(568,1798,cs),
(566,1660,o),
(671,1552,o),
(813,1552,cs)
);
},
{
closed = 1;
nodes = (
(674,-206,o),
(689,-192,o),
(691,-176,cs),
(692,-160,o),
(679,-146,o),
(663,-146,cs),
(647,-146,o),
(632,-160,o),
(631,-176,cs),
(629,-192,o),
(642,-206,o),
(658,-206,cs)
);
}
);
width = 1352;
},
{
anchors = (
{
name = bottom;
pos = (706,0);
},
{
name = ogonek;
pos = (1283,-1);
},
{
name = top;
pos = (865,1823);
}
);
layerId = "19FA402B-9607-46D9-AAD6-815AECBA5B6B";
shapes = (
{
closed = 1;
nodes = (
(495,637,ls),
(498,644,o),
(501,652,o),
(502,661,cs),
(505,694,o),
(480,721,o),
(447,721,cs),
(423,721,o),
(401,707,o),
(389,686,cs),
(82,84,ls),
(79,77,o),
(76,69,o),
(75,60,cs),
(72,27,o),
(97,0,o),
(130,0,cs),
(154,0,o),
(176,14,o),
(188,35,cs)
);
},
{
closed = 1;
nodes = (
(907,1365,ls),
(899,1386,o),
(880,1400,o),
(855,1400,cs),
(822,1400,o),
(793,1373,o),
(790,1340,cs),
(789,1331,o),
(791,1323,o),
(794,1316,c),
(1230,35,ls),
(1238,14,o),
(1257,0,o),
(1282,0,cs),
(1315,0,o),
(1344,27,o),
(1347,60,cs),
(1348,69,o),
(1347,77,o),
(1343,84,c)
);
},
{
closed = 1;
nodes = (
(984,1523,o),
(1113,1627,o),
(1150,1765,cs),
(1159,1795,o),
(1137,1823,o),
(1106,1823,cs),
(1081,1823,o),
(1060,1805,o),
(1054,1781,cs),
(1031,1686,o),
(951,1623,o),
(849,1623,cs),
(746,1623,o),
(677,1686,o),
(670,1781,cs),
(668,1805,o),
(649,1823,o),
(624,1823,cs),
(593,1823,o),
(567,1795,o),
(570,1765,cs),
(583,1627,o),
(694,1523,o),
(840,1523,cs)
);
},
{
closed = 1;
nodes = (
(721,-296,o),
(758,-262,o),
(762,-221,cs),
(765,-180,o),
(734,-146,o),
(693,-146,cs),
(652,-146,o),
(615,-180,o),
(612,-221,cs),
(608,-262,o),
(639,-296,o),
(680,-296,cs)
);
}
);
width = 1412;
},
{
anchors = (
{
name = bottom;
pos = (768,0);
},
{
name = ogonek;
pos = (1290,3);
},
{
name = top;
pos = (931,1868);
}
);
layerId = "FF87E3F2-B049-41CB-BF2F-09DB15105515";
shapes = (
{
closed = 1;
nodes = (
(620,522,ls),
(631,542,o),
(639,565,o),
(642,589,cs),
(649,672,o),
(588,739,o),
(505,739,cs),
(446,739,o),
(392,705,o),
(362,655,cs),
(120,217,ls),
(108,197,o),
(100,174,o),
(98,150,cs),
(91,67,o),
(152,0,o),
(235,0,cs),
(294,0,o),
(348,34,o),
(377,84,cs)
);
},
{
closed = 1;
nodes = (
(1039,1316,l),
(1018,1365,o),
(970,1400,o),
(911,1400,cs),
(828,1400,o),
(756,1332,o),
(748,1250,cs),
(746,1226,o),
(750,1203,o),
(757,1183,cs),
(1173,84,l),
(1194,35,o),
(1242,0,o),
(1301,0,cs),
(1384,0,o),
(1457,68,o),
(1464,150,cs),
(1466,174,o),
(1462,197,o),
(1455,217,cs)
);
},
{
closed = 1;
nodes = (
(1050,1523,o),
(1184,1616,o),
(1244,1747,cs),
(1270,1801,o),
(1243,1880,o),
(1163,1880,cs),
(1119,1880,o),
(1079,1851,o),
(1063,1810,cs),
(1041,1753,o),
(992,1723,o),
(920,1723,cs),
(846,1723,o),
(801,1753,o),
(789,1810,cs),
(781,1850,o),
(745,1880,o),
(701,1880,cs),
(621,1880,o),
(583,1799,o),
(598,1747,cs),
(634,1616,o),
(753,1523,o),
(902,1523,cs)
);
},
{
closed = 1;
nodes = (
(806,-334,o),
(866,-279,o),
(871,-213,cs),
(877,-146,o),
(826,-91,o),
(760,-91,cs),
(694,-91,o),
(633,-146,o),
(627,-213,cs),
(622,-279,o),
(674,-334,o),
(740,-334,cs)
);
}
);
width = 1536;
}
);
unicode = (7862,7863);
},
{
color = 5;
glyphname = Abrevegrave;
kernLeft = A;
kernRight = A;
lastChange = "2022-06-05 20:10:17 +0000";
layers = (
{
anchors = (
{
name = bottom;
pos = (676,0);
},
{
name = ogonek;
pos = (1267,0);
},
{
name = top;
pos = (860,2107);
}
);
layerId = m01;
shapes = (
{
closed = 1;
nodes = (
(449,681,l),
(451,684,o),
(451,687,o),
(451,690,cs),
(453,704,o),
(443,715,o),
(429,715,cs),
(419,715,o),
(409,709,o),
(404,701,cs),
(65,34,l),
(63,31,o),
(62,28,o),
(62,25,cs),
(61,11,o),
(71,0,o),
(85,0,cs),
(95,0,o),
(105,6,o),
(109,14,cs)
);
},
{
closed = 1;
nodes = (
(832,1386,ls),
(829,1394,o),
(820,1400,o),
(810,1400,cs),
(796,1400,o),
(785,1389,o),
(783,1375,cs),
(783,1372,o),
(784,1368,o),
(788,1353,cs),
(1245,14,ls),
(1249,6,o),
(1257,0,o),
(1267,0,cs),
(1281,0,o),
(1293,11,o),
(1294,25,cs),
(1294,28,o),
(1294,32,o),
(1289,47,cs)
);
},
{
closed = 1;
nodes = (
(953,1552,o),
(1076,1660,o),
(1098,1798,cs),
(1100,1810,o),
(1091,1820,o),
(1079,1820,cs),
(1068,1820,o),
(1059,1812,o),
(1057,1801,cs),
(1038,1682,o),
(936,1594,o),
(816,1594,cs),
(694,1594,o),
(608,1682,o),
(611,1801,cs),
(611,1812,o),
(602,1820,o),
(591,1820,cs),
(579,1820,o),
(568,1810,o),
(568,1798,cs),
(566,1660,o),
(671,1552,o),
(813,1552,cs)
);
},
{
closed = 1;
nodes = (
(810,1840,ls),
(814,1837,o),
(818,1836,o),
(823,1836,cs),
(835,1836,o),
(844,1845,o),
(845,1857,cs),
(846,1863,o),
(844,1869,o),
(839,1873,cs),
(564,2103,ls),
(560,2106,o),
(556,2107,o),
(551,2107,cs),
(539,2107,o),
(530,2098,o),
(529,2086,cs),
(528,2080,o),
(530,2074,o),
(535,2070,cs)
);
}
);
width = 1352;
},
{
anchors = (
{
name = bottom;
pos = (706,0);
},
{
name = ogonek;
pos = (1283,-1);
},
{
name = top;
pos = (890,2103);
}
);
layerId = "19FA402B-9607-46D9-AAD6-815AECBA5B6B";
shapes = (
{
closed = 1;
nodes = (
(495,637,ls),
(498,644,o),
(501,652,o),
(502,661,cs),
(505,694,o),
(480,721,o),
(447,721,cs),
(423,721,o),
(401,707,o),
(389,686,cs),
(82,84,ls),
(79,77,o),
(76,69,o),
(75,60,cs),
(72,27,o),
(97,0,o),
(130,0,cs),
(154,0,o),
(176,14,o),
(188,35,cs)
);
},
{
closed = 1;
nodes = (
(907,1365,ls),
(899,1386,o),
(880,1400,o),
(855,1400,cs),
(822,1400,o),
(793,1373,o),
(790,1340,cs),
(789,1331,o),
(791,1323,o),
(794,1316,c),
(1230,35,ls),
(1238,14,o),
(1257,0,o),
(1282,0,cs),
(1315,0,o),
(1344,27,o),
(1347,60,cs),
(1348,69,o),
(1347,77,o),
(1343,84,c)
);
},
{
closed = 1;
nodes = (
(984,1523,o),
(1113,1627,o),
(1150,1765,cs),
(1159,1795,o),
(1137,1823,o),
(1106,1823,cs),
(1081,1823,o),
(1060,1805,o),
(1054,1781,cs),
(1031,1686,o),
(951,1623,o),
(849,1623,cs),
(746,1623,o),
(677,1686,o),
(670,1781,cs),
(668,1805,o),
(649,1823,o),
(624,1823,cs),
(593,1823,o),
(567,1795,o),
(570,1765,cs),
(583,1627,o),
(694,1523,o),
(840,1523,cs)
);
},
{
closed = 1;
nodes = (
(837,1835,ls),
(844,1829,o),
(854,1826,o),
(865,1826,cs),
(893,1826,o),
(917,1848,o),
(919,1876,cs),
(921,1893,o),
(914,1907,o),
(902,1916,cs),
(633,2118,ls),
(626,2124,o),
(616,2127,o),
(605,2127,cs),
(577,2127,o),
(553,2105,o),
(551,2077,cs),
(549,2060,o),
(556,2046,o),
(568,2037,cs)
);
}
);
width = 1412;
},
{
anchors = (
{
name = bottom;
pos = (768,0);
},
{
name = ogonek;
pos = (1290,3);
},
{
name = top;
pos = (964,2239);
}
);
layerId = "FF87E3F2-B049-41CB-BF2F-09DB15105515";
shapes = (
{
closed = 1;
nodes = (
(620,522,ls),
(631,542,o),
(639,565,o),
(642,589,cs),
(649,672,o),
(588,739,o),
(505,739,cs),
(446,739,o),
(392,705,o),
(362,655,cs),
(120,217,ls),
(108,197,o),
(100,174,o),
(98,150,cs),
(91,67,o),
(152,0,o),
(235,0,cs),
(294,0,o),
(348,34,o),
(377,84,cs)
);
},
{
closed = 1;
nodes = (
(1039,1316,l),
(1018,1365,o),
(970,1400,o),
(911,1400,cs),
(828,1400,o),
(756,1332,o),
(748,1250,cs),
(746,1226,o),
(750,1203,o),
(757,1183,cs),
(1173,84,l),
(1194,35,o),
(1242,0,o),
(1301,0,cs),
(1384,0,o),
(1457,68,o),
(1464,150,cs),
(1466,174,o),
(1462,197,o),
(1455,217,cs)
);
},
{
closed = 1;
nodes = (
(1050,1523,o),
(1184,1616,o),
(1244,1747,cs),
(1270,1801,o),
(1243,1880,o),
(1163,1880,cs),
(1119,1880,o),
(1079,1851,o),
(1063,1810,cs),
(1041,1753,o),
(992,1723,o),
(920,1723,cs),
(846,1723,o),
(801,1753,o),
(789,1810,cs),
(781,1850,o),
(745,1880,o),
(701,1880,cs),
(621,1880,o),
(583,1799,o),
(598,1747,cs),
(634,1616,o),
(753,1523,o),
(902,1523,cs)
);
},
{
closed = 1;
nodes = (
(839,1893,ls),
(854,1882,o),
(872,1876,o),
(893,1876,cs),
(948,1876,o),
(997,1921,o),
(1002,1976,cs),
(1005,2010,o),
(990,2040,o),
(966,2058,cs),
(749,2212,ls),
(733,2223,o),
(715,2229,o),
(694,2229,cs),
(639,2229,o),
(590,2184,o),
(585,2129,cs),
(582,2095,o),
(597,2065,o),
(621,2047,cs)
);
}
);
width = 1536;
}
);
unicode = (7856,7857);
},
{
color = 5;
glyphname = Abrevehookabove;
kernLeft = A;
kernRight = A;
lastChange = "2022-06-05 20:10:17 +0000";
layers = (
{
anchors = (
{
name = bottom;
pos = (676,0);
},
{
name = ogonek;
pos = (1267,0);
},
{
name = top;
pos = (864,2151);
}
);
layerId = m01;
shapes = (
{
closed = 1;
nodes = (
(449,681,l),
(451,684,o),
(451,687,o),
(451,690,cs),
(453,704,o),
(443,715,o),
(429,715,cs),
(419,715,o),
(409,709,o),
(404,701,cs),
(65,34,l),
(63,31,o),
(62,28,o),
(62,25,cs),
(61,11,o),
(71,0,o),
(85,0,cs),
(95,0,o),
(105,6,o),
(109,14,cs)
);
},
{
closed = 1;
nodes = (
(832,1386,ls),
(829,1394,o),
(820,1400,o),
(810,1400,cs),
(796,1400,o),
(785,1389,o),
(783,1375,cs),
(783,1372,o),
(784,1368,o),
(788,1353,cs),
(1245,14,ls),
(1249,6,o),
(1257,0,o),
(1267,0,cs),
(1281,0,o),
(1293,11,o),
(1294,25,cs),
(1294,28,o),
(1294,32,o),
(1289,47,cs)
);
},
{
closed = 1;
nodes = (
(953,1552,o),
(1076,1660,o),
(1098,1798,cs),
(1100,1810,o),
(1091,1820,o),
(1079,1820,cs),
(1068,1820,o),
(1059,1812,o),
(1057,1801,cs),
(1038,1682,o),
(936,1594,o),
(816,1594,cs),
(694,1594,o),
(608,1682,o),
(611,1801,cs),
(611,1812,o),
(602,1820,o),
(591,1820,cs),
(579,1820,o),
(568,1810,o),
(568,1798,cs),
(566,1660,o),
(671,1552,o),
(813,1552,cs)
);
},
{
closed = 1;
nodes = (
(862,2109,o),
(909,2057,o),
(903,1993,cs),
(898,1929,o),
(841,1877,o),
(777,1877,cs),
(765,1877,o),
(755,1868,o),
(754,1856,cs),
(753,1844,o),
(762,1835,o),
(774,1835,cs),
(861,1835,o),
(938,1906,o),
(945,1993,cs),
(953,2080,o),
(888,2151,o),
(801,2151,cs),
(789,2151,o),
(779,2142,o),
(778,2130,cs),
(777,2118,o),
(786,2109,o),
(798,2109,cs)
);
}
);
width = 1352;
},
{
anchors = (
{
name = bottom;
pos = (706,0);
},
{
name = ogonek;
pos = (1283,-1);
},
{
name = top;
pos = (897,2183);
}
);
layerId = "19FA402B-9607-46D9-AAD6-815AECBA5B6B";
shapes = (
{
closed = 1;
nodes = (
(495,637,ls),
(498,644,o),
(501,652,o),
(502,661,cs),
(505,694,o),
(480,721,o),
(447,721,cs),
(423,721,o),
(401,707,o),
(389,686,cs),
(82,84,ls),
(79,77,o),
(76,69,o),
(75,60,cs),
(72,27,o),
(97,0,o),
(130,0,cs),
(154,0,o),
(176,14,o),
(188,35,cs)
);
},
{
closed = 1;
nodes = (
(907,1365,ls),
(899,1386,o),
(880,1400,o),
(855,1400,cs),
(822,1400,o),
(793,1373,o),
(790,1340,cs),
(789,1331,o),
(791,1323,o),
(794,1316,c),
(1230,35,ls),
(1238,14,o),
(1257,0,o),
(1282,0,cs),
(1315,0,o),
(1344,27,o),
(1347,60,cs),
(1348,69,o),
(1347,77,o),
(1343,84,c)
);
},
{
closed = 1;
nodes = (
(984,1523,o),
(1113,1627,o),
(1150,1765,cs),
(1159,1795,o),
(1137,1823,o),
(1106,1823,cs),
(1081,1823,o),
(1060,1805,o),
(1054,1781,cs),
(1031,1686,o),
(951,1623,o),
(849,1623,cs),
(746,1623,o),
(677,1686,o),
(670,1781,cs),
(668,1805,o),
(649,1823,o),
(624,1823,cs),
(593,1823,o),
(567,1795,o),
(570,1765,cs),
(583,1627,o),
(694,1523,o),
(840,1523,cs)
);
},
{
closed = 1;
nodes = (
(882,2083,o),
(917,2045,o),
(913,1998,cs),
(909,1951,o),
(867,1913,o),
(820,1913,cs),
(792,1913,o),
(768,1891,o),
(766,1863,cs),
(764,1835,o),
(784,1813,o),
(812,1813,cs),
(914,1813,o),
(1004,1896,o),
(1013,1998,cs),
(1022,2100,o),
(946,2183,o),
(844,2183,cs),
(816,2183,o),
(792,2161,o),
(790,2133,cs),
(787,2105,o),
(807,2083,o),
(835,2083,cs)
);
}
);
width = 1412;
},
{
anchors = (
{
name = bottom;
pos = (768,0);
},
{
name = ogonek;
pos = (1290,3);
},
{
name = top;
pos = (967,2279);
}
);
layerId = "FF87E3F2-B049-41CB-BF2F-09DB15105515";
shapes = (
{
closed = 1;
nodes = (
(620,522,ls),
(631,542,o),
(639,565,o),
(642,589,cs),
(649,672,o),
(588,739,o),
(505,739,cs),
(446,739,o),
(392,705,o),
(362,655,cs),
(120,217,ls),
(108,197,o),
(100,174,o),
(98,150,cs),
(91,67,o),
(152,0,o),
(235,0,cs),
(294,0,o),
(348,34,o),
(377,84,cs)
);
},
{
closed = 1;
nodes = (
(1039,1316,l),
(1018,1365,o),
(970,1400,o),
(911,1400,cs),
(828,1400,o),
(756,1332,o),
(748,1250,cs),
(746,1226,o),
(750,1203,o),
(757,1183,cs),
(1173,84,l),
(1194,35,o),
(1242,0,o),
(1301,0,cs),
(1384,0,o),
(1457,68,o),
(1464,150,cs),
(1466,174,o),
(1462,197,o),
(1455,217,cs)
);
},
{
closed = 1;
nodes = (
(1050,1523,o),
(1184,1616,o),
(1244,1747,cs),
(1270,1801,o),
(1243,1880,o),
(1163,1880,cs),
(1119,1880,o),
(1079,1851,o),
(1063,1810,cs),
(1041,1753,o),
(992,1723,o),
(920,1723,cs),
(846,1723,o),
(801,1753,o),
(789,1810,cs),
(781,1850,o),
(745,1880,o),
(701,1880,cs),
(621,1880,o),
(583,1799,o),
(598,1747,cs),
(634,1616,o),
(753,1523,o),
(902,1523,cs)
);
},
{
closed = 1;
nodes = (
(939,2139,o),
(966,2110,o),
(962,2073,cs),
(959,2036,o),
(928,2007,o),
(891,2007,cs),
(852,2007,o),
(818,1976,o),
(814,1937,cs),
(811,1898,o),
(839,1867,o),
(878,1867,cs),
(992,1867,o),
(1092,1959,o),
(1102,2073,cs),
(1112,2187,o),
(1028,2279,o),
(914,2279,cs),
(875,2279,o),
(842,2248,o),
(838,2209,cs),
(835,2170,o),
(863,2139,o),
(902,2139,cs)
);
}
);
width = 1536;
}
);
unicode = (7858,7859);
},
{
color = 5;
glyphname = Abrevetilde;
kernLeft = A;
kernRight = A;
lastChange = "2022-06-05 20:10:17 +0000";
layers = (
{
anchors = (
{
name = bottom;
pos = (676,0);
},
{
name = ogonek;
pos = (1267,0);
},
{
name = top;
pos = (856,2054);
}
);
layerId = m01;
shapes = (
{
closed = 1;
nodes = (
(449,681,l),
(451,684,o),
(451,687,o),
(451,690,cs),
(453,704,o),
(443,715,o),
(429,715,cs),
(419,715,o),
(409,709,o),
(404,701,cs),
(65,34,l),
(63,31,o),
(62,28,o),
(62,25,cs),
(61,11,o),
(71,0,o),
(85,0,cs),
(95,0,o),
(105,6,o),
(109,14,cs)
);
},
{
closed = 1;
nodes = (
(832,1386,ls),
(829,1394,o),
(820,1400,o),
(810,1400,cs),
(796,1400,o),
(785,1389,o),
(783,1375,cs),
(783,1372,o),
(784,1368,o),
(788,1353,cs),
(1245,14,ls),
(1249,6,o),
(1257,0,o),
(1267,0,cs),
(1281,0,o),
(1293,11,o),
(1294,25,cs),
(1294,28,o),
(1294,32,o),
(1289,47,cs)
);
},
{
closed = 1;
nodes = (
(953,1552,o),
(1076,1660,o),
(1098,1798,cs),
(1100,1810,o),
(1091,1820,o),
(1079,1820,cs),
(1068,1820,o),
(1059,1812,o),
(1057,1801,cs),
(1038,1682,o),
(936,1594,o),
(816,1594,cs),
(694,1594,o),
(608,1682,o),
(611,1801,cs),
(611,1812,o),
(602,1820,o),
(591,1820,cs),
(579,1820,o),
(568,1810,o),
(568,1798,cs),
(566,1660,o),
(671,1552,o),
(813,1552,cs)
);
},
{
closed = 1;
nodes = (
(1054,1950,o),
(962,1923,o),
(863,2001,cs),
(746,2093,o),
(621,2057,o),
(564,1959,cs),
(563,1956,o),
(562,1953,o),
(562,1950,cs),
(561,1938,o),
(569,1929,o),
(581,1929,cs),
(589,1929,o),
(596,1934,o),
(601,1941,cs),
(646,2018,o),
(737,2045,o),
(836,1967,cs),
(953,1875,o),
(1078,1911,o),
(1135,2009,cs),
(1136,2012,o),
(1137,2015,o),
(1138,2018,cs),
(1139,2030,o),
(1130,2039,o),
(1118,2039,cs),
(1110,2039,o),
(1103,2034,o),
(1098,2027,cs)
);
}
);
width = 1352;
},
{
anchors = (
{
name = bottom;
pos = (706,0);
},
{
name = ogonek;
pos = (1283,-1);
},
{
name = top;
pos = (886,2053);
}
);
layerId = "19FA402B-9607-46D9-AAD6-815AECBA5B6B";
shapes = (
{
closed = 1;
nodes = (
(495,637,ls),
(498,644,o),
(501,652,o),
(502,661,cs),
(505,694,o),
(480,721,o),
(447,721,cs),
(423,721,o),
(401,707,o),
(389,686,cs),
(82,84,ls),
(79,77,o),
(76,69,o),
(75,60,cs),
(72,27,o),
(97,0,o),
(130,0,cs),
(154,0,o),
(176,14,o),
(188,35,cs)
);
},
{
closed = 1;
nodes = (
(907,1365,ls),
(899,1386,o),
(880,1400,o),
(855,1400,cs),
(822,1400,o),
(793,1373,o),
(790,1340,cs),
(789,1331,o),
(791,1323,o),
(794,1316,c),
(1230,35,ls),
(1238,14,o),
(1257,0,o),
(1282,0,cs),
(1315,0,o),
(1344,27,o),
(1347,60,cs),
(1348,69,o),
(1347,77,o),
(1343,84,c)
);
},
{
closed = 1;
nodes = (
(984,1523,o),
(1113,1627,o),
(1150,1765,cs),
(1159,1795,o),
(1137,1823,o),
(1106,1823,cs),
(1081,1823,o),
(1060,1805,o),
(1054,1781,cs),
(1031,1686,o),
(951,1623,o),
(849,1623,cs),
(746,1623,o),
(677,1686,o),
(670,1781,cs),
(668,1805,o),
(649,1823,o),
(624,1823,cs),
(593,1823,o),
(567,1795,o),
(570,1765,cs),
(583,1627,o),
(694,1523,o),
(840,1523,cs)
);
},
{
closed = 1;
nodes = (
(1034,1977,o),
(988,1962,o),
(915,2027,cs),
(798,2135,o),
(663,2089,o),
(605,1974,cs),
(601,1968,o),
(600,1962,o),
(599,1955,cs),
(597,1927,o),
(617,1905,o),
(645,1905,cs),
(666,1905,o),
(685,1918,o),
(693,1936,cs),
(726,2001,o),
(772,2016,o),
(845,1951,cs),
(962,1843,o),
(1097,1889,o),
(1155,2004,cs),
(1159,2010,o),
(1160,2016,o),
(1161,2023,cs),
(1163,2051,o),
(1143,2073,o),
(1115,2073,cs),
(1094,2073,o),
(1075,2060,o),
(1067,2042,cs)
);
}
);
width = 1412;
},
{
anchors = (
{
name = bottom;
pos = (768,0);
},
{
name = ogonek;
pos = (1290,3);
},
{
name = top;
pos = (962,2213);
}
);
layerId = "FF87E3F2-B049-41CB-BF2F-09DB15105515";
shapes = (
{
closed = 1;
nodes = (
(620,522,ls),
(631,542,o),
(639,565,o),
(642,589,cs),
(649,672,o),
(588,739,o),
(505,739,cs),
(446,739,o),
(392,705,o),
(362,655,cs),
(120,217,ls),
(108,197,o),
(100,174,o),
(98,150,cs),
(91,67,o),
(152,0,o),
(235,0,cs),
(294,0,o),
(348,34,o),
(377,84,cs)
);
},
{
closed = 1;
nodes = (
(1039,1316,l),
(1018,1365,o),
(970,1400,o),
(911,1400,cs),
(828,1400,o),
(756,1332,o),
(748,1250,cs),
(746,1226,o),
(750,1203,o),
(757,1183,cs),
(1173,84,l),
(1194,35,o),
(1242,0,o),
(1301,0,cs),
(1384,0,o),
(1457,68,o),
(1464,150,cs),
(1466,174,o),
(1462,197,o),
(1455,217,cs)
);
},
{
closed = 1;
nodes = (
(1050,1523,o),
(1184,1616,o),
(1244,1747,cs),
(1270,1801,o),
(1243,1880,o),
(1163,1880,cs),
(1119,1880,o),
(1079,1851,o),
(1063,1810,cs),
(1041,1753,o),
(992,1723,o),
(920,1723,cs),
(846,1723,o),
(801,1753,o),
(789,1810,cs),
(781,1850,o),
(745,1880,o),
(701,1880,cs),
(621,1880,o),
(583,1799,o),
(598,1747,cs),
(634,1616,o),
(753,1523,o),
(902,1523,cs)
);
},
{
closed = 1;
nodes = (
(1104,2090,o),
(1062,2096,o),
(1023,2135,cs),
(906,2253,o),
(672,2245,o),
(591,2056,cs),
(586,2046,o),
(583,2034,o),
(582,2023,cs),
(577,1968,o),
(618,1923,o),
(673,1923,cs),
(717,1923,o),
(757,1951,o),
(773,1990,cs),
(794,2037,o),
(831,2033,o),
(874,1989,cs),
(991,1871,o),
(1227,1885,o),
(1306,2068,cs),
(1311,2078,o),
(1314,2090,o),
(1315,2101,cs),
(1320,2156,o),
(1279,2201,o),
(1224,2201,cs),
(1180,2201,o),
(1140,2173,o),
(1124,2134,cs)
);
}
);
width = 1536;
}
);
unicode = (7860,7861);
},
{
color = 5;
glyphname = Acaron;
kernLeft = A;
kernRight = A;
lastChange = "2022-06-05 20:10:17 +0000";
layers = (
{
anchors = (
{
name = bottom;
pos = (676,0);
},
{
name = ogonek;
pos = (1267,0);
},
{
name = top;
pos = (835,1819);
}
);
layerId = m01;
shapes = (
{
closed = 1;
nodes = (
(449,681,l),
(451,684,o),
(451,687,o),
(451,690,cs),
(453,704,o),
(443,715,o),
(429,715,cs),
(419,715,o),
(409,709,o),
(404,701,cs),
(65,34,l),
(63,31,o),
(62,28,o),
(62,25,cs),
(61,11,o),
(71,0,o),
(85,0,cs),
(95,0,o),
(105,6,o),
(109,14,cs)
);
},
{
closed = 1;
nodes = (
(832,1386,ls),
(829,1394,o),
(820,1400,o),
(810,1400,cs),
(796,1400,o),
(785,1389,o),
(783,1375,cs),
(783,1372,o),
(784,1368,o),
(788,1353,cs),
(1245,14,ls),
(1249,6,o),
(1257,0,o),
(1267,0,cs),
(1281,0,o),
(1293,11,o),
(1294,25,cs),
(1294,28,o),
(1294,32,o),
(1289,47,cs)
);
},
{
closed = 1;
nodes = (
(800,1575,ls),
(803,1571,o),
(808,1569,o),
(813,1569,cs),
(825,1569,o),
(835,1578,o),
(836,1590,cs),
(837,1596,o),
(835,1601,o),
(831,1605,cs),
(627,1813,ls),
(623,1817,o),
(618,1819,o),
(613,1819,cs),
(601,1819,o),
(591,1810,o),
(590,1798,cs),
(590,1792,o),
(591,1787,o),
(595,1783,cs)
);
},
{
closed = 1;
nodes = (
(818,1619,ls),
(813,1615,o),
(811,1610,o),
(810,1604,cs),
(809,1592,o),
(817,1583,o),
(829,1583,cs),
(834,1583,o),
(840,1585,o),
(844,1589,cs),
(1081,1796,l),
(1056,1826,l)
);
}
);
width = 1352;
},
{
anchors = (
{
name = bottom;
pos = (706,0);
},
{
name = ogonek;
pos = (1283,-1);
},
{
name = top;
pos = (866,1830);
}
);
layerId = "19FA402B-9607-46D9-AAD6-815AECBA5B6B";
shapes = (
{
closed = 1;
nodes = (
(495,637,ls),
(498,644,o),
(501,652,o),
(502,661,cs),
(505,694,o),
(480,721,o),
(447,721,cs),
(423,721,o),
(401,707,o),
(389,686,cs),
(82,84,ls),
(79,77,o),
(76,69,o),
(75,60,cs),
(72,27,o),
(97,0,o),
(130,0,cs),
(154,0,o),
(176,14,o),
(188,35,cs)
);
},
{
closed = 1;
nodes = (
(907,1365,ls),
(899,1386,o),
(880,1400,o),
(855,1400,cs),
(822,1400,o),
(793,1373,o),
(790,1340,cs),
(789,1331,o),
(791,1323,o),
(794,1316,c),
(1230,35,ls),
(1238,14,o),
(1257,0,o),
(1282,0,cs),
(1315,0,o),
(1344,27,o),
(1347,60,cs),
(1348,69,o),
(1347,77,o),
(1343,84,c)
);
},
{
closed = 1;
nodes = (
(809,1572,ls),
(817,1563,o),
(828,1558,o),
(841,1558,cs),
(869,1558,o),
(893,1580,o),
(896,1608,cs),
(897,1622,o),
(892,1635,o),
(884,1644,cs),
(699,1835,ls),
(690,1844,o),
(679,1849,o),
(666,1849,cs),
(638,1849,o),
(614,1827,o),
(611,1799,cs),
(610,1785,o),
(615,1772,o),
(623,1763,cs)
);
},
{
closed = 1;
nodes = (
(853,1677,ls),
(843,1668,o),
(836,1655,o),
(835,1641,cs),
(832,1613,o),
(852,1591,o),
(880,1591,cs),
(893,1591,o),
(906,1596,o),
(915,1605,cs),
(1132,1794,l),
(1070,1866,l)
);
}
);
width = 1412;
},
{
anchors = (
{
name = bottom;
pos = (768,0);
},
{
name = ogonek;
pos = (1290,3);
},
{
name = top;
pos = (933,1890);
}
);
layerId = "FF87E3F2-B049-41CB-BF2F-09DB15105515";
shapes = (
{
closed = 1;
nodes = (
(620,522,ls),
(631,542,o),
(639,565,o),
(642,589,cs),
(649,672,o),
(588,739,o),
(505,739,cs),
(446,739,o),
(392,705,o),
(362,655,cs),
(120,217,ls),
(108,197,o),
(100,174,o),
(98,150,cs),
(91,67,o),
(152,0,o),
(235,0,cs),
(294,0,o),
(348,34,o),
(377,84,cs)
);
},
{
closed = 1;
nodes = (
(1039,1316,l),
(1018,1365,o),
(970,1400,o),
(911,1400,cs),
(828,1400,o),
(756,1332,o),
(748,1250,cs),
(746,1226,o),
(750,1203,o),
(757,1183,cs),
(1173,84,l),
(1194,35,o),
(1242,0,o),
(1301,0,cs),
(1384,0,o),
(1457,68,o),
(1464,150,cs),
(1466,174,o),
(1462,197,o),
(1455,217,cs)
);
},
{
closed = 1;
nodes = (
(847,1544,ls),
(862,1533,o),
(881,1527,o),
(902,1527,cs),
(957,1527,o),
(1006,1572,o),
(1010,1627,cs),
(1013,1661,o),
(999,1691,o),
(975,1709,cs),
(757,1863,ls),
(742,1874,o),
(723,1880,o),
(702,1880,cs),
(647,1880,o),
(599,1835,o),
(594,1780,cs),
(591,1746,o),
(605,1716,o),
(630,1698,cs)
);
},
{
closed = 1;
nodes = (
(939,1758,ls),
(911,1740,o),
(892,1710,o),
(889,1676,cs),
(884,1621,o),
(925,1576,o),
(980,1576,cs),
(1001,1576,o),
(1020,1582,o),
(1038,1593,cs),
(1281,1747,l),
(1185,1913,l)
);
}
);
width = 1536;
}
);
unicode = (461,462);
},
{
color = 5;
glyphname = Acircumflex;
kernLeft = A;
kernRight = A;
lastChange = "2022-06-05 20:10:17 +0000";
layers = (
{
anchors = (
{
name = bottom;
pos = (676,0);
},
{
name = ogonek;
pos = (1267,0);
},
{
name = top;
pos = (835,1819);
},
{
name = top_viet;
pos = (1034,1594);
},
{
name = top_viet_grave;
pos = (1252,1577);
}
);
layerId = m01;
shapes = (
{
closed = 1;
nodes = (
(449,681,l),
(451,684,o),
(451,687,o),
(451,690,cs),
(453,704,o),
(443,715,o),
(429,715,cs),
(419,715,o),
(409,709,o),
(404,701,cs),
(65,34,l),
(63,31,o),
(62,28,o),
(62,25,cs),
(61,11,o),
(71,0,o),
(85,0,cs),
(95,0,o),
(105,6,o),
(109,14,cs)
);
},
{
closed = 1;
nodes = (
(832,1386,ls),
(829,1394,o),
(820,1400,o),
(810,1400,cs),
(796,1400,o),
(785,1389,o),
(783,1375,cs),
(783,1372,o),
(784,1368,o),
(788,1353,cs),
(1245,14,ls),
(1249,6,o),
(1257,0,o),
(1267,0,cs),
(1281,0,o),
(1293,11,o),
(1294,25,cs),
(1294,28,o),
(1294,32,o),
(1289,47,cs)
);
},
{
closed = 1;
nodes = (
(579,1605,ls),
(575,1601,o),
(573,1596,o),
(572,1590,cs),
(571,1578,o),
(579,1569,o),
(591,1569,cs),
(596,1569,o),
(601,1571,o),
(606,1575,cs),
(847,1783,ls),
(851,1787,o),
(854,1792,o),
(854,1798,cs),
(855,1810,o),
(847,1819,o),
(835,1819,cs),
(830,1819,o),
(825,1817,o),
(821,1813,cs)
);
},
{
closed = 1;
nodes = (
(1020,1575,ls),
(1023,1571,o),
(1028,1569,o),
(1033,1569,cs),
(1045,1569,o),
(1055,1578,o),
(1056,1590,cs),
(1057,1596,o),
(1055,1601,o),
(1051,1605,cs),
(850,1812,l),
(819,1782,l)
);
}
);
width = 1352;
},
{
anchors = (
{
name = bottom;
pos = (706,0);
},
{
name = ogonek;
pos = (1283,-1);
},
{
name = top;
pos = (868,1849);
},
{
name = top_viet;
pos = (1064,1594);
},
{
name = top_viet_grave;
pos = (1227,1613);
}
);
layerId = "19FA402B-9607-46D9-AAD6-815AECBA5B6B";
shapes = (
{
closed = 1;
nodes = (
(495,637,ls),
(498,644,o),
(501,652,o),
(502,661,cs),
(505,694,o),
(480,721,o),
(447,721,cs),
(423,721,o),
(401,707,o),
(389,686,cs),
(82,84,ls),
(79,77,o),
(76,69,o),
(75,60,cs),
(72,27,o),
(97,0,o),
(130,0,cs),
(154,0,o),
(176,14,o),
(188,35,cs)
);
},
{
closed = 1;
nodes = (
(907,1365,ls),
(899,1386,o),
(880,1400,o),
(855,1400,cs),
(822,1400,o),
(793,1373,o),
(790,1340,cs),
(789,1331,o),
(791,1323,o),
(794,1316,c),
(1230,35,ls),
(1238,14,o),
(1257,0,o),
(1282,0,cs),
(1315,0,o),
(1344,27,o),
(1347,60,cs),
(1348,69,o),
(1347,77,o),
(1343,84,c)
);
},
{
closed = 1;
nodes = (
(613,1644,ls),
(603,1635,o),
(596,1622,o),
(595,1608,cs),
(592,1580,o),
(612,1558,o),
(640,1558,cs),
(653,1558,o),
(666,1563,o),
(676,1572,cs),
(894,1763,ls),
(904,1772,o),
(911,1785,o),
(912,1799,cs),
(915,1827,o),
(895,1849,o),
(867,1849,cs),
(854,1849,o),
(841,1844,o),
(832,1835,cs)
);
},
{
closed = 1;
nodes = (
(1012,1572,ls),
(1020,1563,o),
(1031,1558,o),
(1044,1558,cs),
(1072,1558,o),
(1096,1580,o),
(1099,1608,cs),
(1100,1622,o),
(1095,1635,o),
(1087,1644,cs),
(902,1833,l),
(828,1761,l)
);
}
);
width = 1412;
},
{
anchors = (
{
name = bottom;
pos = (768,0);
},
{
name = ogonek;
pos = (1290,3);
},
{
name = top;
pos = (932,1880);
},
{
name = top_viet;
pos = (1147,1651);
},
{
name = top_viet_grave;
pos = (1364,1640);
}
);
layerId = "FF87E3F2-B049-41CB-BF2F-09DB15105515";
shapes = (
{
closed = 1;
nodes = (
(620,522,ls),
(631,542,o),
(639,565,o),
(642,589,cs),
(649,672,o),
(588,739,o),
(505,739,cs),
(446,739,o),
(392,705,o),
(362,655,cs),
(120,217,ls),
(108,197,o),
(100,174,o),
(98,150,cs),
(91,67,o),
(152,0,o),
(235,0,cs),
(294,0,o),
(348,34,o),
(377,84,cs)
);
},
{
closed = 1;
nodes = (
(1039,1316,l),
(1018,1365,o),
(970,1400,o),
(911,1400,cs),
(828,1400,o),
(756,1332,o),
(748,1250,cs),
(746,1226,o),
(750,1203,o),
(757,1183,cs),
(1173,84,l),
(1194,35,o),
(1242,0,o),
(1301,0,cs),
(1384,0,o),
(1457,68,o),
(1464,150,cs),
(1466,174,o),
(1462,197,o),
(1455,217,cs)
);
},
{
closed = 1;
nodes = (
(631,1709,ls),
(603,1691,o),
(583,1661,o),
(580,1627,cs),
(576,1572,o),
(617,1527,o),
(672,1527,cs),
(693,1527,o),
(712,1533,o),
(729,1544,cs),
(974,1698,ls),
(1001,1716,o),
(1021,1746,o),
(1024,1780,cs),
(1029,1835,o),
(987,1880,o),
(932,1880,cs),
(911,1880,o),
(892,1874,o),
(875,1863,cs)
);
},
{
closed = 1;
nodes = (
(1076,1544,ls),
(1092,1533,o),
(1111,1527,o),
(1132,1527,cs),
(1187,1527,o),
(1236,1572,o),
(1240,1627,cs),
(1243,1661,o),
(1229,1691,o),
(1205,1709,cs),
(985,1864,l),
(861,1698,l)
);
}
);
width = 1536;
}
);
unicode = (194,226);
},
{
color = 5;
glyphname = Acircumflexacute;
kernLeft = A;
kernRight = A;
lastChange = "2022-06-05 20:10:17 +0000";
layers = (
{
anchors = (
{
name = bottom;
pos = (676,0);
},
{
name = ogonek;
pos = (1267,0);
},
{
name = top;
pos = (1073,2033);
},
{
name = top_viet;
pos = (1034,1594);
},
{
name = top_viet_grave;
pos = (1252,1577);
}
);
layerId = m01;
shapes = (
{
closed = 1;
nodes = (
(449,681,l),
(451,684,o),
(451,687,o),
(451,690,cs),
(453,704,o),
(443,715,o),
(429,715,cs),
(419,715,o),
(409,709,o),
(404,701,cs),
(65,34,l),
(63,31,o),
(62,28,o),
(62,25,cs),
(61,11,o),
(71,0,o),
(85,0,cs),
(95,0,o),
(105,6,o),
(109,14,cs)
);
},
{
closed = 1;
nodes = (
(832,1386,ls),
(829,1394,o),
(820,1400,o),
(810,1400,cs),
(796,1400,o),
(785,1389,o),
(783,1375,cs),
(783,1372,o),
(784,1368,o),
(788,1353,cs),
(1245,14,ls),
(1249,6,o),
(1257,0,o),
(1267,0,cs),
(1281,0,o),
(1293,11,o),
(1294,25,cs),
(1294,28,o),
(1294,32,o),
(1289,47,cs)
);
},
{
closed = 1;
nodes = (
(579,1605,ls),
(575,1601,o),
(573,1596,o),
(572,1590,cs),
(571,1578,o),
(579,1569,o),
(591,1569,cs),
(596,1569,o),
(601,1571,o),
(606,1575,cs),
(847,1783,ls),
(851,1787,o),
(854,1792,o),
(854,1798,cs),
(855,1810,o),
(847,1819,o),
(835,1819,cs),
(830,1819,o),
(825,1817,o),
(821,1813,cs)
);
},
{
closed = 1;
nodes = (
(1020,1575,ls),
(1023,1571,o),
(1028,1569,o),
(1033,1569,cs),
(1045,1569,o),
(1055,1578,o),
(1056,1590,cs),
(1057,1596,o),
(1055,1601,o),
(1051,1605,cs),
(850,1812,l),
(819,1782,l)
);
},
{
closed = 1;
nodes = (
(1393,1996,ls),
(1398,2000,o),
(1402,2006,o),
(1402,2012,cs),
(1403,2024,o),
(1395,2033,o),
(1383,2033,cs),
(1378,2033,o),
(1374,2032,o),
(1370,2029,cs),
(1054,1799,ls),
(1049,1795,o),
(1046,1789,o),
(1045,1783,cs),
(1044,1771,o),
(1052,1762,o),
(1064,1762,cs),
(1069,1762,o),
(1073,1763,o),
(1078,1766,cs)
);
}
);
width = 1352;
},
{
anchors = (
{
name = bottom;
pos = (706,0);
},
{
name = ogonek;
pos = (1283,-1);
},
{
name = top;
pos = (1102,2024);
},
{
name = top_viet;
pos = (1064,1594);
},
{
name = top_viet_grave;
pos = (1227,1613);
}
);
layerId = "19FA402B-9607-46D9-AAD6-815AECBA5B6B";
shapes = (
{
closed = 1;
nodes = (
(495,637,ls),
(498,644,o),
(501,652,o),
(502,661,cs),
(505,694,o),
(480,721,o),
(447,721,cs),
(423,721,o),
(401,707,o),
(389,686,cs),
(82,84,ls),
(79,77,o),
(76,69,o),
(75,60,cs),
(72,27,o),
(97,0,o),
(130,0,cs),
(154,0,o),
(176,14,o),
(188,35,cs)
);
},
{
closed = 1;
nodes = (
(907,1365,ls),
(899,1386,o),
(880,1400,o),
(855,1400,cs),
(822,1400,o),
(793,1373,o),
(790,1340,cs),
(789,1331,o),
(791,1323,o),
(794,1316,c),
(1230,35,ls),
(1238,14,o),
(1257,0,o),
(1282,0,cs),
(1315,0,o),
(1344,27,o),
(1347,60,cs),
(1348,69,o),
(1347,77,o),
(1343,84,c)
);
},
{
closed = 1;
nodes = (
(613,1644,ls),
(603,1635,o),
(596,1622,o),
(595,1608,cs),
(592,1580,o),
(612,1558,o),
(640,1558,cs),
(653,1558,o),
(666,1563,o),
(676,1572,cs),
(894,1763,ls),
(904,1772,o),
(911,1785,o),
(912,1799,cs),
(915,1827,o),
(895,1849,o),
(867,1849,cs),
(854,1849,o),
(841,1844,o),
(832,1835,cs)
);
},
{
closed = 1;
nodes = (
(1012,1572,ls),
(1020,1563,o),
(1031,1558,o),
(1044,1558,cs),
(1072,1558,o),
(1096,1580,o),
(1099,1608,cs),
(1100,1622,o),
(1095,1635,o),
(1087,1644,cs),
(902,1833,l),
(828,1761,l)
);
},
{
closed = 1;
nodes = (
(1412,1958,ls),
(1426,1967,o),
(1435,1981,o),
(1437,1998,cs),
(1439,2026,o),
(1419,2048,o),
(1391,2048,cs),
(1380,2048,o),
(1370,2045,o),
(1361,2039,cs),
(1058,1837,ls),
(1044,1828,o),
(1035,1814,o),
(1033,1797,cs),
(1031,1769,o),
(1051,1747,o),
(1079,1747,cs),
(1090,1747,o),
(1100,1750,o),
(1109,1756,cs)
);
}
);
width = 1412;
},
{
anchors = (
{
name = bottom;
pos = (768,0);
},
{
name = ogonek;
pos = (1290,3);
},
{
name = top;
pos = (1190,2141);
},
{
name = top_viet;
pos = (1147,1651);
},
{
name = top_viet_grave;
pos = (1364,1640);
}
);
layerId = "FF87E3F2-B049-41CB-BF2F-09DB15105515";
shapes = (
{
closed = 1;
nodes = (
(620,522,ls),
(631,542,o),
(639,565,o),
(642,589,cs),
(649,672,o),
(588,739,o),
(505,739,cs),
(446,739,o),
(392,705,o),
(362,655,cs),
(120,217,ls),
(108,197,o),
(100,174,o),
(98,150,cs),
(91,67,o),
(152,0,o),
(235,0,cs),
(294,0,o),
(348,34,o),
(377,84,cs)
);
},
{
closed = 1;
nodes = (
(1039,1316,l),
(1018,1365,o),
(970,1400,o),
(911,1400,cs),
(828,1400,o),
(756,1332,o),
(748,1250,cs),
(746,1226,o),
(750,1203,o),
(757,1183,cs),
(1173,84,l),
(1194,35,o),
(1242,0,o),
(1301,0,cs),
(1384,0,o),
(1457,68,o),
(1464,150,cs),
(1466,174,o),
(1462,197,o),
(1455,217,cs)
);
},
{
closed = 1;
nodes = (
(631,1709,ls),
(603,1691,o),
(583,1661,o),
(580,1627,cs),
(576,1572,o),
(617,1527,o),
(672,1527,cs),
(693,1527,o),
(712,1533,o),
(729,1544,cs),
(974,1698,ls),
(1001,1716,o),
(1021,1746,o),
(1024,1780,cs),
(1029,1835,o),
(987,1880,o),
(932,1880,cs),
(911,1880,o),
(892,1874,o),
(875,1863,cs)
);
},
{
closed = 1;
nodes = (
(1076,1544,ls),
(1092,1533,o),
(1111,1527,o),
(1132,1527,cs),
(1187,1527,o),
(1236,1572,o),
(1240,1627,cs),
(1243,1661,o),
(1229,1691,o),
(1205,1709,cs),
(985,1864,l),
(861,1698,l)
);
},
{
closed = 1;
nodes = (
(1500,1949,ls),
(1527,1967,o),
(1547,1997,o),
(1550,2031,cs),
(1555,2086,o),
(1513,2131,o),
(1458,2131,cs),
(1437,2131,o),
(1418,2125,o),
(1401,2114,cs),
(1156,1960,ls),
(1129,1942,o),
(1109,1912,o),
(1106,1878,cs),
(1101,1823,o),
(1143,1778,o),
(1198,1778,cs),
(1219,1778,o),
(1238,1784,o),
(1255,1795,cs)
);
}
);
width = 1536;
}
);
unicode = (7844,7845);
},
{
color = 5;
glyphname = Acircumflexdotbelow;
kernLeft = A;
kernRight = A;
lastChange = "2022-06-05 20:10:17 +0000";
layers = (
{
anchors = (
{
name = bottom;
pos = (676,0);
},
{
name = ogonek;
pos = (1267,0);
},
{
name = top;
pos = (835,1819);
},
{
name = top_viet;
pos = (1034,1594);
},
{
name = top_viet_grave;
pos = (1252,1577);
}
);
layerId = m01;
shapes = (
{
closed = 1;
nodes = (
(449,681,l),
(451,684,o),
(451,687,o),
(451,690,cs),
(453,704,o),
(443,715,o),
(429,715,cs),
(419,715,o),
(409,709,o),
(404,701,cs),
(65,34,l),
(63,31,o),
(62,28,o),
(62,25,cs),
(61,11,o),
(71,0,o),
(85,0,cs),
(95,0,o),
(105,6,o),
(109,14,cs)
);
},
{
closed = 1;
nodes = (
(832,1386,ls),
(829,1394,o),
(820,1400,o),
(810,1400,cs),
(796,1400,o),
(785,1389,o),
(783,1375,cs),
(783,1372,o),
(784,1368,o),
(788,1353,cs),
(1245,14,ls),
(1249,6,o),
(1257,0,o),
(1267,0,cs),
(1281,0,o),
(1293,11,o),
(1294,25,cs),
(1294,28,o),
(1294,32,o),
(1289,47,cs)
);
},
{
closed = 1;
nodes = (
(674,-206,o),
(689,-192,o),
(691,-176,cs),
(692,-160,o),
(679,-146,o),
(663,-146,cs),
(647,-146,o),
(632,-160,o),
(631,-176,cs),
(629,-192,o),
(642,-206,o),
(658,-206,cs)
);
},
{
closed = 1;
nodes = (
(579,1605,ls),
(575,1601,o),
(573,1596,o),
(572,1590,cs),
(571,1578,o),
(579,1569,o),
(591,1569,cs),
(596,1569,o),
(601,1571,o),
(606,1575,cs),
(847,1783,ls),
(851,1787,o),
(854,1792,o),
(854,1798,cs),
(855,1810,o),
(847,1819,o),
(835,1819,cs),
(830,1819,o),
(825,1817,o),
(821,1813,cs)
);
},
{
closed = 1;
nodes = (
(1020,1575,ls),
(1023,1571,o),
(1028,1569,o),
(1033,1569,cs),
(1045,1569,o),
(1055,1578,o),
(1056,1590,cs),
(1057,1596,o),
(1055,1601,o),
(1051,1605,cs),
(850,1812,l),
(819,1782,l)
);
}
);
width = 1352;
},
{
anchors = (
{
name = bottom;
pos = (706,0);
},
{
name = ogonek;
pos = (1283,-1);
},
{
name = top;
pos = (868,1849);
},
{
name = top_viet;
pos = (1064,1594);
},
{
name = top_viet_grave;
pos = (1227,1613);
}
);
layerId = "19FA402B-9607-46D9-AAD6-815AECBA5B6B";
shapes = (
{
closed = 1;
nodes = (
(495,637,ls),
(498,644,o),
(501,652,o),
(502,661,cs),
(505,694,o),
(480,721,o),
(447,721,cs),
(423,721,o),
(401,707,o),
(389,686,cs),
(82,84,ls),
(79,77,o),
(76,69,o),
(75,60,cs),
(72,27,o),
(97,0,o),
(130,0,cs),
(154,0,o),
(176,14,o),
(188,35,cs)
);
},
{
closed = 1;
nodes = (
(907,1365,ls),
(899,1386,o),
(880,1400,o),
(855,1400,cs),
(822,1400,o),
(793,1373,o),
(790,1340,cs),
(789,1331,o),
(791,1323,o),
(794,1316,c),
(1230,35,ls),
(1238,14,o),
(1257,0,o),
(1282,0,cs),
(1315,0,o),
(1344,27,o),
(1347,60,cs),
(1348,69,o),
(1347,77,o),
(1343,84,c)
);
},
{
closed = 1;
nodes = (
(721,-296,o),
(758,-262,o),
(762,-221,cs),
(765,-180,o),
(734,-146,o),
(693,-146,cs),
(652,-146,o),
(615,-180,o),
(612,-221,cs),
(608,-262,o),
(639,-296,o),
(680,-296,cs)
);
},
{
closed = 1;
nodes = (
(613,1644,ls),
(603,1635,o),
(596,1622,o),
(595,1608,cs),
(592,1580,o),
(612,1558,o),
(640,1558,cs),
(653,1558,o),
(666,1563,o),
(676,1572,cs),
(894,1763,ls),
(904,1772,o),
(911,1785,o),
(912,1799,cs),
(915,1827,o),
(895,1849,o),
(867,1849,cs),
(854,1849,o),
(841,1844,o),
(832,1835,cs)
);
},
{
closed = 1;
nodes = (
(1012,1572,ls),
(1020,1563,o),
(1031,1558,o),
(1044,1558,cs),
(1072,1558,o),
(1096,1580,o),
(1099,1608,cs),
(1100,1622,o),
(1095,1635,o),
(1087,1644,cs),
(902,1833,l),
(828,1761,l)
);
}
);
width = 1412;
},
{
anchors = (
{
name = bottom;
pos = (768,0);
},
{
name = ogonek;
pos = (1290,3);
},
{
name = top;
pos = (932,1880);
},
{
name = top_viet;
pos = (1147,1651);
},
{
name = top_viet_grave;
pos = (1364,1640);
}
);
layerId = "FF87E3F2-B049-41CB-BF2F-09DB15105515";
shapes = (
{
closed = 1;
nodes = (
(620,522,ls),
(631,542,o),
(639,565,o),
(642,589,cs),
(649,672,o),
(588,739,o),
(505,739,cs),
(446,739,o),
(392,705,o),
(362,655,cs),
(120,217,ls),
(108,197,o),
(100,174,o),
(98,150,cs),
(91,67,o),
(152,0,o),
(235,0,cs),
(294,0,o),
(348,34,o),
(377,84,cs)
);
},
{
closed = 1;
nodes = (
(1039,1316,l),
(1018,1365,o),
(970,1400,o),
(911,1400,cs),
(828,1400,o),
(756,1332,o),
(748,1250,cs),
(746,1226,o),
(750,1203,o),
(757,1183,cs),
(1173,84,l),
(1194,35,o),
(1242,0,o),
(1301,0,cs),
(1384,0,o),
(1457,68,o),
(1464,150,cs),
(1466,174,o),
(1462,197,o),
(1455,217,cs)
);
},
{
closed = 1;
nodes = (
(806,-334,o),
(866,-279,o),
(871,-213,cs),
(877,-146,o),
(826,-91,o),
(760,-91,cs),
(694,-91,o),
(633,-146,o),
(627,-213,cs),
(622,-279,o),
(674,-334,o),
(740,-334,cs)
);
},
{
closed = 1;
nodes = (
(631,1709,ls),
(603,1691,o),
(583,1661,o),
(580,1627,cs),
(576,1572,o),
(617,1527,o),
(672,1527,cs),
(693,1527,o),
(712,1533,o),
(729,1544,cs),
(974,1698,ls),
(1001,1716,o),
(1021,1746,o),
(1024,1780,cs),
(1029,1835,o),
(987,1880,o),
(932,1880,cs),
(911,1880,o),
(892,1874,o),
(875,1863,cs)
);
},
{
closed = 1;
nodes = (
(1076,1544,ls),
(1092,1533,o),
(1111,1527,o),
(1132,1527,cs),
(1187,1527,o),
(1236,1572,o),
(1240,1627,cs),
(1243,1661,o),
(1229,1691,o),
(1205,1709,cs),
(985,1864,l),
(861,1698,l)
);
}
);
width = 1536;
}
);
unicode = (7852,7853);
},
{
color = 5;
glyphname = Acircumflexgrave;
kernLeft = A;
kernRight = A;
lastChange = "2022-06-05 20:10:17 +0000";
layers = (
{
anchors = (
{
name = bottom;
pos = (676,0);
},
{
name = ogonek;
pos = (1267,0);
},
{
name = top;
pos = (1290,2016);
},
{
name = top_viet;
pos = (1034,1594);
},
{
name = top_viet_grave;
pos = (1252,1577);
}
);
layerId = m01;
shapes = (
{
closed = 1;
nodes = (
(449,681,l),
(451,684,o),
(451,687,o),
(451,690,cs),
(453,704,o),
(443,715,o),
(429,715,cs),
(419,715,o),
(409,709,o),
(404,701,cs),
(65,34,l),
(63,31,o),
(62,28,o),
(62,25,cs),
(61,11,o),
(71,0,o),
(85,0,cs),
(95,0,o),
(105,6,o),
(109,14,cs)
);
},
{
closed = 1;
nodes = (
(832,1386,ls),
(829,1394,o),
(820,1400,o),
(810,1400,cs),
(796,1400,o),
(785,1389,o),
(783,1375,cs),
(783,1372,o),
(784,1368,o),
(788,1353,cs),
(1245,14,ls),
(1249,6,o),
(1257,0,o),
(1267,0,cs),
(1281,0,o),
(1293,11,o),
(1294,25,cs),
(1294,28,o),
(1294,32,o),
(1289,47,cs)
);
},
{
closed = 1;
nodes = (
(579,1605,ls),
(575,1601,o),
(573,1596,o),
(572,1590,cs),
(571,1578,o),
(579,1569,o),
(591,1569,cs),
(596,1569,o),
(601,1571,o),
(606,1575,cs),
(847,1783,ls),
(851,1787,o),
(854,1792,o),
(854,1798,cs),
(855,1810,o),
(847,1819,o),
(835,1819,cs),
(830,1819,o),
(825,1817,o),
(821,1813,cs)
);
},
{
closed = 1;
nodes = (
(1020,1575,ls),
(1023,1571,o),
(1028,1569,o),
(1033,1569,cs),
(1045,1569,o),
(1055,1578,o),
(1056,1590,cs),
(1057,1596,o),
(1055,1601,o),
(1051,1605,cs),
(850,1812,l),
(819,1782,l)
);
},
{
closed = 1;
nodes = (
(1240,1749,ls),
(1244,1746,o),
(1248,1745,o),
(1253,1745,cs),
(1265,1745,o),
(1274,1754,o),
(1276,1766,cs),
(1276,1772,o),
(1274,1778,o),
(1269,1782,cs),
(994,2012,ls),
(990,2015,o),
(986,2016,o),
(981,2016,cs),
(969,2016,o),
(960,2007,o),
(959,1995,cs),
(958,1989,o),
(960,1983,o),
(965,1979,cs)
);
}
);
width = 1352;
},
{
anchors = (
{
name = bottom;
pos = (706,0);
},
{
name = ogonek;
pos = (1283,-1);
},
{
name = top;
pos = (1265,2043);
},
{
name = top_viet;
pos = (1064,1594);
},
{
name = top_viet_grave;
pos = (1227,1613);
}
);
layerId = "19FA402B-9607-46D9-AAD6-815AECBA5B6B";
shapes = (
{
closed = 1;
nodes = (
(495,637,ls),
(498,644,o),
(501,652,o),
(502,661,cs),
(505,694,o),
(480,721,o),
(447,721,cs),
(423,721,o),
(401,707,o),
(389,686,cs),
(82,84,ls),
(79,77,o),
(76,69,o),
(75,60,cs),
(72,27,o),
(97,0,o),
(130,0,cs),
(154,0,o),
(176,14,o),
(188,35,cs)
);
},
{
closed = 1;
nodes = (
(907,1365,ls),
(899,1386,o),
(880,1400,o),
(855,1400,cs),
(822,1400,o),
(793,1373,o),
(790,1340,cs),
(789,1331,o),
(791,1323,o),
(794,1316,c),
(1230,35,ls),
(1238,14,o),
(1257,0,o),
(1282,0,cs),
(1315,0,o),
(1344,27,o),
(1347,60,cs),
(1348,69,o),
(1347,77,o),
(1343,84,c)
);
},
{
closed = 1;
nodes = (
(613,1644,ls),
(603,1635,o),
(596,1622,o),
(595,1608,cs),
(592,1580,o),
(612,1558,o),
(640,1558,cs),
(653,1558,o),
(666,1563,o),
(676,1572,cs),
(894,1763,ls),
(904,1772,o),
(911,1785,o),
(912,1799,cs),
(915,1827,o),
(895,1849,o),
(867,1849,cs),
(854,1849,o),
(841,1844,o),
(832,1835,cs)
);
},
{
closed = 1;
nodes = (
(1012,1572,ls),
(1020,1563,o),
(1031,1558,o),
(1044,1558,cs),
(1072,1558,o),
(1096,1580,o),
(1099,1608,cs),
(1100,1622,o),
(1095,1635,o),
(1087,1644,cs),
(902,1833,l),
(828,1761,l)
);
},
{
closed = 1;
nodes = (
(1211,1775,ls),
(1219,1769,o),
(1229,1766,o),
(1240,1766,cs),
(1268,1766,o),
(1291,1788,o),
(1294,1816,cs),
(1295,1833,o),
(1289,1847,o),
(1276,1856,cs),
(1008,2058,ls),
(1001,2064,o),
(991,2067,o),
(980,2067,cs),
(952,2067,o),
(928,2045,o),
(925,2017,cs),
(924,2000,o),
(931,1986,o),
(943,1977,cs)
);
}
);
width = 1412;
},
{
anchors = (
{
name = bottom;
pos = (768,0);
},
{
name = ogonek;
pos = (1290,3);
},
{
name = top;
pos = (1407,2130);
},
{
name = top_viet;
pos = (1147,1651);
},
{
name = top_viet_grave;
pos = (1364,1640);
}
);
layerId = "FF87E3F2-B049-41CB-BF2F-09DB15105515";
shapes = (
{
closed = 1;
nodes = (
(620,522,ls),
(631,542,o),
(639,565,o),
(642,589,cs),
(649,672,o),
(588,739,o),
(505,739,cs),
(446,739,o),
(392,705,o),
(362,655,cs),
(120,217,ls),
(108,197,o),
(100,174,o),
(98,150,cs),
(91,67,o),
(152,0,o),
(235,0,cs),
(294,0,o),
(348,34,o),
(377,84,cs)
);
},
{
closed = 1;
nodes = (
(1039,1316,l),
(1018,1365,o),
(970,1400,o),
(911,1400,cs),
(828,1400,o),
(756,1332,o),
(748,1250,cs),
(746,1226,o),
(750,1203,o),
(757,1183,cs),
(1173,84,l),
(1194,35,o),
(1242,0,o),
(1301,0,cs),
(1384,0,o),
(1457,68,o),
(1464,150,cs),
(1466,174,o),
(1462,197,o),
(1455,217,cs)
);
},
{
closed = 1;
nodes = (
(631,1709,ls),
(603,1691,o),
(583,1661,o),
(580,1627,cs),
(576,1572,o),
(617,1527,o),
(672,1527,cs),
(693,1527,o),
(712,1533,o),
(729,1544,cs),
(974,1698,ls),
(1001,1716,o),
(1021,1746,o),
(1024,1780,cs),
(1029,1835,o),
(987,1880,o),
(932,1880,cs),
(911,1880,o),
(892,1874,o),
(875,1863,cs)
);
},
{
closed = 1;
nodes = (
(1076,1544,ls),
(1092,1533,o),
(1111,1527,o),
(1132,1527,cs),
(1187,1527,o),
(1236,1572,o),
(1240,1627,cs),
(1243,1661,o),
(1229,1691,o),
(1205,1709,cs),
(985,1864,l),
(861,1698,l)
);
},
{
closed = 1;
nodes = (
(1282,1784,ls),
(1297,1773,o),
(1316,1767,o),
(1337,1767,cs),
(1392,1767,o),
(1441,1812,o),
(1445,1867,cs),
(1448,1901,o),
(1434,1931,o),
(1410,1949,cs),
(1192,2103,ls),
(1177,2114,o),
(1158,2120,o),
(1137,2120,cs),
(1082,2120,o),
(1034,2075,o),
(1029,2020,cs),
(1026,1986,o),
(1040,1956,o),
(1065,1938,cs)
);
}
);
width = 1536;
}
);
unicode = (7846,7847);
},
{
color = 5;
glyphname = Acircumflexhookabove;
kernLeft = A;
kernRight = A;
lastChange = "2022-06-05 20:10:17 +0000";
layers = (
{
anchors = (
{
name = bottom;
pos = (676,0);
},
{
name = ogonek;
pos = (1267,0);
},
{
name = top;
pos = (1078,2097);
},
{
name = top_viet;
pos = (1034,1594);
},
{
name = top_viet_grave;
pos = (1252,1577);
}
);
layerId = m01;
shapes = (
{
closed = 1;
nodes = (
(449,681,l),
(451,684,o),
(451,687,o),
(451,690,cs),
(453,704,o),
(443,715,o),
(429,715,cs),
(419,715,o),
(409,709,o),
(404,701,cs),
(65,34,l),
(63,31,o),
(62,28,o),
(62,25,cs),
(61,11,o),
(71,0,o),
(85,0,cs),
(95,0,o),
(105,6,o),
(109,14,cs)
);
},
{
closed = 1;
nodes = (
(832,1386,ls),
(829,1394,o),
(820,1400,o),
(810,1400,cs),
(796,1400,o),
(785,1389,o),
(783,1375,cs),
(783,1372,o),
(784,1368,o),
(788,1353,cs),
(1245,14,ls),
(1249,6,o),
(1257,0,o),
(1267,0,cs),
(1281,0,o),
(1293,11,o),
(1294,25,cs),
(1294,28,o),
(1294,32,o),
(1289,47,cs)
);
},
{
closed = 1;
nodes = (
(579,1605,ls),
(575,1601,o),
(573,1596,o),
(572,1590,cs),
(571,1578,o),
(579,1569,o),
(591,1569,cs),
(596,1569,o),
(601,1571,o),
(606,1575,cs),
(847,1783,ls),
(851,1787,o),
(854,1792,o),
(854,1798,cs),
(855,1810,o),
(847,1819,o),
(835,1819,cs),
(830,1819,o),
(825,1817,o),
(821,1813,cs)
);
},
{
closed = 1;
nodes = (
(1020,1575,ls),
(1023,1571,o),
(1028,1569,o),
(1033,1569,cs),
(1045,1569,o),
(1055,1578,o),
(1056,1590,cs),
(1057,1596,o),
(1055,1601,o),
(1051,1605,cs),
(850,1812,l),
(819,1782,l)
);
},
{
closed = 1;
nodes = (
(1076,2055,o),
(1123,2003,o),
(1118,1939,cs),
(1112,1875,o),
(1055,1823,o),
(991,1823,cs),
(979,1823,o),
(970,1814,o),
(969,1802,cs),
(968,1790,o),
(976,1781,o),
(988,1781,cs),
(1075,1781,o),
(1152,1852,o),
(1160,1939,cs),
(1167,2026,o),
(1102,2097,o),
(1015,2097,cs),
(1003,2097,o),
(994,2088,o),
(993,2076,cs),
(992,2064,o),
(1000,2055,o),
(1012,2055,cs)
);
}
);
width = 1352;
},
{
anchors = (
{
name = bottom;
pos = (706,0);
},
{
name = ogonek;
pos = (1283,-1);
},
{
name = top;
pos = (1139,2140);
},
{
name = top_viet;
pos = (1064,1594);
},
{
name = top_viet_grave;
pos = (1227,1613);
}
);
layerId = "19FA402B-9607-46D9-AAD6-815AECBA5B6B";
shapes = (
{
closed = 1;
nodes = (
(495,637,ls),
(498,644,o),
(501,652,o),
(502,661,cs),
(505,694,o),
(480,721,o),
(447,721,cs),
(423,721,o),
(401,707,o),
(389,686,cs),
(82,84,ls),
(79,77,o),
(76,69,o),
(75,60,cs),
(72,27,o),
(97,0,o),
(130,0,cs),
(154,0,o),
(176,14,o),
(188,35,cs)
);
},
{
closed = 1;
nodes = (
(907,1365,ls),
(899,1386,o),
(880,1400,o),
(855,1400,cs),
(822,1400,o),
(793,1373,o),
(790,1340,cs),
(789,1331,o),
(791,1323,o),
(794,1316,c),
(1230,35,ls),
(1238,14,o),
(1257,0,o),
(1282,0,cs),
(1315,0,o),
(1344,27,o),
(1347,60,cs),
(1348,69,o),
(1347,77,o),
(1343,84,c)
);
},
{
closed = 1;
nodes = (
(613,1644,ls),
(603,1635,o),
(596,1622,o),
(595,1608,cs),
(592,1580,o),
(612,1558,o),
(640,1558,cs),
(653,1558,o),
(666,1563,o),
(676,1572,cs),
(894,1763,ls),
(904,1772,o),
(911,1785,o),
(912,1799,cs),
(915,1827,o),
(895,1849,o),
(867,1849,cs),
(854,1849,o),
(841,1844,o),
(832,1835,cs)
);
},
{
closed = 1;
nodes = (
(1012,1572,ls),
(1020,1563,o),
(1031,1558,o),
(1044,1558,cs),
(1072,1558,o),
(1096,1580,o),
(1099,1608,cs),
(1100,1622,o),
(1095,1635,o),
(1087,1644,cs),
(902,1833,l),
(828,1761,l)
);
},
{
closed = 1;
nodes = (
(1124,2040,o),
(1159,2002,o),
(1155,1955,cs),
(1151,1908,o),
(1110,1870,o),
(1063,1870,cs),
(1035,1870,o),
(1011,1848,o),
(1008,1820,cs),
(1006,1792,o),
(1026,1770,o),
(1054,1770,cs),
(1156,1770,o),
(1246,1853,o),
(1255,1955,cs),
(1264,2057,o),
(1188,2140,o),
(1086,2140,cs),
(1058,2140,o),
(1034,2118,o),
(1032,2090,cs),
(1029,2062,o),
(1049,2040,o),
(1077,2040,cs)
);
}
);
width = 1412;
},
{
anchors = (
{
name = bottom;
pos = (768,0);
},
{
name = ogonek;
pos = (1290,3);
},
{
name = top;
pos = (1260,2231);
},
{
name = top_viet;
pos = (1147,1651);
},
{
name = top_viet_grave;
pos = (1364,1640);
}
);
layerId = "FF87E3F2-B049-41CB-BF2F-09DB15105515";
shapes = (
{
closed = 1;
nodes = (
(620,522,ls),
(631,542,o),
(639,565,o),
(642,589,cs),
(649,672,o),
(588,739,o),
(505,739,cs),
(446,739,o),
(392,705,o),
(362,655,cs),
(120,217,ls),
(108,197,o),
(100,174,o),
(98,150,cs),
(91,67,o),
(152,0,o),
(235,0,cs),
(294,0,o),
(348,34,o),
(377,84,cs)
);
},
{
closed = 1;
nodes = (
(1039,1316,l),
(1018,1365,o),
(970,1400,o),
(911,1400,cs),
(828,1400,o),
(756,1332,o),
(748,1250,cs),
(746,1226,o),
(750,1203,o),
(757,1183,cs),
(1173,84,l),
(1194,35,o),
(1242,0,o),
(1301,0,cs),
(1384,0,o),
(1457,68,o),
(1464,150,cs),
(1466,174,o),
(1462,197,o),
(1455,217,cs)
);
},
{
closed = 1;
nodes = (
(631,1709,ls),
(603,1691,o),
(583,1661,o),
(580,1627,cs),
(576,1572,o),
(617,1527,o),
(672,1527,cs),
(693,1527,o),
(712,1533,o),
(729,1544,cs),
(974,1698,ls),
(1001,1716,o),
(1021,1746,o),
(1024,1780,cs),
(1029,1835,o),
(987,1880,o),
(932,1880,cs),
(911,1880,o),
(892,1874,o),
(875,1863,cs)
);
},
{
closed = 1;
nodes = (
(1076,1544,ls),
(1092,1533,o),
(1111,1527,o),
(1132,1527,cs),
(1187,1527,o),
(1236,1572,o),
(1240,1627,cs),
(1243,1661,o),
(1229,1691,o),
(1205,1709,cs),
(985,1864,l),
(861,1698,l)
);
},
{
closed = 1;
nodes = (
(1232,2091,o),
(1258,2062,o),
(1255,2025,cs),
(1252,1988,o),
(1220,1959,o),
(1183,1959,cs),
(1144,1959,o),
(1111,1928,o),
(1107,1889,cs),
(1104,1850,o),
(1132,1819,o),
(1171,1819,cs),
(1285,1819,o),
(1385,1911,o),
(1395,2025,cs),
(1405,2139,o),
(1321,2231,o),
(1207,2231,cs),
(1168,2231,o),
(1134,2200,o),
(1131,2161,cs),
(1128,2122,o),
(1156,2091,o),
(1195,2091,cs)
);
}
);
width = 1536;
}
);
unicode = (7848,7849);
},
{
color = 5;
glyphname = Acircumflextilde;
kernLeft = A;
kernRight = A;
lastChange = "2022-06-05 20:10:17 +0000";
layers = (
{
anchors = (
{
name = bottom;
pos = (676,0);
},
{
name = ogonek;
pos = (1267,0);
},
{
name = top;
pos = (865,2165);
},
{
name = top_viet;
pos = (1034,1594);
},
{
name = top_viet_grave;
pos = (1252,1577);
}
);
layerId = m01;
shapes = (
{
closed = 1;
nodes = (
(449,681,l),
(451,684,o),
(451,687,o),
(451,690,cs),
(453,704,o),
(443,715,o),
(429,715,cs),
(419,715,o),
(409,709,o),
(404,701,cs),
(65,34,l),
(63,31,o),
(62,28,o),
(62,25,cs),
(61,11,o),
(71,0,o),
(85,0,cs),
(95,0,o),
(105,6,o),
(109,14,cs)
);
},
{
closed = 1;
nodes = (
(832,1386,ls),
(829,1394,o),
(820,1400,o),
(810,1400,cs),
(796,1400,o),
(785,1389,o),
(783,1375,cs),
(783,1372,o),
(784,1368,o),
(788,1353,cs),
(1245,14,ls),
(1249,6,o),
(1257,0,o),
(1267,0,cs),
(1281,0,o),
(1293,11,o),
(1294,25,cs),
(1294,28,o),
(1294,32,o),
(1289,47,cs)
);
},
{
closed = 1;
nodes = (
(579,1605,ls),
(575,1601,o),
(573,1596,o),
(572,1590,cs),
(571,1578,o),
(579,1569,o),
(591,1569,cs),
(596,1569,o),
(601,1571,o),
(606,1575,cs),
(847,1783,ls),
(851,1787,o),
(854,1792,o),
(854,1798,cs),
(855,1810,o),
(847,1819,o),
(835,1819,cs),
(830,1819,o),
(825,1817,o),
(821,1813,cs)
);
},
{
closed = 1;
nodes = (
(1020,1575,ls),
(1023,1571,o),
(1028,1569,o),
(1033,1569,cs),
(1045,1569,o),
(1055,1578,o),
(1056,1590,cs),
(1057,1596,o),
(1055,1601,o),
(1051,1605,cs),
(850,1812,l),
(819,1782,l)
);
},
{
closed = 1;
nodes = (
(1063,2061,o),
(972,2034,o),
(873,2112,cs),
(756,2204,o),
(631,2168,o),
(574,2070,cs),
(573,2067,o),
(572,2064,o),
(571,2061,cs),
(570,2049,o),
(578,2040,o),
(590,2040,cs),
(598,2040,o),
(606,2045,o),
(611,2052,cs),
(655,2129,o),
(747,2156,o),
(846,2078,cs),
(963,1986,o),
(1088,2022,o),
(1144,2120,cs),
(1146,2123,o),
(1147,2126,o),
(1147,2129,cs),
(1148,2141,o),
(1140,2150,o),
(1128,2150,cs),
(1120,2150,o),
(1113,2145,o),
(1108,2138,cs)
);
}
);
width = 1352;
},
{
anchors = (
{
name = bottom;
pos = (706,0);
},
{
name = ogonek;
pos = (1283,-1);
},
{
name = top;
pos = (898,2189);
},
{
name = top_viet;
pos = (1064,1594);
},
{
name = top_viet_grave;
pos = (1227,1613);
}
);
layerId = "19FA402B-9607-46D9-AAD6-815AECBA5B6B";
shapes = (
{
closed = 1;
nodes = (
(495,637,ls),
(498,644,o),
(501,652,o),
(502,661,cs),
(505,694,o),
(480,721,o),
(447,721,cs),
(423,721,o),
(401,707,o),
(389,686,cs),
(82,84,ls),
(79,77,o),
(76,69,o),
(75,60,cs),
(72,27,o),
(97,0,o),
(130,0,cs),
(154,0,o),
(176,14,o),
(188,35,cs)
);
},
{
closed = 1;
nodes = (
(907,1365,ls),
(899,1386,o),
(880,1400,o),
(855,1400,cs),
(822,1400,o),
(793,1373,o),
(790,1340,cs),
(789,1331,o),
(791,1323,o),
(794,1316,c),
(1230,35,ls),
(1238,14,o),
(1257,0,o),
(1282,0,cs),
(1315,0,o),
(1344,27,o),
(1347,60,cs),
(1348,69,o),
(1347,77,o),
(1343,84,c)
);
},
{
closed = 1;
nodes = (
(613,1644,ls),
(603,1635,o),
(596,1622,o),
(595,1608,cs),
(592,1580,o),
(612,1558,o),
(640,1558,cs),
(653,1558,o),
(666,1563,o),
(676,1572,cs),
(894,1763,ls),
(904,1772,o),
(911,1785,o),
(912,1799,cs),
(915,1827,o),
(895,1849,o),
(867,1849,cs),
(854,1849,o),
(841,1844,o),
(832,1835,cs)
);
},
{
closed = 1;
nodes = (
(1012,1572,ls),
(1020,1563,o),
(1031,1558,o),
(1044,1558,cs),
(1072,1558,o),
(1096,1580,o),
(1099,1608,cs),
(1100,1622,o),
(1095,1635,o),
(1087,1644,cs),
(902,1833,l),
(828,1761,l)
);
},
{
closed = 1;
nodes = (
(1046,2113,o),
(1000,2098,o),
(927,2163,cs),
(810,2271,o),
(675,2225,o),
(617,2110,cs),
(613,2104,o),
(612,2098,o),
(611,2091,cs),
(608,2063,o),
(629,2041,o),
(657,2041,cs),
(678,2041,o),
(697,2054,o),
(705,2072,cs),
(738,2137,o),
(784,2152,o),
(857,2087,cs),
(974,1979,o),
(1109,2025,o),
(1167,2140,cs),
(1171,2146,o),
(1172,2152,o),
(1173,2159,cs),
(1175,2187,o),
(1155,2209,o),
(1127,2209,cs),
(1106,2209,o),
(1087,2196,o),
(1079,2178,cs)
);
}
);
width = 1412;
},
{
anchors = (
{
name = bottom;
pos = (768,0);
},
{
name = ogonek;
pos = (1290,3);
},
{
name = top;
pos = (971,2325);
},
{
name = top_viet;
pos = (1147,1651);
},
{
name = top_viet_grave;
pos = (1364,1640);
}
);
layerId = "FF87E3F2-B049-41CB-BF2F-09DB15105515";
shapes = (
{
closed = 1;
nodes = (
(620,522,ls),
(631,542,o),
(639,565,o),
(642,589,cs),
(649,672,o),
(588,739,o),
(505,739,cs),
(446,739,o),
(392,705,o),
(362,655,cs),
(120,217,ls),
(108,197,o),
(100,174,o),
(98,150,cs),
(91,67,o),
(152,0,o),
(235,0,cs),
(294,0,o),
(348,34,o),
(377,84,cs)
);
},
{
closed = 1;
nodes = (
(1039,1316,l),
(1018,1365,o),
(970,1400,o),
(911,1400,cs),
(828,1400,o),
(756,1332,o),
(748,1250,cs),
(746,1226,o),
(750,1203,o),
(757,1183,cs),
(1173,84,l),
(1194,35,o),
(1242,0,o),
(1301,0,cs),
(1384,0,o),
(1457,68,o),
(1464,150,cs),
(1466,174,o),
(1462,197,o),
(1455,217,cs)
);
},
{
closed = 1;
nodes = (
(631,1709,ls),
(603,1691,o),
(583,1661,o),
(580,1627,cs),
(576,1572,o),
(617,1527,o),
(672,1527,cs),
(693,1527,o),
(712,1533,o),
(729,1544,cs),
(974,1698,ls),
(1001,1716,o),
(1021,1746,o),
(1024,1780,cs),
(1029,1835,o),
(987,1880,o),
(932,1880,cs),
(911,1880,o),
(892,1874,o),
(875,1863,cs)
);
},
{
closed = 1;
nodes = (
(1076,1544,ls),
(1092,1533,o),
(1111,1527,o),
(1132,1527,cs),
(1187,1527,o),
(1236,1572,o),
(1240,1627,cs),
(1243,1661,o),
(1229,1691,o),
(1205,1709,cs),
(985,1864,l),
(861,1698,l)
);
},
{
closed = 1;
nodes = (
(1114,2202,o),
(1072,2208,o),
(1033,2247,cs),
(916,2365,o),
(682,2357,o),
(601,2168,cs),
(596,2158,o),
(593,2146,o),
(592,2135,cs),
(587,2080,o),
(628,2035,o),
(683,2035,cs),
(727,2035,o),
(766,2063,o),
(783,2102,cs),
(804,2149,o),
(841,2145,o),
(884,2101,cs),
(1000,1983,o),
(1237,1997,o),
(1316,2180,cs),
(1321,2190,o),
(1324,2202,o),
(1325,2213,cs),
(1329,2268,o),
(1288,2313,o),
(1233,2313,cs),
(1189,2313,o),
(1150,2285,o),
(1133,2246,cs)
);
}
);
width = 1536;
}
);
unicode = (7850,7851);
},
{
color = 5;
glyphname = Adieresis;
kernLeft = A;
kernRight = A;
lastChange = "2022-06-05 20:10:17 +0000";
layers = (
{
anchors = (
{
name = bottom;
pos = (676,0);
},
{
name = ogonek;
pos = (1267,0);
},
{
name = top;
pos = (821,1654);
}
);
layerId = m01;
shapes = (
{
closed = 1;
nodes = (
(449,681,l),
(451,684,o),
(451,687,o),
(451,690,cs),
(453,704,o),
(443,715,o),
(429,715,cs),
(419,715,o),
(409,709,o),
(404,701,cs),
(65,34,l),
(63,31,o),
(62,28,o),
(62,25,cs),
(61,11,o),
(71,0,o),
(85,0,cs),
(95,0,o),
(105,6,o),
(109,14,cs)
);
},
{
closed = 1;
nodes = (
(832,1386,ls),
(829,1394,o),
(820,1400,o),
(810,1400,cs),
(796,1400,o),
(785,1389,o),
(783,1375,cs),
(783,1372,o),
(784,1368,o),
(788,1353,cs),
(1245,14,ls),
(1249,6,o),
(1257,0,o),
(1267,0,cs),
(1281,0,o),
(1293,11,o),
(1294,25,cs),
(1294,28,o),
(1294,32,o),
(1289,47,cs)
);
},
{
closed = 1;
nodes = (
(1011,1594,o),
(1027,1608,o),
(1028,1624,cs),
(1029,1640,o),
(1017,1654,o),
(1001,1654,cs),
(985,1654,o),
(969,1640,o),
(968,1624,cs),
(967,1608,o),
(979,1594,o),
(995,1594,cs)
);
},
{
closed = 1;
nodes = (
(651,1594,o),
(667,1608,o),
(668,1624,cs),
(669,1640,o),
(657,1654,o),
(641,1654,cs),
(625,1654,o),
(609,1640,o),
(608,1624,cs),
(607,1608,o),
(619,1594,o),
(635,1594,cs)
);
}
);
width = 1352;
},
{
anchors = (
{
name = bottom;
pos = (706,0);
},
{
name = ogonek;
pos = (1283,-1);
},
{
name = top;
pos = (859,1744);
}
);
layerId = "19FA402B-9607-46D9-AAD6-815AECBA5B6B";
shapes = (
{
closed = 1;
nodes = (
(495,637,ls),
(498,644,o),
(501,652,o),
(502,661,cs),
(505,694,o),
(480,721,o),
(447,721,cs),
(423,721,o),
(401,707,o),
(389,686,cs),
(82,84,ls),
(79,77,o),
(76,69,o),
(75,60,cs),
(72,27,o),
(97,0,o),
(130,0,cs),
(154,0,o),
(176,14,o),
(188,35,cs)
);
},
{
closed = 1;
nodes = (
(907,1365,ls),
(899,1386,o),
(880,1400,o),
(855,1400,cs),
(822,1400,o),
(793,1373,o),
(790,1340,cs),
(789,1331,o),
(791,1323,o),
(794,1316,c),
(1230,35,ls),
(1238,14,o),
(1257,0,o),
(1282,0,cs),
(1315,0,o),
(1344,27,o),
(1347,60,cs),
(1348,69,o),
(1347,77,o),
(1343,84,c)
);
},
{
closed = 1;
nodes = (
(1066,1594,o),
(1103,1628,o),
(1107,1669,cs),
(1111,1710,o),
(1080,1744,o),
(1039,1744,cs),
(998,1744,o),
(961,1710,o),
(957,1669,cs),
(953,1628,o),
(984,1594,o),
(1025,1594,cs)
);
},
{
closed = 1;
nodes = (
(706,1594,o),
(743,1628,o),
(747,1669,cs),
(751,1710,o),
(720,1744,o),
(679,1744,cs),
(638,1744,o),
(601,1710,o),
(597,1669,cs),
(593,1628,o),
(624,1594,o),
(665,1594,cs)
);
}
);
width = 1412;
},
{
anchors = (
{
name = bottom;
pos = (768,0);
},
{
name = ogonek;
pos = (1290,3);
},
{
name = top;
pos = (923,1777);
}
);
layerId = "FF87E3F2-B049-41CB-BF2F-09DB15105515";
shapes = (
{
closed = 1;
nodes = (
(620,522,ls),
(631,542,o),
(639,565,o),
(642,589,cs),
(649,672,o),
(588,739,o),
(505,739,cs),
(446,739,o),
(392,705,o),
(362,655,cs),
(120,217,ls),
(108,197,o),
(100,174,o),
(98,150,cs),
(91,67,o),
(152,0,o),
(235,0,cs),
(294,0,o),
(348,34,o),
(377,84,cs)
);
},
{
closed = 1;
nodes = (
(1039,1316,l),
(1018,1365,o),
(970,1400,o),
(911,1400,cs),
(828,1400,o),
(756,1332,o),
(748,1250,cs),
(746,1226,o),
(750,1203,o),
(757,1183,cs),
(1173,84,l),
(1194,35,o),
(1242,0,o),
(1301,0,cs),
(1384,0,o),
(1457,68,o),
(1464,150,cs),
(1466,174,o),
(1462,197,o),
(1455,217,cs)
);
},
{
closed = 1;
nodes = (
(1161,1534,o),
(1221,1589,o),
(1227,1655,cs),
(1233,1722,o),
(1181,1777,o),
(1115,1777,cs),
(1049,1777,o),
(989,1722,o),
(983,1655,cs),
(977,1589,o),
(1029,1534,o),
(1095,1534,cs)
);
},
{
closed = 1;
nodes = (
(777,1534,o),
(837,1589,o),
(843,1655,cs),
(849,1722,o),
(797,1777,o),
(731,1777,cs),
(665,1777,o),
(605,1722,o),
(599,1655,cs),
(593,1589,o),
(645,1534,o),
(711,1534,cs)
);
}
);
width = 1536;
}
);
unicode = (196,228);
},
{
color = 5;
glyphname = Adotbelow;
kernLeft = A;
kernRight = A;
lastChange = "2022-06-05 20:10:17 +0000";
layers = (
{
anchors = (
{
name = bottom;
pos = (676,0);
},
{
name = ogonek;
pos = (1267,0);
},
{
name = top;
pos = (798,1400);
}
);
layerId = m01;
shapes = (
{
closed = 1;
nodes = (
(449,681,l),
(451,684,o),
(451,687,o),
(451,690,cs),
(453,704,o),
(443,715,o),
(429,715,cs),
(419,715,o),
(409,709,o),
(404,701,cs),
(65,34,l),
(63,31,o),
(62,28,o),
(62,25,cs),
(61,11,o),
(71,0,o),
(85,0,cs),
(95,0,o),
(105,6,o),
(109,14,cs)
);
},
{
closed = 1;
nodes = (
(832,1386,ls),
(829,1394,o),
(820,1400,o),
(810,1400,cs),
(796,1400,o),
(785,1389,o),
(783,1375,cs),
(783,1372,o),
(784,1368,o),
(788,1353,cs),
(1245,14,ls),
(1249,6,o),
(1257,0,o),
(1267,0,cs),
(1281,0,o),
(1293,11,o),
(1294,25,cs),
(1294,28,o),
(1294,32,o),
(1289,47,cs)
);
},
{
closed = 1;
nodes = (
(674,-206,o),
(689,-192,o),
(691,-176,cs),
(692,-160,o),
(679,-146,o),
(663,-146,cs),
(647,-146,o),
(632,-160,o),
(631,-176,cs),
(629,-192,o),
(642,-206,o),
(658,-206,cs)
);
}
);
width = 1352;
},
{
anchors = (
{
name = bottom;
pos = (706,0);
},
{
name = ogonek;
pos = (1283,-1);
},
{
name = top;
pos = (828,1400);
}
);
layerId = "19FA402B-9607-46D9-AAD6-815AECBA5B6B";
shapes = (
{
closed = 1;
nodes = (
(495,637,ls),
(498,644,o),
(501,652,o),
(502,661,cs),
(505,694,o),
(480,721,o),
(447,721,cs),
(423,721,o),
(401,707,o),
(389,686,cs),
(82,84,ls),
(79,77,o),
(76,69,o),
(75,60,cs),
(72,27,o),
(97,0,o),
(130,0,cs),
(154,0,o),
(176,14,o),
(188,35,cs)
);
},
{
closed = 1;
nodes = (
(907,1365,ls),
(899,1386,o),
(880,1400,o),
(855,1400,cs),
(822,1400,o),
(793,1373,o),
(790,1340,cs),
(789,1331,o),
(791,1323,o),
(794,1316,c),
(1230,35,ls),
(1238,14,o),
(1257,0,o),
(1282,0,cs),
(1315,0,o),
(1344,27,o),
(1347,60,cs),
(1348,69,o),
(1347,77,o),
(1343,84,c)
);
},
{
closed = 1;
nodes = (
(721,-296,o),
(758,-262,o),
(762,-221,cs),
(765,-180,o),
(734,-146,o),
(693,-146,cs),
(652,-146,o),
(615,-180,o),
(612,-221,cs),
(608,-262,o),
(639,-296,o),
(680,-296,cs)
);
}
);
width = 1412;
},
{
anchors = (
{
name = bottom;
pos = (768,0);
},
{
name = ogonek;
pos = (1290,3);
},
{
name = top;
pos = (890,1400);
}
);
layerId = "FF87E3F2-B049-41CB-BF2F-09DB15105515";
shapes = (
{
closed = 1;
nodes = (
(620,522,ls),
(631,542,o),
(639,565,o),
(642,589,cs),
(649,672,o),
(588,739,o),
(505,739,cs),
(446,739,o),
(392,705,o),
(362,655,cs),
(120,217,ls),
(108,197,o),
(100,174,o),
(98,150,cs),
(91,67,o),
(152,0,o),
(235,0,cs),
(294,0,o),
(348,34,o),
(377,84,cs)
);
},
{
closed = 1;
nodes = (
(1039,1316,l),
(1018,1365,o),
(970,1400,o),
(911,1400,cs),
(828,1400,o),
(756,1332,o),
(748,1250,cs),
(746,1226,o),
(750,1203,o),
(757,1183,cs),
(1173,84,l),
(1194,35,o),
(1242,0,o),
(1301,0,cs),
(1384,0,o),
(1457,68,o),
(1464,150,cs),
(1466,174,o),
(1462,197,o),
(1455,217,cs)
);
},
{
closed = 1;
nodes = (
(806,-334,o),
(866,-279,o),
(871,-213,cs),
(877,-146,o),
(826,-91,o),
(760,-91,cs),
(694,-91,o),
(633,-146,o),
(627,-213,cs),
(622,-279,o),
(674,-334,o),
(740,-334,cs)
);
}
);
width = 1536;
}
);
unicode = (7840,7841);
},
{
color = 5;
glyphname = Agrave;
kernLeft = A;
kernRight = A;
lastChange = "2022-06-05 20:10:17 +0000";
layers = (
{
anchors = (
{
name = bottom;
pos = (676,0);
},
{
name = ogonek;
pos = (1267,0);
},
{
name = top;
pos = (837,1839);
}
);
layerId = m01;
shapes = (
{
closed = 1;
nodes = (
(449,681,l),
(451,684,o),
(451,687,o),
(451,690,cs),
(453,704,o),
(443,715,o),
(429,715,cs),
(419,715,o),
(409,709,o),
(404,701,cs),
(65,34,l),
(63,31,o),
(62,28,o),
(62,25,cs),
(61,11,o),
(71,0,o),
(85,0,cs),
(95,0,o),
(105,6,o),
(109,14,cs)
);
},
{
closed = 1;
nodes = (
(832,1386,ls),
(829,1394,o),
(820,1400,o),
(810,1400,cs),
(796,1400,o),
(785,1389,o),
(783,1375,cs),
(783,1372,o),
(784,1368,o),
(788,1353,cs),
(1245,14,ls),
(1249,6,o),
(1257,0,o),
(1267,0,cs),
(1281,0,o),
(1293,11,o),
(1294,25,cs),
(1294,28,o),
(1294,32,o),
(1289,47,cs)
);
},
{
closed = 1;
nodes = (
(787,1572,ls),
(790,1569,o),
(794,1568,o),
(799,1568,cs),
(811,1568,o),
(821,1577,o),
(822,1589,cs),
(823,1595,o),
(820,1601,o),
(815,1605,cs),
(541,1835,ls),
(537,1838,o),
(533,1839,o),
(528,1839,cs),
(516,1839,o),
(506,1830,o),
(505,1818,cs),
(505,1812,o),
(507,1806,o),
(512,1802,cs)
);
}
);
width = 1352;
},
{
anchors = (
{
name = bottom;
pos = (706,0);
},
{
name = ogonek;
pos = (1283,-1);
},
{
name = top;
pos = (866,1830);
}
);
layerId = "19FA402B-9607-46D9-AAD6-815AECBA5B6B";
shapes = (
{
closed = 1;
nodes = (
(495,637,ls),
(498,644,o),
(501,652,o),
(502,661,cs),
(505,694,o),
(480,721,o),
(447,721,cs),
(423,721,o),
(401,707,o),
(389,686,cs),
(82,84,ls),
(79,77,o),
(76,69,o),
(75,60,cs),
(72,27,o),
(97,0,o),
(130,0,cs),
(154,0,o),
(176,14,o),
(188,35,cs)
);
},
{
closed = 1;
nodes = (
(907,1365,ls),
(899,1386,o),
(880,1400,o),
(855,1400,cs),
(822,1400,o),
(793,1373,o),
(790,1340,cs),
(789,1331,o),
(791,1323,o),
(794,1316,c),
(1230,35,ls),
(1238,14,o),
(1257,0,o),
(1282,0,cs),
(1315,0,o),
(1344,27,o),
(1347,60,cs),
(1348,69,o),
(1347,77,o),
(1343,84,c)
);
},
{
closed = 1;
nodes = (
(813,1562,ls),
(820,1556,o),
(830,1553,o),
(841,1553,cs),
(869,1553,o),
(893,1575,o),
(895,1603,cs),
(897,1620,o),
(890,1634,o),
(878,1643,cs),
(609,1845,ls),
(602,1851,o),
(592,1854,o),
(581,1854,cs),
(553,1854,o),
(529,1832,o),
(527,1804,cs),
(525,1787,o),
(532,1773,o),
(544,1764,cs)
);
}
);
width = 1412;
},
{
anchors = (
{
name = bottom;
pos = (768,0);
},
{
name = ogonek;
pos = (1290,3);
},
{
name = top;
pos = (933,1890);
}
);
layerId = "FF87E3F2-B049-41CB-BF2F-09DB15105515";
shapes = (
{
closed = 1;
nodes = (
(620,522,ls),
(631,542,o),
(639,565,o),
(642,589,cs),
(649,672,o),
(588,739,o),
(505,739,cs),
(446,739,o),
(392,705,o),
(362,655,cs),
(120,217,ls),
(108,197,o),
(100,174,o),
(98,150,cs),
(91,67,o),
(152,0,o),
(235,0,cs),
(294,0,o),
(348,34,o),
(377,84,cs)
);
},
{
closed = 1;
nodes = (
(1039,1316,l),
(1018,1365,o),
(970,1400,o),
(911,1400,cs),
(828,1400,o),
(756,1332,o),
(748,1250,cs),
(746,1226,o),
(750,1203,o),
(757,1183,cs),
(1173,84,l),
(1194,35,o),
(1242,0,o),
(1301,0,cs),
(1384,0,o),
(1457,68,o),
(1464,150,cs),
(1466,174,o),
(1462,197,o),
(1455,217,cs)
);
},
{
closed = 1;
nodes = (
(808,1544,ls),
(823,1533,o),
(842,1527,o),
(863,1527,cs),
(918,1527,o),
(967,1572,o),
(971,1627,cs),
(974,1661,o),
(960,1691,o),
(936,1709,cs),
(718,1863,ls),
(703,1874,o),
(684,1880,o),
(663,1880,cs),
(608,1880,o),
(560,1835,o),
(555,1780,cs),
(552,1746,o),
(566,1716,o),
(591,1698,cs)
);
}
);
width = 1536;
}
);
unicode = (192,224);
},
{
color = 5;
glyphname = Ahookabove;
kernLeft = A;
kernRight = A;
lastChange = "2022-06-05 20:10:17 +0000";
layers = (
{
anchors = (
{
name = bottom;
pos = (676,0);
},
{
name = ogonek;
pos = (1267,0);
},
{
name = top;
pos = (838,1853);
}
);
layerId = m01;
shapes = (
{
closed = 1;
nodes = (
(449,681,l),
(451,684,o),
(451,687,o),
(451,690,cs),
(453,704,o),
(443,715,o),
(429,715,cs),
(419,715,o),
(409,709,o),
(404,701,cs),
(65,34,l),
(63,31,o),
(62,28,o),
(62,25,cs),
(61,11,o),
(71,0,o),
(85,0,cs),
(95,0,o),
(105,6,o),
(109,14,cs)
);
},
{
closed = 1;
nodes = (
(832,1386,ls),
(829,1394,o),
(820,1400,o),
(810,1400,cs),
(796,1400,o),
(785,1389,o),
(783,1375,cs),
(783,1372,o),
(784,1368,o),
(788,1353,cs),
(1245,14,ls),
(1249,6,o),
(1257,0,o),
(1267,0,cs),
(1281,0,o),
(1293,11,o),
(1294,25,cs),
(1294,28,o),
(1294,32,o),
(1289,47,cs)
);
},
{
closed = 1;
nodes = (
(835,1811,o),
(883,1759,o),
(877,1695,cs),
(872,1631,o),
(815,1579,o),
(751,1579,cs),
(739,1579,o),
(729,1570,o),
(728,1558,cs),
(727,1546,o),
(735,1537,o),
(747,1537,cs),
(834,1537,o),
(912,1608,o),
(919,1695,cs),
(927,1782,o),
(862,1853,o),
(775,1853,cs),
(763,1853,o),
(753,1844,o),
(752,1832,cs),
(751,1820,o),
(759,1811,o),
(771,1811,cs)
);
}
);
width = 1352;
},
{
anchors = (
{
name = bottom;
pos = (706,0);
},
{
name = ogonek;
pos = (1283,-1);
},
{
name = top;
pos = (870,1880);
}
);
layerId = "19FA402B-9607-46D9-AAD6-815AECBA5B6B";
shapes = (
{
closed = 1;
nodes = (
(495,637,ls),
(498,644,o),
(501,652,o),
(502,661,cs),
(505,694,o),
(480,721,o),
(447,721,cs),
(423,721,o),
(401,707,o),
(389,686,cs),
(82,84,ls),
(79,77,o),
(76,69,o),
(75,60,cs),
(72,27,o),
(97,0,o),
(130,0,cs),
(154,0,o),
(176,14,o),
(188,35,cs)
);
},
{
closed = 1;
nodes = (
(907,1365,ls),
(899,1386,o),
(880,1400,o),
(855,1400,cs),
(822,1400,o),
(793,1373,o),
(790,1340,cs),
(789,1331,o),
(791,1323,o),
(794,1316,c),
(1230,35,ls),
(1238,14,o),
(1257,0,o),
(1282,0,cs),
(1315,0,o),
(1344,27,o),
(1347,60,cs),
(1348,69,o),
(1347,77,o),
(1343,84,c)
);
},
{
closed = 1;
nodes = (
(856,1780,o),
(890,1742,o),
(886,1695,cs),
(882,1648,o),
(841,1610,o),
(794,1610,cs),
(766,1610,o),
(742,1588,o),
(739,1560,cs),
(737,1532,o),
(757,1510,o),
(785,1510,cs),
(887,1510,o),
(977,1593,o),
(986,1695,cs),
(995,1797,o),
(919,1880,o),
(817,1880,cs),
(789,1880,o),
(766,1858,o),
(763,1830,cs),
(761,1802,o),
(781,1780,o),
(809,1780,cs)
);
}
);
width = 1412;
},
{
anchors = (
{
name = bottom;
pos = (768,0);
},
{
name = ogonek;
pos = (1290,3);
},
{
name = top;
pos = (937,1931);
}
);
layerId = "FF87E3F2-B049-41CB-BF2F-09DB15105515";
shapes = (
{
closed = 1;
nodes = (
(620,522,ls),
(631,542,o),
(639,565,o),
(642,589,cs),
(649,672,o),
(588,739,o),
(505,739,cs),
(446,739,o),
(392,705,o),
(362,655,cs),
(120,217,ls),
(108,197,o),
(100,174,o),
(98,150,cs),
(91,67,o),
(152,0,o),
(235,0,cs),
(294,0,o),
(348,34,o),
(377,84,cs)
);
},
{
closed = 1;
nodes = (
(1039,1316,l),
(1018,1365,o),
(970,1400,o),
(911,1400,cs),
(828,1400,o),
(756,1332,o),
(748,1250,cs),
(746,1226,o),
(750,1203,o),
(757,1183,cs),
(1173,84,l),
(1194,35,o),
(1242,0,o),
(1301,0,cs),
(1384,0,o),
(1457,68,o),
(1464,150,cs),
(1466,174,o),
(1462,197,o),
(1455,217,cs)
);
},
{
closed = 1;
nodes = (
(909,1791,o),
(935,1762,o),
(932,1725,cs),
(929,1688,o),
(897,1659,o),
(860,1659,cs),
(821,1659,o),
(787,1628,o),
(784,1589,cs),
(781,1550,o),
(809,1519,o),
(848,1519,cs),
(962,1519,o),
(1062,1611,o),
(1072,1725,cs),
(1082,1839,o),
(998,1931,o),
(884,1931,cs),
(845,1931,o),
(811,1900,o),
(808,1861,cs),
(804,1822,o),
(833,1791,o),
(872,1791,cs)
);
}
);
width = 1536;
}
);
unicode = (7842,7843);
},
{
color = 5;
glyphname = Amacron;
kernLeft = A;
kernRight = A;
lastChange = "2022-06-05 20:10:17 +0000";
layers = (
{
anchors = (
{
name = bottom;
pos = (676,0);
},
{
name = ogonek;
pos = (1267,0);
},
{
name = top;
pos = (824,1693);
}
);
layerId = m01;
shapes = (
{
closed = 1;
nodes = (
(449,681,l),
(451,684,o),
(451,687,o),
(451,690,cs),
(453,704,o),
(443,715,o),
(429,715,cs),
(419,715,o),
(409,709,o),
(404,701,cs),
(65,34,l),
(63,31,o),
(62,28,o),
(62,25,cs),
(61,11,o),
(71,0,o),
(85,0,cs),
(95,0,o),
(105,6,o),
(109,14,cs)
);
},
{
closed = 1;
nodes = (
(832,1386,ls),
(829,1394,o),
(820,1400,o),
(810,1400,cs),
(796,1400,o),
(785,1389,o),
(783,1375,cs),
(783,1372,o),
(784,1368,o),
(788,1353,cs),
(1245,14,ls),
(1249,6,o),
(1257,0,o),
(1267,0,cs),
(1281,0,o),
(1293,11,o),
(1294,25,cs),
(1294,28,o),
(1294,32,o),
(1289,47,cs)
);
},
{
closed = 1;
nodes = (
(1069,1651,ls),
(1081,1651,o),
(1091,1660,o),
(1092,1672,cs),
(1093,1684,o),
(1085,1693,o),
(1073,1693,cs),
(575,1693,ls),
(563,1693,o),
(553,1684,o),
(552,1672,cs),
(551,1660,o),
(559,1651,o),
(571,1651,cs)
);
}
);
width = 1352;
},
{
anchors = (
{
name = bottom;
pos = (706,0);
},
{
name = ogonek;
pos = (1283,-1);
},
{
name = top;
pos = (857,1722);
}
);
layerId = "19FA402B-9607-46D9-AAD6-815AECBA5B6B";
shapes = (
{
closed = 1;
nodes = (
(495,637,ls),
(498,644,o),
(501,652,o),
(502,661,cs),
(505,694,o),
(480,721,o),
(447,721,cs),
(423,721,o),
(401,707,o),
(389,686,cs),
(82,84,ls),
(79,77,o),
(76,69,o),
(75,60,cs),
(72,27,o),
(97,0,o),
(130,0,cs),
(154,0,o),
(176,14,o),
(188,35,cs)
);
},
{
closed = 1;
nodes = (
(907,1365,ls),
(899,1386,o),
(880,1400,o),
(855,1400,cs),
(822,1400,o),
(793,1373,o),
(790,1340,cs),
(789,1331,o),
(791,1323,o),
(794,1316,c),
(1230,35,ls),
(1238,14,o),
(1257,0,o),
(1282,0,cs),
(1315,0,o),
(1344,27,o),
(1347,60,cs),
(1348,69,o),
(1347,77,o),
(1343,84,c)
);
},
{
closed = 1;
nodes = (
(1071,1622,ls),
(1099,1622,o),
(1123,1644,o),
(1125,1672,cs),
(1128,1700,o),
(1108,1722,o),
(1080,1722,cs),
(634,1722,ls),
(606,1722,o),
(582,1700,o),
(579,1672,cs),
(577,1644,o),
(597,1622,o),
(625,1622,cs)
);
}
);
width = 1412;
},
{
anchors = (
{
name = bottom;
pos = (768,0);
},
{
name = ogonek;
pos = (1290,3);
},
{
name = top;
pos = (923,1772);
}
);
layerId = "FF87E3F2-B049-41CB-BF2F-09DB15105515";
shapes = (
{
closed = 1;
nodes = (
(620,522,ls),
(631,542,o),
(639,565,o),
(642,589,cs),
(649,672,o),
(588,739,o),
(505,739,cs),
(446,739,o),
(392,705,o),
(362,655,cs),
(120,217,ls),
(108,197,o),
(100,174,o),
(98,150,cs),
(91,67,o),
(152,0,o),
(235,0,cs),
(294,0,o),
(348,34,o),
(377,84,cs)
);
},
{
closed = 1;
nodes = (
(1039,1316,l),
(1018,1365,o),
(970,1400,o),
(911,1400,cs),
(828,1400,o),
(756,1332,o),
(748,1250,cs),
(746,1226,o),
(750,1203,o),
(757,1183,cs),
(1173,84,l),
(1194,35,o),
(1242,0,o),
(1301,0,cs),
(1384,0,o),
(1457,68,o),
(1464,150,cs),
(1466,174,o),
(1462,197,o),
(1455,217,cs)
);
},
{
closed = 1;
nodes = (
(1125,1572,ls),
(1180,1572,o),
(1228,1617,o),
(1233,1672,cs),
(1238,1727,o),
(1197,1772,o),
(1142,1772,cs),
(704,1772,ls),
(649,1772,o),
(600,1727,o),
(595,1672,cs),
(590,1617,o),
(632,1572,o),
(687,1572,cs)
);
}
);
width = 1536;
}
);
unicode = (256,257);
},
{
color = 5;
glyphname = Aogonek;
kernLeft = A;
kernRight = A;
lastChange = "2022-06-05 20:10:17 +0000";
layers = (
{
anchors = (
{
name = bottom;
pos = (676,0);
},
{
name = ogonek;
pos = (1267,0);
},
{
name = top;
pos = (798,1400);
}
);
layerId = m01;
shapes = (
{
closed = 1;
nodes = (
(449,681,l),
(451,684,o),
(451,687,o),
(451,690,cs),
(453,704,o),
(443,715,o),
(429,715,cs),
(419,715,o),
(409,709,o),
(404,701,cs),
(65,34,l),
(63,31,o),
(62,28,o),
(62,25,cs),
(61,11,o),
(71,0,o),
(85,0,cs),
(95,0,o),
(105,6,o),
(109,14,cs)
);
},
{
closed = 1;
nodes = (
(832,1386,ls),
(829,1394,o),
(820,1400,o),
(810,1400,cs),
(796,1400,o),
(785,1389,o),
(783,1375,cs),
(783,1372,o),
(784,1368,o),
(788,1353,cs),
(1245,14,ls),
(1249,6,o),
(1257,0,o),
(1267,0,cs),
(1281,0,o),
(1293,11,o),
(1294,25,cs),
(1294,28,o),
(1294,32,o),
(1289,47,cs)
);
},
{
closed = 1;
nodes = (
(1139,-323,o),
(1147,-317,o),
(1150,-309,c),
(1292,17,ls),
(1299,29,o),
(1291,45,o),
(1276,45,cs),
(1266,45,o),
(1257,39,o),
(1255,31,c),
(1112,-295,ls),
(1106,-307,o),
(1114,-323,o),
(1129,-323,cs)
);
}
);
width = 1352;
},
{
anchors = (
{
name = bottom;
pos = (706,0);
},
{
name = ogonek;
pos = (1283,-1);
},
{
name = top;
pos = (828,1400);
}
);
layerId = "19FA402B-9607-46D9-AAD6-815AECBA5B6B";
shapes = (
{
closed = 1;
nodes = (
(495,637,ls),
(498,644,o),
(501,652,o),
(502,661,cs),
(505,694,o),
(480,721,o),
(447,721,cs),
(423,721,o),
(401,707,o),
(389,686,cs),
(82,84,ls),
(79,77,o),
(76,69,o),
(75,60,cs),
(72,27,o),
(97,0,o),
(130,0,cs),
(154,0,o),
(176,14,o),
(188,35,cs)
);
},
{
closed = 1;
nodes = (
(907,1365,ls),
(899,1386,o),
(880,1400,o),
(855,1400,cs),
(822,1400,o),
(793,1373,o),
(790,1340,cs),
(789,1331,o),
(791,1323,o),
(794,1316,c),
(1230,35,ls),
(1238,14,o),
(1257,0,o),
(1282,0,cs),
(1315,0,o),
(1344,27,o),
(1347,60,cs),
(1348,69,o),
(1347,77,o),
(1343,84,c)
);
},
{
closed = 1;
nodes = (
(1153,-303,o),
(1176,-289,o),
(1188,-268,cs),
(1340,35,ls),
(1357,67,o),
(1343,119,o),
(1292,119,cs),
(1268,119,o),
(1246,105,o),
(1234,84,cs),
(1082,-219,ls),
(1065,-251,o),
(1078,-303,o),
(1129,-303,cs)
);
}
);
width = 1412;
},
{
anchors = (
{
name = bottom;
pos = (768,0);
},
{
name = ogonek;
pos = (1290,3);
},
{
name = top;
pos = (890,1400);
}
);
layerId = "FF87E3F2-B049-41CB-BF2F-09DB15105515";
shapes = (
{
closed = 1;
nodes = (
(620,522,ls),
(631,542,o),
(639,565,o),
(642,589,cs),
(649,672,o),
(588,739,o),
(505,739,cs),
(446,739,o),
(392,705,o),
(362,655,cs),
(120,217,ls),
(108,197,o),
(100,174,o),
(98,150,cs),
(91,67,o),
(152,0,o),
(235,0,cs),
(294,0,o),
(348,34,o),
(377,84,cs)
);
},
{
closed = 1;
nodes = (
(1039,1316,l),
(1018,1365,o),
(970,1400,o),
(911,1400,cs),
(828,1400,o),
(756,1332,o),
(748,1250,cs),
(746,1226,o),
(750,1203,o),
(757,1183,cs),
(1173,84,l),
(1194,35,o),
(1242,0,o),
(1301,0,cs),
(1384,0,o),
(1457,68,o),
(1464,150,cs),
(1466,174,o),
(1462,197,o),
(1455,217,cs)
);
},
{
closed = 1;
nodes = (
(1223,-306,o),
(1260,-281,o),
(1279,-246,cs),
(1452,101,ls),
(1482,159,o),
(1452,241,o),
(1372,241,cs),
(1331,241,o),
(1294,216,o),
(1275,181,cs),
(1102,-166,ls),
(1072,-224,o),
(1102,-306,o),
(1182,-306,cs)
);
}
);
width = 1536;
}
);
unicode = (260,261);
},
{
color = 5;
glyphname = Aring;
kernLeft = A;
kernRight = A;
lastChange = "2022-06-05 20:10:17 +0000";
layers = (
{
anchors = (
{
name = bottom;
pos = (676,0);
},
{
name = ogonek;
pos = (1267,0);
},
{
name = top;
pos = (838,1853);
}
);
layerId = m01;
shapes = (
{
closed = 1;
nodes = (
(449,681,l),
(451,684,o),
(451,687,o),
(451,690,cs),
(453,704,o),
(443,715,o),
(429,715,cs),
(419,715,o),
(409,709,o),
(404,701,cs),
(65,34,l),
(63,31,o),
(62,28,o),
(62,25,cs),
(61,11,o),
(71,0,o),
(85,0,cs),
(95,0,o),
(105,6,o),
(109,14,cs)
);
},
{
closed = 1;
nodes = (
(832,1386,ls),
(829,1394,o),
(820,1400,o),
(810,1400,cs),
(796,1400,o),
(785,1389,o),
(783,1375,cs),
(783,1372,o),
(784,1368,o),
(788,1353,cs),
(1245,14,ls),
(1249,6,o),
(1257,0,o),
(1267,0,cs),
(1281,0,o),
(1293,11,o),
(1294,25,cs),
(1294,28,o),
(1294,32,o),
(1289,47,cs)
);
},
{
closed = 1;
nodes = (
(750,1579,o),
(703,1631,o),
(708,1695,cs),
(714,1759,o),
(770,1811,o),
(834,1811,cs),
(898,1811,o),
(946,1759,o),
(940,1695,cs),
(935,1631,o),
(878,1579,o),
(814,1579,cs)
);
},
{
closed = 1;
nodes = (
(897,1537,o),
(975,1608,o),
(982,1695,cs),
(990,1782,o),
(925,1853,o),
(838,1853,cs),
(751,1853,o),
(674,1782,o),
(666,1695,cs),
(659,1608,o),
(723,1537,o),
(810,1537,cs)
);
}
);
width = 1352;
},
{
anchors = (
{
name = bottom;
pos = (706,0);
},
{
name = ogonek;
pos = (1283,-1);
},
{
name = top;
pos = (870,1880);
}
);
layerId = "19FA402B-9607-46D9-AAD6-815AECBA5B6B";
shapes = (
{
closed = 1;
nodes = (
(495,637,ls),
(498,644,o),
(501,652,o),
(502,661,cs),
(505,694,o),
(480,721,o),
(447,721,cs),
(423,721,o),
(401,707,o),
(389,686,cs),
(82,84,ls),
(79,77,o),
(76,69,o),
(75,60,cs),
(72,27,o),
(97,0,o),
(130,0,cs),
(154,0,o),
(176,14,o),
(188,35,cs)
);
},
{
closed = 1;
nodes = (
(907,1365,ls),
(899,1386,o),
(880,1400,o),
(855,1400,cs),
(822,1400,o),
(793,1373,o),
(790,1340,cs),
(789,1331,o),
(791,1323,o),
(794,1316,c),
(1230,35,ls),
(1238,14,o),
(1257,0,o),
(1282,0,cs),
(1315,0,o),
(1344,27,o),
(1347,60,cs),
(1348,69,o),
(1347,77,o),
(1343,84,c)
);
},
{
closed = 1;
nodes = (
(800,1610,o),
(765,1648,o),
(769,1695,cs),
(773,1742,o),
(815,1780,o),
(862,1780,cs),
(909,1780,o),
(943,1742,o),
(939,1695,cs),
(935,1648,o),
(894,1610,o),
(847,1610,cs)
);
},
{
closed = 1;
nodes = (
(940,1510,o),
(1030,1593,o),
(1039,1695,cs),
(1048,1797,o),
(972,1880,o),
(870,1880,cs),
(768,1880,o),
(678,1797,o),
(669,1695,cs),
(660,1593,o),
(736,1510,o),
(838,1510,cs)
);
}
);
width = 1412;
},
{
anchors = (
{
name = bottom;
pos = (768,0);
},
{
name = ogonek;
pos = (1290,3);
},
{
name = top;
pos = (937,1931);
}
);
layerId = "FF87E3F2-B049-41CB-BF2F-09DB15105515";
shapes = (
{
closed = 1;
nodes = (
(620,522,ls),
(631,542,o),
(639,565,o),
(642,589,cs),
(649,672,o),
(588,739,o),
(505,739,cs),
(446,739,o),
(392,705,o),
(362,655,cs),
(120,217,ls),
(108,197,o),
(100,174,o),
(98,150,cs),
(91,67,o),
(152,0,o),
(235,0,cs),
(294,0,o),
(348,34,o),
(377,84,cs)
);
},
{
closed = 1;
nodes = (
(1039,1316,l),
(1018,1365,o),
(970,1400,o),
(911,1400,cs),
(828,1400,o),
(756,1332,o),
(748,1250,cs),
(746,1226,o),
(750,1203,o),
(757,1183,cs),
(1173,84,l),
(1194,35,o),
(1242,0,o),
(1301,0,cs),
(1384,0,o),
(1457,68,o),
(1464,150,cs),
(1466,174,o),
(1462,197,o),
(1455,217,cs)
);
},
{
closed = 1;
nodes = (
(876,1659,o),
(850,1688,o),
(853,1725,cs),
(856,1762,o),
(888,1791,o),
(925,1791,cs),
(962,1791,o),
(988,1762,o),
(985,1725,cs),
(982,1688,o),
(950,1659,o),
(913,1659,cs)
);
},
{
closed = 1;
nodes = (
(1015,1519,o),
(1115,1611,o),
(1125,1725,cs),
(1135,1839,o),
(1051,1931,o),
(937,1931,cs),
(823,1931,o),
(723,1839,o),
(713,1725,cs),
(703,1611,o),
(787,1519,o),
(901,1519,cs)
);
}
);
width = 1536;
}
);
unicode = (197,229);
},
{
color = 5;
glyphname = Atilde;
kernLeft = A;
kernRight = A;
lastChange = "2022-06-05 20:10:17 +0000";
layers = (
{
anchors = (
{
name = bottom;
pos = (676,0);
},
{
name = ogonek;
pos = (1267,0);
},
{
name = top;
pos = (829,1746);
}
);
layerId = m01;
shapes = (
{
closed = 1;
nodes = (
(449,681,l),
(451,684,o),
(451,687,o),
(451,690,cs),
(453,704,o),
(443,715,o),
(429,715,cs),
(419,715,o),
(409,709,o),
(404,701,cs),
(65,34,l),
(63,31,o),
(62,28,o),
(62,25,cs),
(61,11,o),
(71,0,o),
(85,0,cs),
(95,0,o),
(105,6,o),
(109,14,cs)
);
},
{
closed = 1;
nodes = (
(832,1386,ls),
(829,1394,o),
(820,1400,o),
(810,1400,cs),
(796,1400,o),
(785,1389,o),
(783,1375,cs),
(783,1372,o),
(784,1368,o),
(788,1353,cs),
(1245,14,ls),
(1249,6,o),
(1257,0,o),
(1267,0,cs),
(1281,0,o),
(1293,11,o),
(1294,25,cs),
(1294,28,o),
(1294,32,o),
(1289,47,cs)
);
},
{
closed = 1;
nodes = (
(1027,1642,o),
(935,1615,o),
(836,1693,cs),
(719,1785,o),
(594,1749,o),
(537,1651,cs),
(536,1648,o),
(535,1645,o),
(535,1642,cs),
(534,1630,o),
(542,1621,o),
(554,1621,cs),
(562,1621,o),
(569,1626,o),
(574,1633,cs),
(619,1710,o),
(710,1737,o),
(809,1659,cs),
(926,1567,o),
(1051,1603,o),
(1108,1701,cs),
(1109,1704,o),
(1110,1707,o),
(1111,1710,cs),
(1112,1722,o),
(1103,1731,o),
(1091,1731,cs),
(1083,1731,o),
(1076,1726,o),
(1071,1719,cs)
);
}
);
width = 1352;
},
{
anchors = (
{
name = bottom;
pos = (706,0);
},
{
name = ogonek;
pos = (1283,-1);
},
{
name = top;
pos = (858,1740);
}
);
layerId = "19FA402B-9607-46D9-AAD6-815AECBA5B6B";
shapes = (
{
closed = 1;
nodes = (
(495,637,ls),
(498,644,o),
(501,652,o),
(502,661,cs),
(505,694,o),
(480,721,o),
(447,721,cs),
(423,721,o),
(401,707,o),
(389,686,cs),
(82,84,ls),
(79,77,o),
(76,69,o),
(75,60,cs),
(72,27,o),
(97,0,o),
(130,0,cs),
(154,0,o),
(176,14,o),
(188,35,cs)
);
},
{
closed = 1;
nodes = (
(907,1365,ls),
(899,1386,o),
(880,1400,o),
(855,1400,cs),
(822,1400,o),
(793,1373,o),
(790,1340,cs),
(789,1331,o),
(791,1323,o),
(794,1316,c),
(1230,35,ls),
(1238,14,o),
(1257,0,o),
(1282,0,cs),
(1315,0,o),
(1344,27,o),
(1347,60,cs),
(1348,69,o),
(1347,77,o),
(1343,84,c)
);
},
{
closed = 1;
nodes = (
(1007,1664,o),
(960,1649,o),
(888,1714,cs),
(770,1822,o),
(635,1776,o),
(577,1661,cs),
(574,1655,o),
(572,1649,o),
(572,1642,cs),
(569,1614,o),
(589,1592,o),
(617,1592,cs),
(638,1592,o),
(657,1605,o),
(666,1623,cs),
(699,1688,o),
(745,1703,o),
(817,1638,cs),
(935,1530,o),
(1070,1576,o),
(1128,1691,cs),
(1131,1697,o),
(1133,1703,o),
(1134,1710,cs),
(1136,1738,o),
(1116,1760,o),
(1088,1760,cs),
(1067,1760,o),
(1048,1747,o),
(1039,1729,cs)
);
}
);
width = 1412;
},
{
anchors = (
{
name = bottom;
pos = (768,0);
},
{
name = ogonek;
pos = (1290,3);
},
{
name = top;
pos = (929,1845);
}
);
layerId = "FF87E3F2-B049-41CB-BF2F-09DB15105515";
shapes = (
{
closed = 1;
nodes = (
(620,522,ls),
(631,542,o),
(639,565,o),
(642,589,cs),
(649,672,o),
(588,739,o),
(505,739,cs),
(446,739,o),
(392,705,o),
(362,655,cs),
(120,217,ls),
(108,197,o),
(100,174,o),
(98,150,cs),
(91,67,o),
(152,0,o),
(235,0,cs),
(294,0,o),
(348,34,o),
(377,84,cs)
);
},
{
closed = 1;
nodes = (
(1039,1316,l),
(1018,1365,o),
(970,1400,o),
(911,1400,cs),
(828,1400,o),
(756,1332,o),
(748,1250,cs),
(746,1226,o),
(750,1203,o),
(757,1183,cs),
(1173,84,l),
(1194,35,o),
(1242,0,o),
(1301,0,cs),
(1384,0,o),
(1457,68,o),
(1464,150,cs),
(1466,174,o),
(1462,197,o),
(1455,217,cs)
);
},
{
closed = 1;
nodes = (
(1072,1722,o),
(1030,1728,o),
(991,1767,cs),
(874,1885,o),
(640,1877,o),
(559,1688,cs),
(554,1678,o),
(551,1666,o),
(550,1655,cs),
(545,1600,o),
(586,1555,o),
(641,1555,cs),
(685,1555,o),
(724,1583,o),
(741,1622,cs),
(762,1669,o),
(799,1665,o),
(842,1621,cs),
(958,1503,o),
(1195,1517,o),
(1274,1700,cs),
(1279,1710,o),
(1282,1722,o),
(1283,1733,cs),
(1287,1788,o),
(1246,1833,o),
(1191,1833,cs),
(1147,1833,o),
(1108,1805,o),
(1092,1766,cs)
);
}
);
width = 1536;
}
);
unicode = (195,227);
},
{
color = 5;
glyphname = AE;
kernLeft = A;
kernRight = E;
lastChange = "2022-06-05 20:10:17 +0000";
layers = (
{
layerId = m01;
shapes = (
{
closed = 1;
nodes = (
(826,1364,ls),
(828,1367,o),
(829,1371,o),
(829,1374,cs),
(830,1388,o),
(820,1399,o),
(806,1399,cs),
(796,1399,o),
(787,1394,o),
(782,1385,cs),
(65,35,ls),
(64,32,o),
(62,28,o),
(62,25,cs),
(61,11,o),
(71,0,o),
(85,0,cs),
(95,0,o),
(104,5,o),
(109,14,cs)
);
},
{
closed = 1;
nodes = (
(874,50,ls),
(860,50,o),
(848,39,o),
(847,25,cs),
(846,11,o),
(856,0,o),
(870,0,cs),
(1543,0,ls),
(1556,0,o),
(1569,11,o),
(1570,25,cs),
(1571,39,o),
(1560,50,o),
(1547,50,cs)
);
},
{
closed = 1;
nodes = (
(959,736,ls),
(961,749,o),
(951,761,o),
(937,761,cs),
(923,761,o),
(911,749,o),
(909,736,cs),
(847,28,l),
(897,28,l)
);
},
{
closed = 1;
nodes = (
(1602,675,ls),
(1615,675,o),
(1628,686,o),
(1629,700,cs),
(1630,714,o),
(1619,725,o),
(1606,725,cs),
(1229,725,ls),
(1215,725,o),
(1203,714,o),
(1202,700,cs),
(1201,686,o),
(1211,675,o),
(1225,675,cs)
);
},
{
closed = 1;
nodes = (
(1661,1350,ls),
(1674,1350,o),
(1687,1361,o),
(1688,1375,cs),
(1690,1389,o),
(1678,1400,o),
(1665,1400,cs),
(806,1400,ls),
(792,1400,o),
(781,1389,o),
(779,1375,cs),
(778,1361,o),
(788,1350,o),
(802,1350,cs)
);
}
);
width = 1638;
},
{
layerId = "19FA402B-9607-46D9-AAD6-815AECBA5B6B";
shapes = (
{
closed = 1;
nodes = (
(864,1311,ls),
(868,1319,o),
(871,1328,o),
(872,1337,cs),
(875,1370,o),
(850,1397,o),
(817,1397,cs),
(793,1397,o),
(771,1383,o),
(760,1362,cs),
(84,89,ls),
(79,81,o),
(76,72,o),
(76,63,cs),
(73,30,o),
(97,3,o),
(130,3,cs),
(154,3,o),
(176,17,o),
(187,38,cs)
);
},
{
closed = 1;
nodes = (
(907,120,ls),
(874,120,o),
(845,93,o),
(842,60,cs),
(839,27,o),
(864,0,o),
(897,0,cs),
(1540,0,ls),
(1573,0,o),
(1602,27,o),
(1605,60,cs),
(1608,93,o),
(1583,120,o),
(1550,120,cs)
);
},
{
closed = 1;
nodes = (
(1019,706,ls),
(1022,739,o),
(997,766,o),
(964,766,cs),
(931,766,o),
(902,739,o),
(899,706,cs),
(842,60,l),
(962,60,l)
);
},
{
closed = 1;
nodes = (
(1595,640,ls),
(1628,640,o),
(1657,667,o),
(1660,700,cs),
(1663,733,o),
(1638,760,o),
(1605,760,cs),
(1290,760,ls),
(1257,760,o),
(1228,733,o),
(1225,700,cs),
(1222,667,o),
(1247,640,o),
(1280,640,cs)
);
},
{
closed = 1;
nodes = (
(1652,1280,ls),
(1685,1280,o),
(1714,1307,o),
(1717,1340,cs),
(1720,1373,o),
(1695,1400,o),
(1662,1400,cs),
(819,1400,ls),
(786,1400,o),
(757,1373,o),
(754,1340,cs),
(751,1307,o),
(776,1280,o),
(809,1280,cs)
);
}
);
width = 1680;
},
{
layerId = "FF87E3F2-B049-41CB-BF2F-09DB15105515";
shapes = (
{
closed = 1;
nodes = (
(906,1193,l),
(916,1210,o),
(922,1230,o),
(923,1250,cs),
(931,1333,o),
(869,1400,o),
(786,1400,cs),
(724,1400,o),
(667,1362,o),
(639,1308,cs),
(115,207,l),
(106,190,o),
(100,170,o),
(98,150,cs),
(91,67,o),
(152,0,o),
(235,0,cs),
(297,0,o),
(354,38,o),
(382,92,cs)
);
},
{
closed = 1;
nodes = (
(1029,300,ls),
(946,300,o),
(873,233,o),
(866,150,cs),
(859,67,o),
(920,0,o),
(1003,0,cs),
(1686,0,ls),
(1769,0,o),
(1842,67,o),
(1849,150,cs),
(1856,233,o),
(1795,300,o),
(1712,300,cs)
);
},
{
closed = 1;
nodes = (
(1215,705,ls),
(1222,788,o),
(1161,855,o),
(1078,855,cs),
(995,855,o),
(922,788,o),
(915,705,cs),
(865,140,l),
(1165,140,l)
);
},
{
closed = 1;
nodes = (
(1734,550,ls),
(1817,550,o),
(1890,617,o),
(1897,700,cs),
(1905,783,o),
(1843,850,o),
(1760,850,cs),
(1495,850,ls),
(1412,850,o),
(1340,783,o),
(1332,700,cs),
(1325,617,o),
(1386,550,o),
(1469,550,cs)
);
},
{
closed = 1;
nodes = (
(1782,1100,ls),
(1865,1100,o),
(1938,1167,o),
(1945,1250,cs),
(1953,1333,o),
(1891,1400,o),
(1808,1400,cs),
(785,1400,ls),
(702,1400,o),
(630,1333,o),
(622,1250,cs),
(615,1167,o),
(676,1100,o),
(759,1100,cs)
);
}
);
width = 1938;
}
);
metricLeft = A;
metricRight = E;
unicode = (198,230);
},
{
color = 4;
glyphname = B;
kernLeft = I;
kernRight = B;
lastChange = "2022-06-05 20:10:17 +0000";
layers = (
{
anchors = (
{
name = bottom;
pos = (594,0);
},
{
name = center;
pos = (655,700);
},
{
name = top;
pos = (716,1400);
}
);
layerId = m01;
shapes = (
{
closed = 1;
nodes = (
(221,978,ls),
(222,991,o),
(212,1003,o),
(198,1003,cs),
(184,1003,o),
(172,991,o),
(171,978,cs),
(87,26,ls),
(86,12,o),
(96,1,o),
(110,1,cs),
(124,1,o),
(136,12,o),
(137,26,cs)
);
},
{
closed = 1;
nodes = (
(854,675,ls),
(1026,675,o),
(1151,507,o),
(1137,348,cs),
(1124,190,o),
(971,50,o),
(799,50,cs),
(562,50,ls),
(548,50,o),
(536,39,o),
(535,25,cs),
(534,11,o),
(544,0,o),
(558,0,cs),
(795,0,ls),
(995,0,o),
(1171,162,o),
(1187,348,cs),
(1204,532,o),
(1060,725,o),
(858,725,cs),
(678,725,l),
(674,675,l)
);
},
{
closed = 1;
nodes = (
(754,675,ls),
(954,675,o),
(1130,837,o),
(1148,1038,cs),
(1165,1239,o),
(1016,1400,o),
(817,1400,cs),
(232,1400,ls),
(218,1400,o),
(207,1389,o),
(205,1375,cs),
(204,1361,o),
(214,1350,o),
(228,1350,cs),
(813,1350,ls),
(985,1350,o),
(1113,1211,o),
(1098,1038,cs),
(1083,865,o),
(930,725,o),
(758,725,cs),
(511,725,ls),
(497,725,o),
(485,714,o),
(484,700,cs),
(483,686,o),
(493,675,o),
(507,675,cs)
);
}
);
width = 1200;
},
{
anchors = (
{
name = bottom;
pos = (620,0);
},
{
name = center;
pos = (681,700);
},
{
name = top;
pos = (692,1400);
}
);
layerId = "19FA402B-9607-46D9-AAD6-815AECBA5B6B";
name = Regular;
shapes = (
{
closed = 1;
nodes = (
(303,946,ls),
(306,979,o),
(281,1006,o),
(248,1006,cs),
(215,1006,o),
(186,979,o),
(183,946,cs),
(105,60,ls),
(102,27,o),
(127,0,o),
(160,0,cs),
(193,0,o),
(222,27,o),
(225,60,cs)
);
},
{
closed = 1;
nodes = (
(866,640,ls),
(1010,640,o),
(1116,524,o),
(1103,380,cs),
(1091,236,o),
(964,120,o),
(820,120,cs),
(614,120,ls),
(581,120,o),
(552,93,o),
(549,60,cs),
(546,27,o),
(571,0,o),
(604,0,cs),
(810,0,ls),
(1020,0,o),
(1205,170,o),
(1223,380,cs),
(1242,590,o),
(1086,760,o),
(876,760,cs),
(696,760,l),
(686,640,l)
);
},
{
closed = 1;
nodes = (
(766,640,ls),
(976,640,o),
(1161,810,o),
(1179,1020,cs),
(1198,1230,o),
(1042,1400,o),
(832,1400,cs),
(282,1400,ls),
(249,1400,o),
(220,1373,o),
(217,1340,cs),
(214,1307,o),
(239,1280,o),
(272,1280,cs),
(822,1280,ls),
(966,1280,o),
(1072,1164,o),
(1059,1020,cs),
(1047,876,o),
(920,760,o),
(776,760,cs),
(560,760,ls),
(527,760,o),
(498,733,o),
(495,700,cs),
(492,667,o),
(517,640,o),
(550,640,cs)
);
}
);
width = 1240;
},
{
anchors = (
{
name = bottom;
pos = (630,0);
},
{
name = center;
pos = (691,700);
},
{
name = top;
pos = (752,1400);
}
);
layerId = "FF87E3F2-B049-41CB-BF2F-09DB15105515";
shapes = (
{
closed = 1;
nodes = (
(479,785,ls),
(486,868,o),
(425,935,o),
(342,935,cs),
(259,935,o),
(186,868,o),
(179,785,cs),
(123,150,ls),
(116,67,o),
(177,0,o),
(260,0,cs),
(343,0,o),
(416,67,o),
(423,150,cs)
);
},
{
closed = 1;
nodes = (
(848,551,ls),
(917,551,o),
(968,495,o),
(962,426,cs),
(956,357,o),
(895,300,o),
(826,300,cs),
(750,300,ls),
(667,300,o),
(594,233,o),
(587,150,cs),
(580,67,o),
(641,0,o),
(724,0,cs),
(800,0,ls),
(1035,0,o),
(1242,191,o),
(1262,426,cs),
(1283,661,o),
(1109,851,o),
(874,851,cs),
(743,851,l),
(717,551,l)
);
},
{
closed = 1;
nodes = (
(768,551,ls),
(1002,551,o),
(1209,741,o),
(1229,976,cs),
(1250,1210,o),
(1076,1400,o),
(842,1400,cs),
(382,1400,ls),
(299,1400,o),
(227,1333,o),
(219,1250,cs),
(212,1167,o),
(273,1100,o),
(356,1100,cs),
(816,1100,ls),
(884,1100,o),
(935,1044,o),
(929,976,cs),
(923,907,o),
(862,851,o),
(794,851,cs),
(759,851,ls),
(676,851,o),
(604,784,o),
(596,701,cs),
(589,618,o),
(650,551,o),
(733,551,cs)
);
}
);
width = 1280;
}
);
metricLeft = H;
metricRight = "=H/2";
unicode = (66,98);
},
{
color = 4;
glyphname = C;
kernLeft = O;
kernRight = C;
lastChange = "2022-06-05 20:10:17 +0000";
layers = (
{
anchors = (
{
name = bottom;
pos = (594,0);
},
{
name = top;
pos = (816,1400);
}
);
layerId = m01;
shapes = (
{
closed = 1;
nodes = (
(1118,0,ls),
(1132,0,o),
(1144,11,o),
(1145,25,cs),
(1146,39,o),
(1136,50,o),
(1122,50,cs),
(768,50,ls),
(409,50,o),
(144,341,o),
(175,700,cs),
(206,1052,o),
(510,1338,o),
(860,1350,cs),
(874,1350,o),
(886,1361,o),
(887,1375,cs),
(889,1389,o),
(876,1400,o),
(863,1400,cs),
(486,1387,o),
(158,1079,o),
(125,700,cs),
(91,313,o),
(377,0,o),
(764,0,cs)
);
},
{
closed = 1;
nodes = (
(1251,1350,o),
(1263,1361,o),
(1264,1375,cs),
(1266,1389,o),
(1255,1400,o),
(1241,1400,cs),
(1227,1400,o),
(1216,1389,o),
(1214,1375,cs),
(1213,1361,o),
(1223,1350,o),
(1237,1350,cs)
);
}
);
width = 1188;
},
{
anchors = (
{
name = bottom;
pos = (631,0);
},
{
name = top;
pos = (813,1400);
}
);
layerId = "19FA402B-9607-46D9-AAD6-815AECBA5B6B";
name = Regular;
shapes = (
{
closed = 1;
nodes = (
(1134,0,ls),
(1167,0,o),
(1196,27,o),
(1199,60,cs),
(1202,93,o),
(1177,120,o),
(1144,120,cs),
(790,120,ls),
(470,120,o),
(233,380,o),
(261,700,cs),
(288,1004,o),
(544,1253,o),
(843,1278,cs),
(874,1281,o),
(900,1306,o),
(903,1338,cs),
(906,1374,o),
(877,1400,o),
(843,1398,cs),
(482,1368,o),
(173,1066,o),
(141,700,cs),
(107,314,o),
(394,0,o),
(780,0,cs)
);
},
{
closed = 1;
nodes = (
(1226,1280,o),
(1255,1307,o),
(1258,1340,cs),
(1261,1373,o),
(1236,1400,o),
(1203,1400,cs),
(1170,1400,o),
(1141,1373,o),
(1138,1340,cs),
(1135,1307,o),
(1160,1280,o),
(1193,1280,cs)
);
}
);
width = 1244;
},
{
anchors = (
{
name = bottom;
pos = (631,0);
},
{
name = top;
pos = (853,1400);
}
);
layerId = "FF87E3F2-B049-41CB-BF2F-09DB15105515";
shapes = (
{
closed = 1;
nodes = (
(1056,0,ls),
(1139,0,o),
(1212,67,o),
(1219,150,cs),
(1226,233,o),
(1165,300,o),
(1082,300,cs),
(833,300,ls),
(608,300,o),
(442,483,o),
(462,708,cs),
(479,899,o),
(625,1060,o),
(806,1104,cs),
(873,1120,o),
(926,1179,o),
(932,1250,cs),
(941,1347,o),
(855,1420,o),
(759,1396,cs),
(444,1319,o),
(191,1040,o),
(162,708,cs),
(128,317,o),
(416,0,o),
(807,0,cs)
);
},
{
closed = 1;
nodes = (
(1235,1100,o),
(1308,1167,o),
(1315,1250,cs),
(1323,1333,o),
(1261,1400,o),
(1178,1400,cs),
(1095,1400,o),
(1023,1333,o),
(1015,1250,cs),
(1008,1167,o),
(1069,1100,o),
(1152,1100,cs)
);
}
);
width = 1270;
}
);
metricLeft = O;
unicode = (67,99);
},
{
color = 5;
glyphname = Cacute;
kernLeft = O;
kernRight = C;
lastChange = "2022-06-05 20:10:17 +0000";
layers = (
{
anchors = (
{
name = bottom;
pos = (594,0);
},
{
name = top;
pos = (855,1839);
}
);
layerId = m01;
shapes = (
{
closed = 1;
nodes = (
(1118,0,ls),
(1132,0,o),
(1144,11,o),
(1145,25,cs),
(1146,39,o),
(1136,50,o),
(1122,50,cs),
(768,50,ls),
(409,50,o),
(144,341,o),
(175,700,cs),
(206,1052,o),
(510,1338,o),
(860,1350,cs),
(874,1350,o),
(886,1361,o),
(887,1375,cs),
(889,1389,o),
(876,1400,o),
(863,1400,cs),
(486,1387,o),
(158,1079,o),
(125,700,cs),
(91,313,o),
(377,0,o),
(764,0,cs)
);
},
{
closed = 1;
nodes = (
(1251,1350,o),
(1263,1361,o),
(1264,1375,cs),
(1266,1389,o),
(1255,1400,o),
(1241,1400,cs),
(1227,1400,o),
(1216,1389,o),
(1214,1375,cs),
(1213,1361,o),
(1223,1350,o),
(1237,1350,cs)
);
},
{
closed = 1;
nodes = (
(1175,1802,ls),
(1180,1806,o),
(1184,1812,o),
(1184,1818,cs),
(1185,1830,o),
(1177,1839,o),
(1165,1839,cs),
(1160,1839,o),
(1156,1838,o),
(1152,1835,cs),
(836,1605,ls),
(831,1601,o),
(828,1595,o),
(827,1589,cs),
(826,1577,o),
(834,1568,o),
(846,1568,cs),
(851,1568,o),
(855,1569,o),
(860,1572,cs)
);
}
);
width = 1188;
},
{
anchors = (
{
name = bottom;
pos = (631,0);
},
{
name = top;
pos = (851,1830);
}
);
layerId = "19FA402B-9607-46D9-AAD6-815AECBA5B6B";
shapes = (
{
closed = 1;
nodes = (
(1134,0,ls),
(1167,0,o),
(1196,27,o),
(1199,60,cs),
(1202,93,o),
(1177,120,o),
(1144,120,cs),
(790,120,ls),
(470,120,o),
(233,380,o),
(261,700,cs),
(288,1004,o),
(544,1253,o),
(843,1278,cs),
(874,1281,o),
(900,1306,o),
(903,1338,cs),
(906,1374,o),
(877,1400,o),
(843,1398,cs),
(482,1368,o),
(173,1066,o),
(141,700,cs),
(107,314,o),
(394,0,o),
(780,0,cs)
);
},
{
closed = 1;
nodes = (
(1226,1280,o),
(1255,1307,o),
(1258,1340,cs),
(1261,1373,o),
(1236,1400,o),
(1203,1400,cs),
(1170,1400,o),
(1141,1373,o),
(1138,1340,cs),
(1135,1307,o),
(1160,1280,o),
(1193,1280,cs)
);
},
{
closed = 1;
nodes = (
(1161,1764,ls),
(1175,1773,o),
(1184,1787,o),
(1186,1804,cs),
(1188,1832,o),
(1168,1854,o),
(1140,1854,cs),
(1129,1854,o),
(1119,1851,o),
(1110,1845,cs),
(807,1643,ls),
(793,1634,o),
(784,1620,o),
(782,1603,cs),
(780,1575,o),
(800,1553,o),
(828,1553,cs),
(839,1553,o),
(849,1556,o),
(858,1562,cs)
);
}
);
width = 1244;
},
{
anchors = (
{
name = bottom;
pos = (631,0);
},
{
name = top;
pos = (896,1890);
}
);
layerId = "FF87E3F2-B049-41CB-BF2F-09DB15105515";
shapes = (
{
closed = 1;
nodes = (
(1056,0,ls),
(1139,0,o),
(1212,67,o),
(1219,150,cs),
(1226,233,o),
(1165,300,o),
(1082,300,cs),
(833,300,ls),
(608,300,o),
(442,483,o),
(462,708,cs),
(479,899,o),
(625,1060,o),
(806,1104,cs),
(873,1120,o),
(926,1179,o),
(932,1250,cs),
(941,1347,o),
(855,1420,o),
(759,1396,cs),
(444,1319,o),
(191,1040,o),
(162,708,cs),
(128,317,o),
(416,0,o),
(807,0,cs)
);
},
{
closed = 1;
nodes = (
(1235,1100,o),
(1308,1167,o),
(1315,1250,cs),
(1323,1333,o),
(1261,1400,o),
(1178,1400,cs),
(1095,1400,o),
(1023,1333,o),
(1015,1250,cs),
(1008,1167,o),
(1069,1100,o),
(1152,1100,cs)
);
},
{
closed = 1;
nodes = (
(1206,1698,ls),
(1233,1716,o),
(1253,1746,o),
(1256,1780,cs),
(1261,1835,o),
(1219,1880,o),
(1164,1880,cs),
(1143,1880,o),
(1124,1874,o),
(1107,1863,cs),
(863,1709,ls),
(835,1691,o),
(815,1661,o),
(812,1627,cs),
(808,1572,o),
(849,1527,o),
(904,1527,cs),
(925,1527,o),
(944,1533,o),
(961,1544,cs)
);
}
);
width = 1270;
}
);
unicode = (262,263);
},
{
color = 5;
glyphname = Ccaron;
kernLeft = O;
kernRight = C;
lastChange = "2022-06-05 20:10:17 +0000";
layers = (
{
anchors = (
{
name = bottom;
pos = (594,0);
},
{
name = top;
pos = (853,1819);
}
);
layerId = m01;
shapes = (
{
closed = 1;
nodes = (
(1118,0,ls),
(1132,0,o),
(1144,11,o),
(1145,25,cs),
(1146,39,o),
(1136,50,o),
(1122,50,cs),
(768,50,ls),
(409,50,o),
(144,341,o),
(175,700,cs),
(206,1052,o),
(510,1338,o),
(860,1350,cs),
(874,1350,o),
(886,1361,o),
(887,1375,cs),
(889,1389,o),
(876,1400,o),
(863,1400,cs),
(486,1387,o),
(158,1079,o),
(125,700,cs),
(91,313,o),
(377,0,o),
(764,0,cs)
);
},
{
closed = 1;
nodes = (
(1251,1350,o),
(1263,1361,o),
(1264,1375,cs),
(1266,1389,o),
(1255,1400,o),
(1241,1400,cs),
(1227,1400,o),
(1216,1389,o),
(1214,1375,cs),
(1213,1361,o),
(1223,1350,o),
(1237,1350,cs)
);
},
{
closed = 1;
nodes = (
(818,1575,ls),
(821,1571,o),
(826,1569,o),
(831,1569,cs),
(843,1569,o),
(853,1578,o),
(854,1590,cs),
(855,1596,o),
(853,1601,o),
(849,1605,cs),
(645,1813,ls),
(641,1817,o),
(636,1819,o),
(631,1819,cs),
(619,1819,o),
(609,1810,o),
(608,1798,cs),
(608,1792,o),
(609,1787,o),
(613,1783,cs)
);
},
{
closed = 1;
nodes = (
(836,1619,ls),
(831,1615,o),
(829,1610,o),
(828,1604,cs),
(827,1592,o),
(835,1583,o),
(847,1583,cs),
(852,1583,o),
(858,1585,o),
(862,1589,cs),
(1099,1796,l),
(1074,1826,l)
);
}
);
width = 1188;
},
{
anchors = (
{
name = bottom;
pos = (631,0);
},
{
name = top;
pos = (851,1830);
}
);
layerId = "19FA402B-9607-46D9-AAD6-815AECBA5B6B";
shapes = (
{
closed = 1;
nodes = (
(1134,0,ls),
(1167,0,o),
(1196,27,o),
(1199,60,cs),
(1202,93,o),
(1177,120,o),
(1144,120,cs),
(790,120,ls),
(470,120,o),
(233,380,o),
(261,700,cs),
(288,1004,o),
(544,1253,o),
(843,1278,cs),
(874,1281,o),
(900,1306,o),
(903,1338,cs),
(906,1374,o),
(877,1400,o),
(843,1398,cs),
(482,1368,o),
(173,1066,o),
(141,700,cs),
(107,314,o),
(394,0,o),
(780,0,cs)
);
},
{
closed = 1;
nodes = (
(1226,1280,o),
(1255,1307,o),
(1258,1340,cs),
(1261,1373,o),
(1236,1400,o),
(1203,1400,cs),
(1170,1400,o),
(1141,1373,o),
(1138,1340,cs),
(1135,1307,o),
(1160,1280,o),
(1193,1280,cs)
);
},
{
closed = 1;
nodes = (
(794,1572,ls),
(802,1563,o),
(813,1558,o),
(826,1558,cs),
(854,1558,o),
(878,1580,o),
(881,1608,cs),
(882,1622,o),
(877,1635,o),
(869,1644,cs),
(684,1835,ls),
(675,1844,o),
(664,1849,o),
(651,1849,cs),
(623,1849,o),
(599,1827,o),
(596,1799,cs),
(595,1785,o),
(600,1772,o),
(608,1763,cs)
);
},
{
closed = 1;
nodes = (
(838,1677,ls),
(828,1668,o),
(821,1655,o),
(820,1641,cs),
(817,1613,o),
(837,1591,o),
(865,1591,cs),
(878,1591,o),
(891,1596,o),
(900,1605,cs),
(1117,1794,l),
(1055,1866,l)
);
}
);
width = 1244;
},
{
anchors = (
{
name = bottom;
pos = (631,0);
},
{
name = top;
pos = (896,1890);
}
);
layerId = "FF87E3F2-B049-41CB-BF2F-09DB15105515";
shapes = (
{
closed = 1;
nodes = (
(1056,0,ls),
(1139,0,o),
(1212,67,o),
(1219,150,cs),
(1226,233,o),
(1165,300,o),
(1082,300,cs),
(833,300,ls),
(608,300,o),
(442,483,o),
(462,708,cs),
(479,899,o),
(625,1060,o),
(806,1104,cs),
(873,1120,o),
(926,1179,o),
(932,1250,cs),
(941,1347,o),
(855,1420,o),
(759,1396,cs),
(444,1319,o),
(191,1040,o),
(162,708,cs),
(128,317,o),
(416,0,o),
(807,0,cs)
);
},
{
closed = 1;
nodes = (
(1235,1100,o),
(1308,1167,o),
(1315,1250,cs),
(1323,1333,o),
(1261,1400,o),
(1178,1400,cs),
(1095,1400,o),
(1023,1333,o),
(1015,1250,cs),
(1008,1167,o),
(1069,1100,o),
(1152,1100,cs)
);
},
{
closed = 1;
nodes = (
(810,1544,ls),
(825,1533,o),
(844,1527,o),
(865,1527,cs),
(920,1527,o),
(969,1572,o),
(973,1627,cs),
(976,1661,o),
(962,1691,o),
(938,1709,cs),
(720,1863,ls),
(705,1874,o),
(686,1880,o),
(665,1880,cs),
(610,1880,o),
(562,1835,o),
(557,1780,cs),
(554,1746,o),
(568,1716,o),
(593,1698,cs)
);
},
{
closed = 1;
nodes = (
(902,1758,ls),
(874,1740,o),
(855,1710,o),
(852,1676,cs),
(847,1621,o),
(888,1576,o),
(943,1576,cs),
(964,1576,o),
(983,1582,o),
(1001,1593,cs),
(1244,1747,l),
(1148,1913,l)
);
}
);
width = 1270;
}
);
unicode = (268,269);
},
{
color = 5;
glyphname = Ccedilla;
kernLeft = O;
kernRight = C;
lastChange = "2022-06-05 20:10:17 +0000";
layers = (
{
anchors = (
{
name = bottom;
pos = (560,-383);
},
{
name = top;
pos = (816,1400);
}
);
layerId = m01;
shapes = (
{
closed = 1;
nodes = (
(1118,0,ls),
(1132,0,o),
(1144,11,o),
(1145,25,cs),
(1146,39,o),
(1136,50,o),
(1122,50,cs),
(768,50,ls),
(409,50,o),
(144,341,o),
(175,700,cs),
(206,1052,o),
(510,1338,o),
(860,1350,cs),
(874,1350,o),
(886,1361,o),
(887,1375,cs),
(889,1389,o),
(876,1400,o),
(863,1400,cs),
(486,1387,o),
(158,1079,o),
(125,700,cs),
(91,313,o),
(377,0,o),
(764,0,cs)
);
},
{
closed = 1;
nodes = (
(1251,1350,o),
(1263,1361,o),
(1264,1375,cs),
(1266,1389,o),
(1255,1400,o),
(1241,1400,cs),
(1227,1400,o),
(1216,1389,o),
(1214,1375,cs),
(1213,1361,o),
(1223,1350,o),
(1237,1350,cs)
);
},
{
closed = 1;
nodes = (
(557,-377,o),
(566,-371,o),
(569,-362,cs),
(677,-108,ls),
(682,-96,o),
(674,-81,o),
(659,-81,cs),
(650,-81,o),
(641,-87,o),
(638,-96,cs),
(530,-350,ls),
(525,-362,o),
(533,-377,o),
(548,-377,cs)
);
}
);
width = 1188;
},
{
anchors = (
{
name = bottom;
pos = (597,-383);
},
{
name = top;
pos = (813,1400);
}
);
layerId = "19FA402B-9607-46D9-AAD6-815AECBA5B6B";
shapes = (
{
closed = 1;
nodes = (
(1134,0,ls),
(1167,0,o),
(1196,27,o),
(1199,60,cs),
(1202,93,o),
(1177,120,o),
(1144,120,cs),
(790,120,ls),
(470,120,o),
(233,380,o),
(261,700,cs),
(288,1004,o),
(544,1253,o),
(843,1278,cs),
(874,1281,o),
(900,1306,o),
(903,1338,cs),
(906,1374,o),
(877,1400,o),
(843,1398,cs),
(482,1368,o),
(173,1066,o),
(141,700,cs),
(107,314,o),
(394,0,o),
(780,0,cs)
);
},
{
closed = 1;
nodes = (
(1226,1280,o),
(1255,1307,o),
(1258,1340,cs),
(1261,1373,o),
(1236,1400,o),
(1203,1400,cs),
(1170,1400,o),
(1141,1373,o),
(1138,1340,cs),
(1135,1307,o),
(1160,1280,o),
(1193,1280,cs)
);
},
{
closed = 1;
nodes = (
(622,-383,o),
(647,-365,o),
(656,-341,cs),
(736,-153,ls),
(751,-114,o),
(725,-75,o),
(685,-75,cs),
(658,-75,o),
(634,-93,o),
(625,-117,cs),
(545,-305,ls),
(530,-344,o),
(555,-383,o),
(595,-383,cs)
);
}
);
width = 1244;
},
{
anchors = (
{
name = bottom;
pos = (597,-383);
},
{
name = top;
pos = (853,1400);
}
);
layerId = "FF87E3F2-B049-41CB-BF2F-09DB15105515";
shapes = (
{
closed = 1;
nodes = (
(1056,0,ls),
(1139,0,o),
(1212,67,o),
(1219,150,cs),
(1226,233,o),
(1165,300,o),
(1082,300,cs),
(833,300,ls),
(608,300,o),
(442,483,o),
(462,708,cs),
(479,899,o),
(625,1060,o),
(806,1104,cs),
(873,1120,o),
(926,1179,o),
(932,1250,cs),
(941,1347,o),
(855,1420,o),
(759,1396,cs),
(444,1319,o),
(191,1040,o),
(162,708,cs),
(128,317,o),
(416,0,o),
(807,0,cs)
);
},
{
closed = 1;
nodes = (
(1235,1100,o),
(1308,1167,o),
(1315,1250,cs),
(1323,1333,o),
(1261,1400,o),
(1178,1400,cs),
(1095,1400,o),
(1023,1333,o),
(1015,1250,cs),
(1008,1167,o),
(1069,1100,o),
(1152,1100,cs)
);
},
{
closed = 1;
nodes = (
(651,-389,o),
(693,-359,o),
(708,-318,cs),
(759,-199,ls),
(784,-135,o),
(741,-69,o),
(674,-69,cs),
(630,-69,o),
(588,-99,o),
(573,-140,cs),
(522,-259,ls),
(497,-323,o),
(540,-389,o),
(607,-389,cs)
);
}
);
width = 1270;
}
);
unicode = (199,231);
},
{
color = 5;
glyphname = Ccircumflex;
kernLeft = O;
kernRight = C;
lastChange = "2022-06-05 20:10:17 +0000";
layers = (
{
anchors = (
{
name = bottom;
pos = (594,0);
},
{
name = top;
pos = (853,1819);
},
{
name = top_viet;
pos = (1052,1594);
},
{
name = top_viet_grave;
pos = (1270,1577);
}
);
layerId = m01;
shapes = (
{
closed = 1;
nodes = (
(1118,0,ls),
(1132,0,o),
(1144,11,o),
(1145,25,cs),
(1146,39,o),
(1136,50,o),
(1122,50,cs),
(768,50,ls),
(409,50,o),
(144,341,o),
(175,700,cs),
(206,1052,o),
(510,1338,o),
(860,1350,cs),
(874,1350,o),
(886,1361,o),
(887,1375,cs),
(889,1389,o),
(876,1400,o),
(863,1400,cs),
(486,1387,o),
(158,1079,o),
(125,700,cs),
(91,313,o),
(377,0,o),
(764,0,cs)
);
},
{
closed = 1;
nodes = (
(1251,1350,o),
(1263,1361,o),
(1264,1375,cs),
(1266,1389,o),
(1255,1400,o),
(1241,1400,cs),
(1227,1400,o),
(1216,1389,o),
(1214,1375,cs),
(1213,1361,o),
(1223,1350,o),
(1237,1350,cs)
);
},
{
closed = 1;
nodes = (
(597,1605,ls),
(593,1601,o),
(591,1596,o),
(590,1590,cs),
(589,1578,o),
(597,1569,o),
(609,1569,cs),
(614,1569,o),
(619,1571,o),
(624,1575,cs),
(865,1783,ls),
(869,1787,o),
(872,1792,o),
(872,1798,cs),
(873,1810,o),
(865,1819,o),
(853,1819,cs),
(848,1819,o),
(843,1817,o),
(839,1813,cs)
);
},
{
closed = 1;
nodes = (
(1038,1575,ls),
(1041,1571,o),
(1046,1569,o),
(1051,1569,cs),
(1063,1569,o),
(1073,1578,o),
(1074,1590,cs),
(1075,1596,o),
(1073,1601,o),
(1069,1605,cs),
(868,1812,l),
(837,1782,l)
);
}
);
width = 1188;
},
{
anchors = (
{
name = bottom;
pos = (631,0);
},
{
name = top;
pos = (853,1849);
},
{
name = top_viet;
pos = (1049,1594);
},
{
name = top_viet_grave;
pos = (1212,1613);
}
);
layerId = "19FA402B-9607-46D9-AAD6-815AECBA5B6B";
shapes = (
{
closed = 1;
nodes = (
(1134,0,ls),
(1167,0,o),
(1196,27,o),
(1199,60,cs),
(1202,93,o),
(1177,120,o),
(1144,120,cs),
(790,120,ls),
(470,120,o),
(233,380,o),
(261,700,cs),
(288,1004,o),
(544,1253,o),
(843,1278,cs),
(874,1281,o),
(900,1306,o),
(903,1338,cs),
(906,1374,o),
(877,1400,o),
(843,1398,cs),
(482,1368,o),
(173,1066,o),
(141,700,cs),
(107,314,o),
(394,0,o),
(780,0,cs)
);
},
{
closed = 1;
nodes = (
(1226,1280,o),
(1255,1307,o),
(1258,1340,cs),
(1261,1373,o),
(1236,1400,o),
(1203,1400,cs),
(1170,1400,o),
(1141,1373,o),
(1138,1340,cs),
(1135,1307,o),
(1160,1280,o),
(1193,1280,cs)
);
},
{
closed = 1;
nodes = (
(598,1644,ls),
(588,1635,o),
(581,1622,o),
(580,1608,cs),
(577,1580,o),
(597,1558,o),
(625,1558,cs),
(638,1558,o),
(651,1563,o),
(661,1572,cs),
(879,1763,ls),
(889,1772,o),
(896,1785,o),
(897,1799,cs),
(900,1827,o),
(880,1849,o),
(852,1849,cs),
(839,1849,o),
(826,1844,o),
(817,1835,cs)
);
},
{
closed = 1;
nodes = (
(997,1572,ls),
(1005,1563,o),
(1016,1558,o),
(1029,1558,cs),
(1057,1558,o),
(1081,1580,o),
(1084,1608,cs),
(1085,1622,o),
(1080,1635,o),
(1072,1644,cs),
(887,1833,l),
(813,1761,l)
);
}
);
width = 1244;
},
{
anchors = (
{
name = bottom;
pos = (631,0);
},
{
name = top;
pos = (895,1880);
},
{
name = top_viet;
pos = (1110,1651);
},
{
name = top_viet_grave;
pos = (1327,1640);
}
);
layerId = "FF87E3F2-B049-41CB-BF2F-09DB15105515";
shapes = (
{
closed = 1;
nodes = (
(1056,0,ls),
(1139,0,o),
(1212,67,o),
(1219,150,cs),
(1226,233,o),
(1165,300,o),
(1082,300,cs),
(833,300,ls),
(608,300,o),
(442,483,o),
(462,708,cs),
(479,899,o),
(625,1060,o),
(806,1104,cs),
(873,1120,o),
(926,1179,o),
(932,1250,cs),
(941,1347,o),
(855,1420,o),
(759,1396,cs),
(444,1319,o),
(191,1040,o),
(162,708,cs),
(128,317,o),
(416,0,o),
(807,0,cs)
);
},
{
closed = 1;
nodes = (
(1235,1100,o),
(1308,1167,o),
(1315,1250,cs),
(1323,1333,o),
(1261,1400,o),
(1178,1400,cs),
(1095,1400,o),
(1023,1333,o),
(1015,1250,cs),
(1008,1167,o),
(1069,1100,o),
(1152,1100,cs)
);
},
{
closed = 1;
nodes = (
(594,1709,ls),
(566,1691,o),
(546,1661,o),
(543,1627,cs),
(539,1572,o),
(580,1527,o),
(635,1527,cs),
(656,1527,o),
(675,1533,o),
(692,1544,cs),
(937,1698,ls),
(964,1716,o),
(984,1746,o),
(987,1780,cs),
(992,1835,o),
(950,1880,o),
(895,1880,cs),
(874,1880,o),
(855,1874,o),
(838,1863,cs)
);
},
{
closed = 1;
nodes = (
(1039,1544,ls),
(1055,1533,o),
(1074,1527,o),
(1095,1527,cs),
(1150,1527,o),
(1199,1572,o),
(1203,1627,cs),
(1206,1661,o),
(1192,1691,o),
(1168,1709,cs),
(948,1864,l),
(824,1698,l)
);
}
);
width = 1270;
}
);
unicode = (264,265);
},
{
color = 5;
glyphname = Cdotaccent;
kernLeft = O;
kernRight = C;
lastChange = "2022-06-05 20:10:17 +0000";
layers = (
{
anchors = (
{
name = bottom;
pos = (594,0);
},
{
name = top;
pos = (839,1654);
}
);
layerId = m01;
shapes = (
{
closed = 1;
nodes = (
(1118,0,ls),
(1132,0,o),
(1144,11,o),
(1145,25,cs),
(1146,39,o),
(1136,50,o),
(1122,50,cs),
(768,50,ls),
(409,50,o),
(144,341,o),
(175,700,cs),
(206,1052,o),
(510,1338,o),
(860,1350,cs),
(874,1350,o),
(886,1361,o),
(887,1375,cs),
(889,1389,o),
(876,1400,o),
(863,1400,cs),
(486,1387,o),
(158,1079,o),
(125,700,cs),
(91,313,o),
(377,0,o),
(764,0,cs)
);
},
{
closed = 1;
nodes = (
(1251,1350,o),
(1263,1361,o),
(1264,1375,cs),
(1266,1389,o),
(1255,1400,o),
(1241,1400,cs),
(1227,1400,o),
(1216,1389,o),
(1214,1375,cs),
(1213,1361,o),
(1223,1350,o),
(1237,1350,cs)
);
},
{
closed = 1;
nodes = (
(849,1594,o),
(865,1608,o),
(866,1624,cs),
(867,1640,o),
(855,1654,o),
(839,1654,cs),
(823,1654,o),
(807,1640,o),
(806,1624,cs),
(805,1608,o),
(817,1594,o),
(833,1594,cs)
);
}
);
width = 1188;
},
{
anchors = (
{
name = bottom;
pos = (631,0);
},
{
name = top;
pos = (844,1744);
}
);
layerId = "19FA402B-9607-46D9-AAD6-815AECBA5B6B";
shapes = (
{
closed = 1;
nodes = (
(1134,0,ls),
(1167,0,o),
(1196,27,o),
(1199,60,cs),
(1202,93,o),
(1177,120,o),
(1144,120,cs),
(790,120,ls),
(470,120,o),
(233,380,o),
(261,700,cs),
(288,1004,o),
(544,1253,o),
(843,1278,cs),
(874,1281,o),
(900,1306,o),
(903,1338,cs),
(906,1374,o),
(877,1400,o),
(843,1398,cs),
(482,1368,o),
(173,1066,o),
(141,700,cs),
(107,314,o),
(394,0,o),
(780,0,cs)
);
},
{
closed = 1;
nodes = (
(1226,1280,o),
(1255,1307,o),
(1258,1340,cs),
(1261,1373,o),
(1236,1400,o),
(1203,1400,cs),
(1170,1400,o),
(1141,1373,o),
(1138,1340,cs),
(1135,1307,o),
(1160,1280,o),
(1193,1280,cs)
);
},
{
closed = 1;
nodes = (
(871,1594,o),
(908,1628,o),
(912,1669,cs),
(916,1710,o),
(885,1744,o),
(844,1744,cs),
(803,1744,o),
(766,1710,o),
(762,1669,cs),
(758,1628,o),
(789,1594,o),
(830,1594,cs)
);
}
);
width = 1244;
},
{
anchors = (
{
name = bottom;
pos = (631,0);
},
{
name = top;
pos = (886,1777);
}
);
layerId = "FF87E3F2-B049-41CB-BF2F-09DB15105515";
shapes = (
{
closed = 1;
nodes = (
(1056,0,ls),
(1139,0,o),
(1212,67,o),
(1219,150,cs),
(1226,233,o),
(1165,300,o),
(1082,300,cs),
(833,300,ls),
(608,300,o),
(442,483,o),
(462,708,cs),
(479,899,o),
(625,1060,o),
(806,1104,cs),
(873,1120,o),
(926,1179,o),
(932,1250,cs),
(941,1347,o),
(855,1420,o),
(759,1396,cs),
(444,1319,o),
(191,1040,o),
(162,708,cs),
(128,317,o),
(416,0,o),
(807,0,cs)
);
},
{
closed = 1;
nodes = (
(1235,1100,o),
(1308,1167,o),
(1315,1250,cs),
(1323,1333,o),
(1261,1400,o),
(1178,1400,cs),
(1095,1400,o),
(1023,1333,o),
(1015,1250,cs),
(1008,1167,o),
(1069,1100,o),
(1152,1100,cs)
);
},
{
closed = 1;
nodes = (
(932,1534,o),
(992,1589,o),
(998,1655,cs),
(1004,1722,o),
(952,1777,o),
(886,1777,cs),
(820,1777,o),
(760,1722,o),
(754,1655,cs),
(748,1589,o),
(800,1534,o),
(866,1534,cs)
);
}
);
width = 1270;
}
);
unicode = (266,267);
},
{
color = 4;
glyphname = D;
kernLeft = I;
kernRight = O;
lastChange = "2022-06-05 20:10:17 +0000";
layers = (
{
anchors = (
{
name = bottom;
pos = (623,0);
},
{
name = center;
pos = (684,700);
},
{
name = top;
pos = (695,1400);
}
);
layerId = m01;
shapes = (
{
closed = 1;
nodes = (
(89,26,ls),
(88,12,o),
(98,1,o),
(112,1,cs),
(126,1,o),
(138,12,o),
(139,26,cs),
(204,769,ls),
(205,782,o),
(195,794,o),
(181,794,cs),
(167,794,o),
(155,782,o),
(154,769,cs)
);
},
{
closed = 1;
nodes = (
(893,0,o),
(1233,313,o),
(1267,700,cs),
(1301,1087,o),
(1015,1400,o),
(628,1400,cs),
(232,1400,ls),
(218,1400,o),
(207,1389,o),
(205,1375,cs),
(204,1361,o),
(214,1350,o),
(228,1350,cs),
(624,1350,ls),
(983,1350,o),
(1249,1059,o),
(1217,700,cs),
(1186,341,o),
(869,50,o),
(510,50,cs),
(496,50,o),
(484,39,o),
(483,25,cs),
(482,11,o),
(492,0,o),
(506,0,cs)
);
}
);
width = 1270;
},
{
anchors = (
{
name = bottom;
pos = (643,0);
},
{
name = center;
pos = (704,700);
},
{
name = top;
pos = (705,1400);
}
);
layerId = "19FA402B-9607-46D9-AAD6-815AECBA5B6B";
name = Regular;
shapes = (
{
closed = 1;
nodes = (
(105,60,ls),
(102,27,o),
(127,0,o),
(160,0,cs),
(193,0,o),
(222,27,o),
(225,60,cs),
(284,737,ls),
(287,770,o),
(263,797,o),
(230,797,cs),
(197,797,o),
(167,770,o),
(164,737,cs)
);
},
{
closed = 1;
nodes = (
(911,0,o),
(1252,314,o),
(1286,700,cs),
(1320,1086,o),
(1033,1400,o),
(647,1400,cs),
(282,1400,ls),
(249,1400,o),
(220,1373,o),
(217,1340,cs),
(214,1307,o),
(239,1280,o),
(272,1280,cs),
(637,1280,ls),
(957,1280,o),
(1194,1020,o),
(1166,700,cs),
(1138,380,o),
(855,120,o),
(535,120,cs),
(502,120,o),
(473,93,o),
(470,60,cs),
(467,27,o),
(492,0,o),
(525,0,cs)
);
}
);
width = 1305;
},
{
anchors = (
{
name = bottom;
pos = (743,0);
},
{
name = center;
pos = (804,700);
},
{
name = top;
pos = (835,1400);
}
);
layerId = "FF87E3F2-B049-41CB-BF2F-09DB15105515";
shapes = (
{
closed = 1;
nodes = (
(138,150,ls),
(131,67,o),
(192,0,o),
(275,0,cs),
(358,0,o),
(431,67,o),
(438,150,cs),
(482,656,ls),
(490,739,o),
(429,806,o),
(346,806,cs),
(263,806,o),
(190,739,o),
(182,656,cs)
);
},
{
closed = 1;
nodes = (
(1091,0,o),
(1432,313,o),
(1466,701,cs),
(1500,1087,o),
(1213,1400,o),
(827,1400,cs),
(382,1400,ls),
(299,1400,o),
(227,1333,o),
(219,1250,cs),
(212,1167,o),
(273,1100,o),
(356,1100,cs),
(801,1100,ls),
(1021,1100,o),
(1186,921,o),
(1166,701,cs),
(1147,479,o),
(951,300,o),
(731,300,cs),
(648,300,o),
(575,233,o),
(568,150,cs),
(561,67,o),
(622,0,o),
(705,0,cs)
);
}
);
width = 1505;
}
);
metricLeft = H;
metricRight = O;
unicode = (68,100);
},
{
color = 5;
glyphname = Eth;
kernLeft = I;
kernRight = O;
lastChange = "2022-06-05 20:10:17 +0000";
layers = (
{
anchors = (
{
name = bottom;
pos = (744,0);
},
{
name = center;
pos = (805,700);
},
{
name = top;
pos = (816,1400);
}
);
layerId = m01;
shapes = (
{
closed = 1;
nodes = (
(210,26,ls),
(209,12,o),
(219,1,o),
(233,1,cs),
(247,1,o),
(259,12,o),
(260,26,cs),
(299,469,ls),
(300,482,o),
(290,494,o),
(276,494,cs),
(262,494,o),
(250,482,o),
(249,469,cs)
);
},
{
closed = 1;
nodes = (
(88,725,ls),
(74,725,o),
(61,714,o),
(60,700,cs),
(59,686,o),
(70,675,o),
(84,675,cs),
(625,675,ls),
(638,675,o),
(651,686,o),
(652,700,cs),
(653,714,o),
(642,725,o),
(629,725,cs)
);
},
{
closed = 1;
nodes = (
(1014,0,o),
(1354,313,o),
(1388,700,cs),
(1422,1087,o),
(1136,1400,o),
(749,1400,cs),
(353,1400,ls),
(339,1400,o),
(328,1389,o),
(326,1375,cs),
(325,1361,o),
(335,1350,o),
(349,1350,cs),
(745,1350,ls),
(1104,1350,o),
(1370,1059,o),
(1338,700,cs),
(1307,341,o),
(990,50,o),
(631,50,cs),
(617,50,o),
(605,39,o),
(604,25,cs),
(603,11,o),
(613,0,o),
(627,0,cs)
);
}
);
width = 1391;
},
{
anchors = (
{
name = bottom;
pos = (722,0);
},
{
name = center;
pos = (783,700);
},
{
name = top;
pos = (784,1400);
}
);
layerId = "19FA402B-9607-46D9-AAD6-815AECBA5B6B";
shapes = (
{
closed = 1;
nodes = (
(184,60,ls),
(181,27,o),
(206,0,o),
(239,0,cs),
(272,0,o),
(301,27,o),
(304,60,cs),
(337,437,ls),
(340,470,o),
(315,497,o),
(282,497,cs),
(249,497,o),
(220,470,o),
(217,437,cs)
);
},
{
closed = 1;
nodes = (
(126,760,ls),
(93,760,o),
(64,733,o),
(61,700,cs),
(58,667,o),
(83,640,o),
(116,640,cs),
(594,640,ls),
(627,640,o),
(656,667,o),
(659,700,cs),
(662,733,o),
(637,760,o),
(604,760,cs)
);
},
{
closed = 1;
nodes = (
(990,0,o),
(1331,314,o),
(1365,700,cs),
(1399,1086,o),
(1112,1400,o),
(726,1400,cs),
(361,1400,ls),
(328,1400,o),
(299,1373,o),
(296,1340,cs),
(293,1307,o),
(318,1280,o),
(351,1280,cs),
(716,1280,ls),
(1036,1280,o),
(1273,1020,o),
(1245,700,cs),
(1217,380,o),
(934,120,o),
(614,120,cs),
(581,120,o),
(552,93,o),
(549,60,cs),
(546,27,o),
(571,0,o),
(604,0,cs)
);
}
);
width = 1384;
},
{
anchors = (
{
name = bottom;
pos = (660,0);
},
{
name = center;
pos = (853,700);
},
{
name = top;
pos = (882,1400);
}
);
layerId = "FF87E3F2-B049-41CB-BF2F-09DB15105515";
shapes = (
{
closed = 1;
nodes = (
(187,150,ls),
(180,67,o),
(241,0,o),
(324,0,cs),
(407,0,o),
(480,67,o),
(487,150,cs),
(499,286,ls),
(506,369,o),
(445,436,o),
(362,436,cs),
(279,436,o),
(206,369,o),
(199,286,cs)
);
},
{
closed = 1;
nodes = (
(224,850,ls),
(141,850,o),
(69,783,o),
(61,700,cs),
(54,617,o),
(115,550,o),
(198,550,cs),
(514,550,ls),
(597,550,o),
(670,617,o),
(677,700,cs),
(685,783,o),
(623,850,o),
(540,850,cs)
);
},
{
closed = 1;
nodes = (
(1140,0,o),
(1481,313,o),
(1515,701,cs),
(1549,1087,o),
(1262,1400,o),
(876,1400,cs),
(431,1400,ls),
(348,1400,o),
(276,1333,o),
(268,1250,cs),
(261,1167,o),
(322,1100,o),
(405,1100,cs),
(850,1100,ls),
(1070,1100,o),
(1235,921,o),
(1215,701,cs),
(1196,479,o),
(1000,300,o),
(780,300,cs),
(697,300,o),
(624,233,o),
(617,150,cs),
(610,67,o),
(671,0,o),
(754,0,cs)
);
}
);
width = 1554;
}
);
metricRight = O;
unicode = (208,240);
},
{
color = 5;
glyphname = Dcaron;
kernLeft = I;
kernRight = O;
lastChange = "2022-06-05 20:10:17 +0000";
layers = (
{
anchors = (
{
name = bottom;
pos = (623,0);
},
{
name = center;
pos = (684,700);
},
{
name = top;
pos = (732,1819);
}
);
layerId = m01;
shapes = (
{
closed = 1;
nodes = (
(89,26,ls),
(88,12,o),
(98,1,o),
(112,1,cs),
(126,1,o),
(138,12,o),
(139,26,cs),
(204,769,ls),
(205,782,o),
(195,794,o),
(181,794,cs),
(167,794,o),
(155,782,o),
(154,769,cs)
);
},
{
closed = 1;
nodes = (
(893,0,o),
(1233,313,o),
(1267,700,cs),
(1301,1087,o),
(1015,1400,o),
(628,1400,cs),
(232,1400,ls),
(218,1400,o),
(207,1389,o),
(205,1375,cs),
(204,1361,o),
(214,1350,o),
(228,1350,cs),
(624,1350,ls),
(983,1350,o),
(1249,1059,o),
(1217,700,cs),
(1186,341,o),
(869,50,o),
(510,50,cs),
(496,50,o),
(484,39,o),
(483,25,cs),
(482,11,o),
(492,0,o),
(506,0,cs)
);
},
{
closed = 1;
nodes = (
(697,1575,ls),
(700,1571,o),
(705,1569,o),
(710,1569,cs),
(722,1569,o),
(732,1578,o),
(733,1590,cs),
(734,1596,o),
(732,1601,o),
(728,1605,cs),
(524,1813,ls),
(520,1817,o),
(515,1819,o),
(510,1819,cs),
(498,1819,o),
(488,1810,o),
(487,1798,cs),
(487,1792,o),
(488,1787,o),
(492,1783,cs)
);
},
{
closed = 1;
nodes = (
(715,1619,ls),
(710,1615,o),
(708,1610,o),
(707,1604,cs),
(706,1592,o),
(714,1583,o),
(726,1583,cs),
(731,1583,o),
(737,1585,o),
(741,1589,cs),
(978,1796,l),
(953,1826,l)
);
}
);
width = 1270;
},
{
anchors = (
{
name = bottom;
pos = (643,0);
},
{
name = center;
pos = (704,700);
},
{
name = top;
pos = (743,1830);
}
);
layerId = "19FA402B-9607-46D9-AAD6-815AECBA5B6B";
shapes = (
{
closed = 1;
nodes = (
(105,60,ls),
(102,27,o),
(127,0,o),
(160,0,cs),
(193,0,o),
(222,27,o),
(225,60,cs),
(284,737,ls),
(287,770,o),
(263,797,o),
(230,797,cs),
(197,797,o),
(167,770,o),
(164,737,cs)
);
},
{
closed = 1;
nodes = (
(911,0,o),
(1252,314,o),
(1286,700,cs),
(1320,1086,o),
(1033,1400,o),
(647,1400,cs),
(282,1400,ls),
(249,1400,o),
(220,1373,o),
(217,1340,cs),
(214,1307,o),
(239,1280,o),
(272,1280,cs),
(637,1280,ls),
(957,1280,o),
(1194,1020,o),
(1166,700,cs),
(1138,380,o),
(855,120,o),
(535,120,cs),
(502,120,o),
(473,93,o),
(470,60,cs),
(467,27,o),
(492,0,o),
(525,0,cs)
);
},
{
closed = 1;
nodes = (
(686,1572,ls),
(694,1563,o),
(705,1558,o),
(718,1558,cs),
(746,1558,o),
(770,1580,o),
(773,1608,cs),
(774,1622,o),
(769,1635,o),
(761,1644,cs),
(576,1835,ls),
(567,1844,o),
(556,1849,o),
(543,1849,cs),
(515,1849,o),
(491,1827,o),
(488,1799,cs),
(487,1785,o),
(492,1772,o),
(500,1763,cs)
);
},
{
closed = 1;
nodes = (
(730,1677,ls),
(720,1668,o),
(713,1655,o),
(712,1641,cs),
(709,1613,o),
(729,1591,o),
(757,1591,cs),
(770,1591,o),
(783,1596,o),
(792,1605,cs),
(1009,1794,l),
(947,1866,l)
);
}
);
width = 1305;
},
{
anchors = (
{
name = bottom;
pos = (743,0);
},
{
name = center;
pos = (804,700);
},
{
name = top;
pos = (878,1890);
}
);
layerId = "FF87E3F2-B049-41CB-BF2F-09DB15105515";
shapes = (
{
closed = 1;
nodes = (
(138,150,ls),
(131,67,o),
(192,0,o),
(275,0,cs),
(358,0,o),
(431,67,o),
(438,150,cs),
(482,656,ls),
(490,739,o),
(429,806,o),
(346,806,cs),
(263,806,o),
(190,739,o),
(182,656,cs)
);
},
{
closed = 1;
nodes = (
(1091,0,o),
(1432,313,o),
(1466,701,cs),
(1500,1087,o),
(1213,1400,o),
(827,1400,cs),
(382,1400,ls),
(299,1400,o),
(227,1333,o),
(219,1250,cs),
(212,1167,o),
(273,1100,o),
(356,1100,cs),
(801,1100,ls),
(1021,1100,o),
(1186,921,o),
(1166,701,cs),
(1147,479,o),
(951,300,o),
(731,300,cs),
(648,300,o),
(575,233,o),
(568,150,cs),
(561,67,o),
(622,0,o),
(705,0,cs)
);
},
{
closed = 1;
nodes = (
(792,1544,ls),
(807,1533,o),
(826,1527,o),
(847,1527,cs),
(902,1527,o),
(951,1572,o),
(955,1627,cs),
(958,1661,o),
(944,1691,o),
(920,1709,cs),
(702,1863,ls),
(687,1874,o),
(668,1880,o),
(647,1880,cs),
(592,1880,o),
(544,1835,o),
(539,1780,cs),
(536,1746,o),
(550,1716,o),
(575,1698,cs)
);
},
{
closed = 1;
nodes = (
(884,1758,ls),
(856,1740,o),
(837,1710,o),
(834,1676,cs),
(829,1621,o),
(870,1576,o),
(925,1576,cs),
(946,1576,o),
(965,1582,o),
(983,1593,cs),
(1226,1747,l),
(1130,1913,l)
);
}
);
width = 1505;
}
);
unicode = (270,271);
},
{
color = 5;
glyphname = Dcroat;
kernLeft = I;
kernRight = O;
lastChange = "2022-06-05 20:10:17 +0000";
layers = (
{
anchors = (
{
name = bottom;
pos = (744,0);
},
{
name = center;
pos = (805,700);
},
{
name = top;
pos = (816,1400);
}
);
layerId = m01;
shapes = (
{
closed = 1;
nodes = (
(210,26,ls),
(209,12,o),
(219,1,o),
(233,1,cs),
(247,1,o),
(259,12,o),
(260,26,cs),
(299,469,ls),
(300,482,o),
(290,494,o),
(276,494,cs),
(262,494,o),
(250,482,o),
(249,469,cs)
);
},
{
closed = 1;
nodes = (
(88,725,ls),
(74,725,o),
(61,714,o),
(60,700,cs),
(59,686,o),
(70,675,o),
(84,675,cs),
(625,675,ls),
(638,675,o),
(651,686,o),
(652,700,cs),
(653,714,o),
(642,725,o),
(629,725,cs)
);
},
{
closed = 1;
nodes = (
(1014,0,o),
(1354,313,o),
(1388,700,cs),
(1422,1087,o),
(1136,1400,o),
(749,1400,cs),
(353,1400,ls),
(339,1400,o),
(328,1389,o),
(326,1375,cs),
(325,1361,o),
(335,1350,o),
(349,1350,cs),
(745,1350,ls),
(1104,1350,o),
(1370,1059,o),
(1338,700,cs),
(1307,341,o),
(990,50,o),
(631,50,cs),
(617,50,o),
(605,39,o),
(604,25,cs),
(603,11,o),
(613,0,o),
(627,0,cs)
);
}
);
width = 1391;
},
{
anchors = (
{
name = bottom;
pos = (722,0);
},
{
name = center;
pos = (783,700);
},
{
name = top;
pos = (784,1400);
}
);
layerId = "19FA402B-9607-46D9-AAD6-815AECBA5B6B";
shapes = (
{
closed = 1;
nodes = (
(184,60,ls),
(181,27,o),
(206,0,o),
(239,0,cs),
(272,0,o),
(301,27,o),
(304,60,cs),
(337,437,ls),
(340,470,o),
(315,497,o),
(282,497,cs),
(249,497,o),
(220,470,o),
(217,437,cs)
);
},
{
closed = 1;
nodes = (
(126,760,ls),
(93,760,o),
(64,733,o),
(61,700,cs),
(58,667,o),
(83,640,o),
(116,640,cs),
(594,640,ls),
(627,640,o),
(656,667,o),
(659,700,cs),
(662,733,o),
(637,760,o),
(604,760,cs)
);
},
{
closed = 1;
nodes = (
(990,0,o),
(1331,314,o),
(1365,700,cs),
(1399,1086,o),
(1112,1400,o),
(726,1400,cs),
(361,1400,ls),
(328,1400,o),
(299,1373,o),
(296,1340,cs),
(293,1307,o),
(318,1280,o),
(351,1280,cs),
(716,1280,ls),
(1036,1280,o),
(1273,1020,o),
(1245,700,cs),
(1217,380,o),
(934,120,o),
(614,120,cs),
(581,120,o),
(552,93,o),
(549,60,cs),
(546,27,o),
(571,0,o),
(604,0,cs)
);
}
);
width = 1384;
},
{
anchors = (
{
name = bottom;
pos = (660,0);
},
{
name = center;
pos = (853,700);
},
{
name = top;
pos = (882,1400);
}
);
layerId = "FF87E3F2-B049-41CB-BF2F-09DB15105515";
shapes = (
{
closed = 1;
nodes = (
(187,150,ls),
(180,67,o),
(241,0,o),
(324,0,cs),
(407,0,o),
(480,67,o),
(487,150,cs),
(499,286,ls),
(506,369,o),
(445,436,o),
(362,436,cs),
(279,436,o),
(206,369,o),
(199,286,cs)
);
},
{
closed = 1;
nodes = (
(224,850,ls),
(141,850,o),
(69,783,o),
(61,700,cs),
(54,617,o),
(115,550,o),
(198,550,cs),
(514,550,ls),
(597,550,o),
(670,617,o),
(677,700,cs),
(685,783,o),
(623,850,o),
(540,850,cs)
);
},
{
closed = 1;
nodes = (
(1140,0,o),
(1481,313,o),
(1515,701,cs),
(1549,1087,o),
(1262,1400,o),
(876,1400,cs),
(431,1400,ls),
(348,1400,o),
(276,1333,o),
(268,1250,cs),
(261,1167,o),
(322,1100,o),
(405,1100,cs),
(850,1100,ls),
(1070,1100,o),
(1235,921,o),
(1215,701,cs),
(1196,479,o),
(1000,300,o),
(780,300,cs),
(697,300,o),
(624,233,o),
(617,150,cs),
(610,67,o),
(671,0,o),
(754,0,cs)
);
}
);
width = 1554;
}
);
unicode = (272,273);
},
{
color = 4;
glyphname = E;
kernLeft = I;
kernRight = E;
lastChange = "2022-06-05 20:10:17 +0000";
layers = (
{
anchors = (
{
name = bottom;
pos = (488,0);
},
{
name = ogonek;
pos = (906,1);
},
{
name = top;
pos = (610,1400);
},
{
name = topleft;
pos = (117,1400);
}
);
layerId = m01;
shapes = (
{
closed = 1;
nodes = (
(199,736,ls),
(201,749,o),
(191,761,o),
(177,761,cs),
(163,761,o),
(151,749,o),
(149,736,cs),
(87,28,l),
(137,28,l)
);
},
{
closed = 1;
nodes = (
(114,50,ls),
(100,50,o),
(88,39,o),
(87,25,cs),
(86,11,o),
(96,0,o),
(110,0,cs),
(906,0,ls),
(919,0,o),
(932,11,o),
(933,25,cs),
(934,39,o),
(923,50,o),
(910,50,cs)
);
},
{
closed = 1;
nodes = (
(965,675,ls),
(978,675,o),
(991,686,o),
(992,700,cs),
(993,714,o),
(982,725,o),
(969,725,cs),
(469,725,ls),
(455,725,o),
(443,714,o),
(442,700,cs),
(441,686,o),
(451,675,o),
(465,675,cs)
);
},
{
closed = 1;
nodes = (
(1024,1350,ls),
(1037,1350,o),
(1050,1361,o),
(1051,1375,cs),
(1053,1389,o),
(1041,1400,o),
(1028,1400,cs),
(232,1400,ls),
(218,1400,o),
(207,1389,o),
(205,1375,cs),
(204,1361,o),
(214,1350,o),
(228,1350,cs)
);
}
);
width = 1001;
},
{
anchors = (
{
name = bottom;
pos = (497,0);
},
{
name = ogonek;
pos = (925,0);
},
{
name = top;
pos = (639,1400);
},
{
name = topleft;
pos = (142,1400);
}
);
layerId = "19FA402B-9607-46D9-AAD6-815AECBA5B6B";
name = Regular;
shapes = (
{
closed = 1;
nodes = (
(282,706,ls),
(285,739,o),
(260,766,o),
(227,766,cs),
(194,766,o),
(165,739,o),
(162,706,cs),
(105,60,l),
(225,60,l)
);
},
{
closed = 1;
nodes = (
(170,120,ls),
(137,120,o),
(108,93,o),
(105,60,cs),
(102,27,o),
(127,0,o),
(160,0,cs),
(924,0,ls),
(957,0,o),
(986,27,o),
(989,60,cs),
(992,93,o),
(967,120,o),
(934,120,cs)
);
},
{
closed = 1;
nodes = (
(980,640,ls),
(1013,640,o),
(1042,667,o),
(1045,700,cs),
(1048,733,o),
(1023,760,o),
(990,760,cs),
(553,760,ls),
(520,760,o),
(491,733,o),
(488,700,cs),
(485,667,o),
(510,640,o),
(543,640,cs)
);
},
{
closed = 1;
nodes = (
(1036,1280,ls),
(1069,1280,o),
(1098,1307,o),
(1101,1340,cs),
(1104,1373,o),
(1079,1400,o),
(1046,1400,cs),
(282,1400,ls),
(249,1400,o),
(220,1373,o),
(217,1340,cs),
(214,1307,o),
(239,1280,o),
(272,1280,cs)
);
}
);
width = 1064;
},
{
anchors = (
{
name = bottom;
pos = (587,0);
},
{
name = ogonek;
pos = (929,0);
},
{
name = top;
pos = (709,1400);
},
{
name = topleft;
pos = (102,1400);
}
);
layerId = "FF87E3F2-B049-41CB-BF2F-09DB15105515";
shapes = (
{
closed = 1;
nodes = (
(472,705,ls),
(479,788,o),
(418,855,o),
(335,855,cs),
(252,855,o),
(179,788,o),
(172,705,cs),
(122,140,l),
(422,140,l)
);
},
{
closed = 1;
nodes = (
(286,300,ls),
(203,300,o),
(130,233,o),
(123,150,cs),
(116,67,o),
(177,0,o),
(260,0,cs),
(943,0,ls),
(1026,0,o),
(1099,67,o),
(1106,150,cs),
(1113,233,o),
(1052,300,o),
(969,300,cs)
);
},
{
closed = 1;
nodes = (
(991,550,ls),
(1074,550,o),
(1147,617,o),
(1154,700,cs),
(1162,783,o),
(1100,850,o),
(1017,850,cs),
(752,850,ls),
(669,850,o),
(597,783,o),
(589,700,cs),
(582,617,o),
(643,550,o),
(726,550,cs)
);
},
{
closed = 1;
nodes = (
(1039,1100,ls),
(1122,1100,o),
(1195,1167,o),
(1202,1250,cs),
(1210,1333,o),
(1148,1400,o),
(1065,1400,cs),
(382,1400,ls),
(299,1400,o),
(227,1333,o),
(219,1250,cs),
(212,1167,o),
(273,1100,o),
(356,1100,cs)
);
}
);
width = 1195;
}
);
metricLeft = H;
unicode = (69,101);
},
{
color = 5;
glyphname = Eacute;
kernLeft = I;
kernRight = E;
lastChange = "2022-06-05 20:10:17 +0000";
layers = (
{
anchors = (
{
name = bottom;
pos = (488,0);
},
{
name = ogonek;
pos = (906,1);
},
{
name = top;
pos = (649,1839);
},
{
name = topleft;
pos = (117,1400);
}
);
layerId = m01;
shapes = (
{
closed = 1;
nodes = (
(199,736,ls),
(201,749,o),
(191,761,o),
(177,761,cs),
(163,761,o),
(151,749,o),
(149,736,cs),
(87,28,l),
(137,28,l)
);
},
{
closed = 1;
nodes = (
(114,50,ls),
(100,50,o),
(88,39,o),
(87,25,cs),
(86,11,o),
(96,0,o),
(110,0,cs),
(906,0,ls),
(919,0,o),
(932,11,o),
(933,25,cs),
(934,39,o),
(923,50,o),
(910,50,cs)
);
},
{
closed = 1;
nodes = (
(965,675,ls),
(978,675,o),
(991,686,o),
(992,700,cs),
(993,714,o),
(982,725,o),
(969,725,cs),
(469,725,ls),
(455,725,o),
(443,714,o),
(442,700,cs),
(441,686,o),
(451,675,o),
(465,675,cs)
);
},
{
closed = 1;
nodes = (
(1024,1350,ls),
(1037,1350,o),
(1050,1361,o),
(1051,1375,cs),
(1053,1389,o),
(1041,1400,o),
(1028,1400,cs),
(232,1400,ls),
(218,1400,o),
(207,1389,o),
(205,1375,cs),
(204,1361,o),
(214,1350,o),
(228,1350,cs)
);
},
{
closed = 1;
nodes = (
(969,1802,ls),
(974,1806,o),
(978,1812,o),
(978,1818,cs),
(979,1830,o),
(971,1839,o),
(959,1839,cs),
(954,1839,o),
(950,1838,o),
(946,1835,cs),
(630,1605,ls),
(625,1601,o),
(622,1595,o),
(621,1589,cs),
(620,1577,o),
(628,1568,o),
(640,1568,cs),
(645,1568,o),
(649,1569,o),
(654,1572,cs)
);
}
);
width = 1001;
},
{
anchors = (
{
name = bottom;
pos = (497,0);
},
{
name = ogonek;
pos = (925,0);
},
{
name = top;
pos = (677,1830);
},
{
name = topleft;
pos = (142,1400);
}
);
layerId = "19FA402B-9607-46D9-AAD6-815AECBA5B6B";
shapes = (
{
closed = 1;
nodes = (
(282,706,ls),
(285,739,o),
(260,766,o),
(227,766,cs),
(194,766,o),
(165,739,o),
(162,706,cs),
(105,60,l),
(225,60,l)
);
},
{
closed = 1;
nodes = (
(170,120,ls),
(137,120,o),
(108,93,o),
(105,60,cs),
(102,27,o),
(127,0,o),
(160,0,cs),
(924,0,ls),
(957,0,o),
(986,27,o),
(989,60,cs),
(992,93,o),
(967,120,o),
(934,120,cs)
);
},
{
closed = 1;
nodes = (
(980,640,ls),
(1013,640,o),
(1042,667,o),
(1045,700,cs),
(1048,733,o),
(1023,760,o),
(990,760,cs),
(553,760,ls),
(520,760,o),
(491,733,o),
(488,700,cs),
(485,667,o),
(510,640,o),
(543,640,cs)
);
},
{
closed = 1;
nodes = (
(1036,1280,ls),
(1069,1280,o),
(1098,1307,o),
(1101,1340,cs),
(1104,1373,o),
(1079,1400,o),
(1046,1400,cs),
(282,1400,ls),
(249,1400,o),
(220,1373,o),
(217,1340,cs),
(214,1307,o),
(239,1280,o),
(272,1280,cs)
);
},
{
closed = 1;
nodes = (
(987,1764,ls),
(1001,1773,o),
(1010,1787,o),
(1012,1804,cs),
(1014,1832,o),
(994,1854,o),
(966,1854,cs),
(955,1854,o),
(945,1851,o),
(936,1845,cs),
(633,1643,ls),
(619,1634,o),
(610,1620,o),
(608,1603,cs),
(606,1575,o),
(626,1553,o),
(654,1553,cs),
(665,1553,o),
(675,1556,o),
(684,1562,cs)
);
}
);
width = 1064;
},
{
anchors = (
{
name = bottom;
pos = (587,0);
},
{
name = ogonek;
pos = (929,0);
},
{
name = top;
pos = (752,1890);
},
{
name = topleft;
pos = (102,1400);
}
);
layerId = "FF87E3F2-B049-41CB-BF2F-09DB15105515";
shapes = (
{
closed = 1;
nodes = (
(472,705,ls),
(479,788,o),
(418,855,o),
(335,855,cs),
(252,855,o),
(179,788,o),
(172,705,cs),
(122,140,l),
(422,140,l)
);
},
{
closed = 1;
nodes = (
(286,300,ls),
(203,300,o),
(130,233,o),
(123,150,cs),
(116,67,o),
(177,0,o),
(260,0,cs),
(943,0,ls),
(1026,0,o),
(1099,67,o),
(1106,150,cs),
(1113,233,o),
(1052,300,o),
(969,300,cs)
);
},
{
closed = 1;
nodes = (
(991,550,ls),
(1074,550,o),
(1147,617,o),
(1154,700,cs),
(1162,783,o),
(1100,850,o),
(1017,850,cs),
(752,850,ls),
(669,850,o),
(597,783,o),
(589,700,cs),
(582,617,o),
(643,550,o),
(726,550,cs)
);
},
{
closed = 1;
nodes = (
(1039,1100,ls),
(1122,1100,o),
(1195,1167,o),
(1202,1250,cs),
(1210,1333,o),
(1148,1400,o),
(1065,1400,cs),
(382,1400,ls),
(299,1400,o),
(227,1333,o),
(219,1250,cs),
(212,1167,o),
(273,1100,o),
(356,1100,cs)
);
},
{
closed = 1;
nodes = (
(1062,1698,ls),
(1089,1716,o),
(1109,1746,o),
(1112,1780,cs),
(1117,1835,o),
(1075,1880,o),
(1020,1880,cs),
(999,1880,o),
(980,1874,o),
(963,1863,cs),
(719,1709,ls),
(691,1691,o),
(671,1661,o),
(668,1627,cs),
(664,1572,o),
(705,1527,o),
(760,1527,cs),
(781,1527,o),
(800,1533,o),
(817,1544,cs)
);
}
);
width = 1195;
}
);
unicode = (201,233);
},
{
color = 5;
glyphname = Ecaron;
kernLeft = I;
kernRight = E;
lastChange = "2022-06-05 20:10:17 +0000";
layers = (
{
anchors = (
{
name = bottom;
pos = (488,0);
},
{
name = ogonek;
pos = (906,1);
},
{
name = top;
pos = (647,1819);
},
{
name = topleft;
pos = (117,1400);
}
);
layerId = m01;
shapes = (
{
closed = 1;
nodes = (
(199,736,ls),
(201,749,o),
(191,761,o),
(177,761,cs),
(163,761,o),
(151,749,o),
(149,736,cs),
(87,28,l),
(137,28,l)
);
},
{
closed = 1;
nodes = (
(114,50,ls),
(100,50,o),
(88,39,o),
(87,25,cs),
(86,11,o),
(96,0,o),
(110,0,cs),
(906,0,ls),
(919,0,o),
(932,11,o),
(933,25,cs),
(934,39,o),
(923,50,o),
(910,50,cs)
);
},
{
closed = 1;
nodes = (
(965,675,ls),
(978,675,o),
(991,686,o),
(992,700,cs),
(993,714,o),
(982,725,o),
(969,725,cs),
(469,725,ls),
(455,725,o),
(443,714,o),
(442,700,cs),
(441,686,o),
(451,675,o),
(465,675,cs)
);
},
{
closed = 1;
nodes = (
(1024,1350,ls),
(1037,1350,o),
(1050,1361,o),
(1051,1375,cs),
(1053,1389,o),
(1041,1400,o),
(1028,1400,cs),
(232,1400,ls),
(218,1400,o),
(207,1389,o),
(205,1375,cs),
(204,1361,o),
(214,1350,o),
(228,1350,cs)
);
},
{
closed = 1;
nodes = (
(612,1575,ls),
(615,1571,o),
(620,1569,o),
(625,1569,cs),
(637,1569,o),
(647,1578,o),
(648,1590,cs),
(649,1596,o),
(647,1601,o),
(643,1605,cs),
(439,1813,ls),
(435,1817,o),
(430,1819,o),
(425,1819,cs),
(413,1819,o),
(403,1810,o),
(402,1798,cs),
(402,1792,o),
(403,1787,o),
(407,1783,cs)
);
},
{
closed = 1;
nodes = (
(630,1619,ls),
(625,1615,o),
(623,1610,o),
(622,1604,cs),
(621,1592,o),
(629,1583,o),
(641,1583,cs),
(646,1583,o),
(652,1585,o),
(656,1589,cs),
(893,1796,l),
(868,1826,l)
);
}
);
width = 1001;
},
{
anchors = (
{
name = bottom;
pos = (497,0);
},
{
name = ogonek;
pos = (925,0);
},
{
name = top;
pos = (677,1830);
},
{
name = topleft;
pos = (142,1400);
}
);
layerId = "19FA402B-9607-46D9-AAD6-815AECBA5B6B";
shapes = (
{
closed = 1;
nodes = (
(282,706,ls),
(285,739,o),
(260,766,o),
(227,766,cs),
(194,766,o),
(165,739,o),
(162,706,cs),
(105,60,l),
(225,60,l)
);
},
{
closed = 1;
nodes = (
(170,120,ls),
(137,120,o),
(108,93,o),
(105,60,cs),
(102,27,o),
(127,0,o),
(160,0,cs),
(924,0,ls),
(957,0,o),
(986,27,o),
(989,60,cs),
(992,93,o),
(967,120,o),
(934,120,cs)
);
},
{
closed = 1;
nodes = (
(980,640,ls),
(1013,640,o),
(1042,667,o),
(1045,700,cs),
(1048,733,o),
(1023,760,o),
(990,760,cs),
(553,760,ls),
(520,760,o),
(491,733,o),
(488,700,cs),
(485,667,o),
(510,640,o),
(543,640,cs)
);
},
{
closed = 1;
nodes = (
(1036,1280,ls),
(1069,1280,o),
(1098,1307,o),
(1101,1340,cs),
(1104,1373,o),
(1079,1400,o),
(1046,1400,cs),
(282,1400,ls),
(249,1400,o),
(220,1373,o),
(217,1340,cs),
(214,1307,o),
(239,1280,o),
(272,1280,cs)
);
},
{
closed = 1;
nodes = (
(620,1572,ls),
(628,1563,o),
(639,1558,o),
(652,1558,cs),
(680,1558,o),
(704,1580,o),
(707,1608,cs),
(708,1622,o),
(703,1635,o),
(695,1644,cs),
(510,1835,ls),
(501,1844,o),
(490,1849,o),
(477,1849,cs),
(449,1849,o),
(425,1827,o),
(422,1799,cs),
(421,1785,o),
(426,1772,o),
(434,1763,cs)
);
},
{
closed = 1;
nodes = (
(664,1677,ls),
(654,1668,o),
(647,1655,o),
(646,1641,cs),
(643,1613,o),
(663,1591,o),
(691,1591,cs),
(704,1591,o),
(717,1596,o),
(726,1605,cs),
(943,1794,l),
(881,1866,l)
);
}
);
width = 1064;
},
{
anchors = (
{
name = bottom;
pos = (587,0);
},
{
name = ogonek;
pos = (929,0);
},
{
name = top;
pos = (752,1890);
},
{
name = topleft;
pos = (102,1400);
}
);
layerId = "FF87E3F2-B049-41CB-BF2F-09DB15105515";
shapes = (
{
closed = 1;
nodes = (
(472,705,ls),
(479,788,o),
(418,855,o),
(335,855,cs),
(252,855,o),
(179,788,o),
(172,705,cs),
(122,140,l),
(422,140,l)
);
},
{
closed = 1;
nodes = (
(286,300,ls),
(203,300,o),
(130,233,o),
(123,150,cs),
(116,67,o),
(177,0,o),
(260,0,cs),
(943,0,ls),
(1026,0,o),
(1099,67,o),
(1106,150,cs),
(1113,233,o),
(1052,300,o),
(969,300,cs)
);
},
{
closed = 1;
nodes = (
(991,550,ls),
(1074,550,o),
(1147,617,o),
(1154,700,cs),
(1162,783,o),
(1100,850,o),
(1017,850,cs),
(752,850,ls),
(669,850,o),
(597,783,o),
(589,700,cs),
(582,617,o),
(643,550,o),
(726,550,cs)
);
},
{
closed = 1;
nodes = (
(1039,1100,ls),
(1122,1100,o),
(1195,1167,o),
(1202,1250,cs),
(1210,1333,o),
(1148,1400,o),
(1065,1400,cs),
(382,1400,ls),
(299,1400,o),
(227,1333,o),
(219,1250,cs),
(212,1167,o),
(273,1100,o),
(356,1100,cs)
);
},
{
closed = 1;
nodes = (
(666,1544,ls),
(681,1533,o),
(700,1527,o),
(721,1527,cs),
(776,1527,o),
(825,1572,o),
(829,1627,cs),
(832,1661,o),
(818,1691,o),
(794,1709,cs),
(576,1863,ls),
(561,1874,o),
(542,1880,o),
(521,1880,cs),
(466,1880,o),
(418,1835,o),
(413,1780,cs),
(410,1746,o),
(424,1716,o),
(449,1698,cs)
);
},
{
closed = 1;
nodes = (
(758,1758,ls),
(730,1740,o),
(711,1710,o),
(708,1676,cs),
(703,1621,o),
(744,1576,o),
(799,1576,cs),
(820,1576,o),
(839,1582,o),
(857,1593,cs),
(1100,1747,l),
(1004,1913,l)
);
}
);
width = 1195;
}
);
unicode = (282,283);
},
{
color = 5;
glyphname = Ecircumflex;
kernLeft = I;
kernRight = E;
lastChange = "2022-06-05 20:10:17 +0000";
layers = (
{
anchors = (
{
name = bottom;
pos = (488,0);
},
{
name = ogonek;
pos = (906,1);
},
{
name = top;
pos = (647,1819);
},
{
name = top_viet;
pos = (846,1594);
},
{
name = top_viet_grave;
pos = (1064,1577);
},
{
name = topleft;
pos = (117,1400);
}
);
layerId = m01;
shapes = (
{
closed = 1;
nodes = (
(199,736,ls),
(201,749,o),
(191,761,o),
(177,761,cs),
(163,761,o),
(151,749,o),
(149,736,cs),
(87,28,l),
(137,28,l)
);
},
{
closed = 1;
nodes = (
(114,50,ls),
(100,50,o),
(88,39,o),
(87,25,cs),
(86,11,o),
(96,0,o),
(110,0,cs),
(906,0,ls),
(919,0,o),
(932,11,o),
(933,25,cs),
(934,39,o),
(923,50,o),
(910,50,cs)
);
},
{
closed = 1;
nodes = (
(965,675,ls),
(978,675,o),
(991,686,o),
(992,700,cs),
(993,714,o),
(982,725,o),
(969,725,cs),
(469,725,ls),
(455,725,o),
(443,714,o),
(442,700,cs),
(441,686,o),
(451,675,o),
(465,675,cs)
);
},
{
closed = 1;
nodes = (
(1024,1350,ls),
(1037,1350,o),
(1050,1361,o),
(1051,1375,cs),
(1053,1389,o),
(1041,1400,o),
(1028,1400,cs),
(232,1400,ls),
(218,1400,o),
(207,1389,o),
(205,1375,cs),
(204,1361,o),
(214,1350,o),
(228,1350,cs)
);
},
{
closed = 1;
nodes = (
(391,1605,ls),
(387,1601,o),
(385,1596,o),
(384,1590,cs),
(383,1578,o),
(391,1569,o),
(403,1569,cs),
(408,1569,o),
(413,1571,o),
(418,1575,cs),
(659,1783,ls),
(663,1787,o),
(666,1792,o),
(666,1798,cs),
(667,1810,o),
(659,1819,o),
(647,1819,cs),
(642,1819,o),
(637,1817,o),
(633,1813,cs)
);
},
{
closed = 1;
nodes = (
(832,1575,ls),
(835,1571,o),
(840,1569,o),
(845,1569,cs),
(857,1569,o),
(867,1578,o),
(868,1590,cs),
(869,1596,o),
(867,1601,o),
(863,1605,cs),
(662,1812,l),
(631,1782,l)
);
}
);
width = 1001;
},
{
anchors = (
{
name = bottom;
pos = (497,0);
},
{
name = ogonek;
pos = (925,0);
},
{
name = top;
pos = (679,1849);
},
{
name = top_viet;
pos = (875,1594);
},
{
name = top_viet_grave;
pos = (1038,1613);
},
{
name = topleft;
pos = (142,1400);
}
);
layerId = "19FA402B-9607-46D9-AAD6-815AECBA5B6B";
shapes = (
{
closed = 1;
nodes = (
(282,706,ls),
(285,739,o),
(260,766,o),
(227,766,cs),
(194,766,o),
(165,739,o),
(162,706,cs),
(105,60,l),
(225,60,l)
);
},
{
closed = 1;
nodes = (
(170,120,ls),
(137,120,o),
(108,93,o),
(105,60,cs),
(102,27,o),
(127,0,o),
(160,0,cs),
(924,0,ls),
(957,0,o),
(986,27,o),
(989,60,cs),
(992,93,o),
(967,120,o),
(934,120,cs)
);
},
{
closed = 1;
nodes = (
(980,640,ls),
(1013,640,o),
(1042,667,o),
(1045,700,cs),
(1048,733,o),
(1023,760,o),
(990,760,cs),
(553,760,ls),
(520,760,o),
(491,733,o),
(488,700,cs),
(485,667,o),
(510,640,o),
(543,640,cs)
);
},
{
closed = 1;
nodes = (
(1036,1280,ls),
(1069,1280,o),
(1098,1307,o),
(1101,1340,cs),
(1104,1373,o),
(1079,1400,o),
(1046,1400,cs),
(282,1400,ls),
(249,1400,o),
(220,1373,o),
(217,1340,cs),
(214,1307,o),
(239,1280,o),
(272,1280,cs)
);
},
{
closed = 1;
nodes = (
(424,1644,ls),
(414,1635,o),
(407,1622,o),
(406,1608,cs),
(403,1580,o),
(423,1558,o),
(451,1558,cs),
(464,1558,o),
(477,1563,o),
(487,1572,cs),
(705,1763,ls),
(715,1772,o),
(722,1785,o),
(723,1799,cs),
(726,1827,o),
(706,1849,o),
(678,1849,cs),
(665,1849,o),
(652,1844,o),
(643,1835,cs)
);
},
{
closed = 1;
nodes = (
(823,1572,ls),
(831,1563,o),
(842,1558,o),
(855,1558,cs),
(883,1558,o),
(907,1580,o),
(910,1608,cs),
(911,1622,o),
(906,1635,o),
(898,1644,cs),
(713,1833,l),
(639,1761,l)
);
}
);
width = 1064;
},
{
anchors = (
{
name = bottom;
pos = (587,0);
},
{
name = ogonek;
pos = (929,0);
},
{
name = top;
pos = (751,1880);
},
{
name = top_viet;
pos = (966,1651);
},
{
name = top_viet_grave;
pos = (1183,1640);
},
{
name = topleft;
pos = (102,1400);
}
);
layerId = "FF87E3F2-B049-41CB-BF2F-09DB15105515";
shapes = (
{
closed = 1;
nodes = (
(472,705,ls),
(479,788,o),
(418,855,o),
(335,855,cs),
(252,855,o),
(179,788,o),
(172,705,cs),
(122,140,l),
(422,140,l)
);
},
{
closed = 1;
nodes = (
(286,300,ls),
(203,300,o),
(130,233,o),
(123,150,cs),
(116,67,o),
(177,0,o),
(260,0,cs),
(943,0,ls),
(1026,0,o),
(1099,67,o),
(1106,150,cs),
(1113,233,o),
(1052,300,o),
(969,300,cs)
);
},
{
closed = 1;
nodes = (
(991,550,ls),
(1074,550,o),
(1147,617,o),
(1154,700,cs),
(1162,783,o),
(1100,850,o),
(1017,850,cs),
(752,850,ls),
(669,850,o),
(597,783,o),
(589,700,cs),
(582,617,o),
(643,550,o),
(726,550,cs)
);
},
{
closed = 1;
nodes = (
(1039,1100,ls),
(1122,1100,o),
(1195,1167,o),
(1202,1250,cs),
(1210,1333,o),
(1148,1400,o),
(1065,1400,cs),
(382,1400,ls),
(299,1400,o),
(227,1333,o),
(219,1250,cs),
(212,1167,o),
(273,1100,o),
(356,1100,cs)
);
},
{
closed = 1;
nodes = (
(450,1709,ls),
(422,1691,o),
(402,1661,o),
(399,1627,cs),
(395,1572,o),
(436,1527,o),
(491,1527,cs),
(512,1527,o),
(531,1533,o),
(548,1544,cs),
(793,1698,ls),
(820,1716,o),
(840,1746,o),
(843,1780,cs),
(848,1835,o),
(806,1880,o),
(751,1880,cs),
(730,1880,o),
(711,1874,o),
(694,1863,cs)
);
},
{
closed = 1;
nodes = (
(895,1544,ls),
(911,1533,o),
(930,1527,o),
(951,1527,cs),
(1006,1527,o),
(1055,1572,o),
(1059,1627,cs),
(1062,1661,o),
(1048,1691,o),
(1024,1709,cs),
(804,1864,l),
(680,1698,l)
);
}
);
width = 1195;
}
);
unicode = (202,234);
},
{
color = 5;
glyphname = Ecircumflexacute;
kernLeft = I;
kernRight = E;
lastChange = "2022-06-05 20:10:17 +0000";
layers = (
{
anchors = (
{
name = bottom;
pos = (488,0);
},
{
name = ogonek;
pos = (906,1);
},
{
name = top;
pos = (885,2033);
},
{
name = top_viet;
pos = (846,1594);
},
{
name = top_viet_grave;
pos = (1064,1577);
},
{
name = topleft;
pos = (117,1400);
}
);
layerId = m01;
shapes = (
{
closed = 1;
nodes = (
(199,736,ls),
(201,749,o),
(191,761,o),
(177,761,cs),
(163,761,o),
(151,749,o),
(149,736,cs),
(87,28,l),
(137,28,l)
);
},
{
closed = 1;
nodes = (
(114,50,ls),
(100,50,o),
(88,39,o),
(87,25,cs),
(86,11,o),
(96,0,o),
(110,0,cs),
(906,0,ls),
(919,0,o),
(932,11,o),
(933,25,cs),
(934,39,o),
(923,50,o),
(910,50,cs)
);
},
{
closed = 1;
nodes = (
(965,675,ls),
(978,675,o),
(991,686,o),
(992,700,cs),
(993,714,o),
(982,725,o),
(969,725,cs),
(469,725,ls),
(455,725,o),
(443,714,o),
(442,700,cs),
(441,686,o),
(451,675,o),
(465,675,cs)
);
},
{
closed = 1;
nodes = (
(1024,1350,ls),
(1037,1350,o),
(1050,1361,o),
(1051,1375,cs),
(1053,1389,o),
(1041,1400,o),
(1028,1400,cs),
(232,1400,ls),
(218,1400,o),
(207,1389,o),
(205,1375,cs),
(204,1361,o),
(214,1350,o),
(228,1350,cs)
);
},
{
closed = 1;
nodes = (
(391,1605,ls),
(387,1601,o),
(385,1596,o),
(384,1590,cs),
(383,1578,o),
(391,1569,o),
(403,1569,cs),
(408,1569,o),
(413,1571,o),
(418,1575,cs),
(659,1783,ls),
(663,1787,o),
(666,1792,o),
(666,1798,cs),
(667,1810,o),
(659,1819,o),
(647,1819,cs),
(642,1819,o),
(637,1817,o),
(633,1813,cs)
);
},
{
closed = 1;
nodes = (
(832,1575,ls),
(835,1571,o),
(840,1569,o),
(845,1569,cs),
(857,1569,o),
(867,1578,o),
(868,1590,cs),
(869,1596,o),
(867,1601,o),
(863,1605,cs),
(662,1812,l),
(631,1782,l)
);
},
{
closed = 1;
nodes = (
(1205,1996,ls),
(1210,2000,o),
(1214,2006,o),
(1214,2012,cs),
(1215,2024,o),
(1207,2033,o),
(1195,2033,cs),
(1190,2033,o),
(1186,2032,o),
(1182,2029,cs),
(866,1799,ls),
(861,1795,o),
(858,1789,o),
(857,1783,cs),
(856,1771,o),
(864,1762,o),
(876,1762,cs),
(881,1762,o),
(885,1763,o),
(890,1766,cs)
);
}
);
width = 1001;
},
{
anchors = (
{
name = bottom;
pos = (497,0);
},
{
name = ogonek;
pos = (925,0);
},
{
name = top;
pos = (913,2024);
},
{
name = top_viet;
pos = (875,1594);
},
{
name = top_viet_grave;
pos = (1038,1613);
},
{
name = topleft;
pos = (142,1400);
}
);
layerId = "19FA402B-9607-46D9-AAD6-815AECBA5B6B";
shapes = (
{
closed = 1;
nodes = (
(282,706,ls),
(285,739,o),
(260,766,o),
(227,766,cs),
(194,766,o),
(165,739,o),
(162,706,cs),
(105,60,l),
(225,60,l)
);
},
{
closed = 1;
nodes = (
(170,120,ls),
(137,120,o),
(108,93,o),
(105,60,cs),
(102,27,o),
(127,0,o),
(160,0,cs),
(924,0,ls),
(957,0,o),
(986,27,o),
(989,60,cs),
(992,93,o),
(967,120,o),
(934,120,cs)
);
},
{
closed = 1;
nodes = (
(980,640,ls),
(1013,640,o),
(1042,667,o),
(1045,700,cs),
(1048,733,o),
(1023,760,o),
(990,760,cs),
(553,760,ls),
(520,760,o),
(491,733,o),
(488,700,cs),
(485,667,o),
(510,640,o),
(543,640,cs)
);
},
{
closed = 1;
nodes = (
(1036,1280,ls),
(1069,1280,o),
(1098,1307,o),
(1101,1340,cs),
(1104,1373,o),
(1079,1400,o),
(1046,1400,cs),
(282,1400,ls),
(249,1400,o),
(220,1373,o),
(217,1340,cs),
(214,1307,o),
(239,1280,o),
(272,1280,cs)
);
},
{
closed = 1;
nodes = (
(424,1644,ls),
(414,1635,o),
(407,1622,o),
(406,1608,cs),
(403,1580,o),
(423,1558,o),
(451,1558,cs),
(464,1558,o),
(477,1563,o),
(487,1572,cs),
(705,1763,ls),
(715,1772,o),
(722,1785,o),
(723,1799,cs),
(726,1827,o),
(706,1849,o),
(678,1849,cs),
(665,1849,o),
(652,1844,o),
(643,1835,cs)
);
},
{
closed = 1;
nodes = (
(823,1572,ls),
(831,1563,o),
(842,1558,o),
(855,1558,cs),
(883,1558,o),
(907,1580,o),
(910,1608,cs),
(911,1622,o),
(906,1635,o),
(898,1644,cs),
(713,1833,l),
(639,1761,l)
);
},
{
closed = 1;
nodes = (
(1223,1958,ls),
(1237,1967,o),
(1246,1981,o),
(1248,1998,cs),
(1250,2026,o),
(1230,2048,o),
(1202,2048,cs),
(1191,2048,o),
(1181,2045,o),
(1172,2039,cs),
(869,1837,ls),
(855,1828,o),
(846,1814,o),
(844,1797,cs),
(842,1769,o),
(862,1747,o),
(890,1747,cs),
(901,1747,o),
(911,1750,o),
(920,1756,cs)
);
}
);
width = 1064;
},
{
anchors = (
{
name = bottom;
pos = (587,0);
},
{
name = ogonek;
pos = (929,0);
},
{
name = top;
pos = (1009,2141);
},
{
name = top_viet;
pos = (966,1651);
},
{
name = top_viet_grave;
pos = (1183,1640);
},
{
name = topleft;
pos = (102,1400);
}
);
layerId = "FF87E3F2-B049-41CB-BF2F-09DB15105515";
shapes = (
{
closed = 1;
nodes = (
(472,705,ls),
(479,788,o),
(418,855,o),
(335,855,cs),
(252,855,o),
(179,788,o),
(172,705,cs),
(122,140,l),
(422,140,l)
);
},
{
closed = 1;
nodes = (
(286,300,ls),
(203,300,o),
(130,233,o),
(123,150,cs),
(116,67,o),
(177,0,o),
(260,0,cs),
(943,0,ls),
(1026,0,o),
(1099,67,o),
(1106,150,cs),
(1113,233,o),
(1052,300,o),
(969,300,cs)
);
},
{
closed = 1;
nodes = (
(991,550,ls),
(1074,550,o),
(1147,617,o),
(1154,700,cs),
(1162,783,o),
(1100,850,o),
(1017,850,cs),
(752,850,ls),
(669,850,o),
(597,783,o),
(589,700,cs),
(582,617,o),
(643,550,o),
(726,550,cs)
);
},
{
closed = 1;
nodes = (
(1039,1100,ls),
(1122,1100,o),
(1195,1167,o),
(1202,1250,cs),
(1210,1333,o),
(1148,1400,o),
(1065,1400,cs),
(382,1400,ls),
(299,1400,o),
(227,1333,o),
(219,1250,cs),
(212,1167,o),
(273,1100,o),
(356,1100,cs)
);
},
{
closed = 1;
nodes = (
(450,1709,ls),
(422,1691,o),
(402,1661,o),
(399,1627,cs),
(395,1572,o),
(436,1527,o),
(491,1527,cs),
(512,1527,o),
(531,1533,o),
(548,1544,cs),
(793,1698,ls),
(820,1716,o),
(840,1746,o),
(843,1780,cs),
(848,1835,o),
(806,1880,o),
(751,1880,cs),
(730,1880,o),
(711,1874,o),
(694,1863,cs)
);
},
{
closed = 1;
nodes = (
(895,1544,ls),
(911,1533,o),
(930,1527,o),
(951,1527,cs),
(1006,1527,o),
(1055,1572,o),
(1059,1627,cs),
(1062,1661,o),
(1048,1691,o),
(1024,1709,cs),
(804,1864,l),
(680,1698,l)
);
},
{
closed = 1;
nodes = (
(1319,1949,ls),
(1346,1967,o),
(1366,1997,o),
(1369,2031,cs),
(1374,2086,o),
(1332,2131,o),
(1277,2131,cs),
(1256,2131,o),
(1237,2125,o),
(1220,2114,cs),
(975,1960,ls),
(948,1942,o),
(928,1912,o),
(925,1878,cs),
(920,1823,o),
(962,1778,o),
(1017,1778,cs),
(1038,1778,o),
(1057,1784,o),
(1074,1795,cs)
);
}
);
width = 1195;
}
);
unicode = (7870,7871);
},
{
color = 5;
glyphname = Ecircumflexdotbelow;
kernLeft = I;
kernRight = E;
lastChange = "2022-06-05 20:10:17 +0000";
layers = (
{
anchors = (
{
name = bottom;
pos = (488,0);
},
{
name = ogonek;
pos = (906,1);
},
{
name = top;
pos = (647,1819);
},
{
name = top_viet;
pos = (846,1594);
},
{
name = top_viet_grave;
pos = (1064,1577);
},
{
name = topleft;
pos = (117,1400);
}
);
layerId = m01;
shapes = (
{
closed = 1;
nodes = (
(199,736,ls),
(201,749,o),
(191,761,o),
(177,761,cs),
(163,761,o),
(151,749,o),
(149,736,cs),
(87,28,l),
(137,28,l)
);
},
{
closed = 1;
nodes = (
(114,50,ls),
(100,50,o),
(88,39,o),
(87,25,cs),
(86,11,o),
(96,0,o),
(110,0,cs),
(906,0,ls),
(919,0,o),
(932,11,o),
(933,25,cs),
(934,39,o),
(923,50,o),
(910,50,cs)
);
},
{
closed = 1;
nodes = (
(965,675,ls),
(978,675,o),
(991,686,o),
(992,700,cs),
(993,714,o),
(982,725,o),
(969,725,cs),
(469,725,ls),
(455,725,o),
(443,714,o),
(442,700,cs),
(441,686,o),
(451,675,o),
(465,675,cs)
);
},
{
closed = 1;
nodes = (
(1024,1350,ls),
(1037,1350,o),
(1050,1361,o),
(1051,1375,cs),
(1053,1389,o),
(1041,1400,o),
(1028,1400,cs),
(232,1400,ls),
(218,1400,o),
(207,1389,o),
(205,1375,cs),
(204,1361,o),
(214,1350,o),
(228,1350,cs)
);
},
{
closed = 1;
nodes = (
(498,-206,o),
(513,-192,o),
(515,-176,cs),
(516,-160,o),
(503,-146,o),
(487,-146,cs),
(471,-146,o),
(456,-160,o),
(455,-176,cs),
(453,-192,o),
(466,-206,o),
(482,-206,cs)
);
},
{
closed = 1;
nodes = (
(391,1605,ls),
(387,1601,o),
(385,1596,o),
(384,1590,cs),
(383,1578,o),
(391,1569,o),
(403,1569,cs),
(408,1569,o),
(413,1571,o),
(418,1575,cs),
(659,1783,ls),
(663,1787,o),
(666,1792,o),
(666,1798,cs),
(667,1810,o),
(659,1819,o),
(647,1819,cs),
(642,1819,o),
(637,1817,o),
(633,1813,cs)
);
},
{
closed = 1;
nodes = (
(832,1575,ls),
(835,1571,o),
(840,1569,o),
(845,1569,cs),
(857,1569,o),
(867,1578,o),
(868,1590,cs),
(869,1596,o),
(867,1601,o),
(863,1605,cs),
(662,1812,l),
(631,1782,l)
);
}
);
width = 1001;
},
{
anchors = (
{
name = bottom;
pos = (497,0);
},
{
name = ogonek;
pos = (925,0);
},
{
name = top;
pos = (679,1849);
},
{
name = top_viet;
pos = (875,1594);
},
{
name = top_viet_grave;
pos = (1038,1613);
},
{
name = topleft;
pos = (142,1400);
}
);
layerId = "19FA402B-9607-46D9-AAD6-815AECBA5B6B";
shapes = (
{
closed = 1;
nodes = (
(282,706,ls),
(285,739,o),
(260,766,o),
(227,766,cs),
(194,766,o),
(165,739,o),
(162,706,cs),
(105,60,l),
(225,60,l)
);
},
{
closed = 1;
nodes = (
(170,120,ls),
(137,120,o),
(108,93,o),
(105,60,cs),
(102,27,o),
(127,0,o),
(160,0,cs),
(924,0,ls),
(957,0,o),
(986,27,o),
(989,60,cs),
(992,93,o),
(967,120,o),
(934,120,cs)
);
},
{
closed = 1;
nodes = (
(980,640,ls),
(1013,640,o),
(1042,667,o),
(1045,700,cs),
(1048,733,o),
(1023,760,o),
(990,760,cs),
(553,760,ls),
(520,760,o),
(491,733,o),
(488,700,cs),
(485,667,o),
(510,640,o),
(543,640,cs)
);
},
{
closed = 1;
nodes = (
(1036,1280,ls),
(1069,1280,o),
(1098,1307,o),
(1101,1340,cs),
(1104,1373,o),
(1079,1400,o),
(1046,1400,cs),
(282,1400,ls),
(249,1400,o),
(220,1373,o),
(217,1340,cs),
(214,1307,o),
(239,1280,o),
(272,1280,cs)
);
},
{
closed = 1;
nodes = (
(547,-296,o),
(584,-262,o),
(588,-221,cs),
(591,-180,o),
(560,-146,o),
(519,-146,cs),
(478,-146,o),
(441,-180,o),
(438,-221,cs),
(434,-262,o),
(465,-296,o),
(506,-296,cs)
);
},
{
closed = 1;
nodes = (
(424,1644,ls),
(414,1635,o),
(407,1622,o),
(406,1608,cs),
(403,1580,o),
(423,1558,o),
(451,1558,cs),
(464,1558,o),
(477,1563,o),
(487,1572,cs),
(705,1763,ls),
(715,1772,o),
(722,1785,o),
(723,1799,cs),
(726,1827,o),
(706,1849,o),
(678,1849,cs),
(665,1849,o),
(652,1844,o),
(643,1835,cs)
);
},
{
closed = 1;
nodes = (
(823,1572,ls),
(831,1563,o),
(842,1558,o),
(855,1558,cs),
(883,1558,o),
(907,1580,o),
(910,1608,cs),
(911,1622,o),
(906,1635,o),
(898,1644,cs),
(713,1833,l),
(639,1761,l)
);
}
);
width = 1064;
},
{
anchors = (
{
name = bottom;
pos = (587,0);
},
{
name = ogonek;
pos = (929,0);
},
{
name = top;
pos = (751,1880);
},
{
name = top_viet;
pos = (966,1651);
},
{
name = top_viet_grave;
pos = (1183,1640);
},
{
name = topleft;
pos = (102,1400);
}
);
layerId = "FF87E3F2-B049-41CB-BF2F-09DB15105515";
shapes = (
{
closed = 1;
nodes = (
(472,705,ls),
(479,788,o),
(418,855,o),
(335,855,cs),
(252,855,o),
(179,788,o),
(172,705,cs),
(122,140,l),
(422,140,l)
);
},
{
closed = 1;
nodes = (
(286,300,ls),
(203,300,o),
(130,233,o),
(123,150,cs),
(116,67,o),
(177,0,o),
(260,0,cs),
(943,0,ls),
(1026,0,o),
(1099,67,o),
(1106,150,cs),
(1113,233,o),
(1052,300,o),
(969,300,cs)
);
},
{
closed = 1;
nodes = (
(991,550,ls),
(1074,550,o),
(1147,617,o),
(1154,700,cs),
(1162,783,o),
(1100,850,o),
(1017,850,cs),
(752,850,ls),
(669,850,o),
(597,783,o),
(589,700,cs),
(582,617,o),
(643,550,o),
(726,550,cs)
);
},
{
closed = 1;
nodes = (
(1039,1100,ls),
(1122,1100,o),
(1195,1167,o),
(1202,1250,cs),
(1210,1333,o),
(1148,1400,o),
(1065,1400,cs),
(382,1400,ls),
(299,1400,o),
(227,1333,o),
(219,1250,cs),
(212,1167,o),
(273,1100,o),
(356,1100,cs)
);
},
{
closed = 1;
nodes = (
(627,-334,o),
(687,-279,o),
(692,-213,cs),
(698,-146,o),
(647,-91,o),
(581,-91,cs),
(515,-91,o),
(454,-146,o),
(448,-213,cs),
(443,-279,o),
(495,-334,o),
(561,-334,cs)
);
},
{
closed = 1;
nodes = (
(450,1709,ls),
(422,1691,o),
(402,1661,o),
(399,1627,cs),
(395,1572,o),
(436,1527,o),
(491,1527,cs),
(512,1527,o),
(531,1533,o),
(548,1544,cs),
(793,1698,ls),
(820,1716,o),
(840,1746,o),
(843,1780,cs),
(848,1835,o),
(806,1880,o),
(751,1880,cs),
(730,1880,o),
(711,1874,o),
(694,1863,cs)
);
},
{
closed = 1;
nodes = (
(895,1544,ls),
(911,1533,o),
(930,1527,o),
(951,1527,cs),
(1006,1527,o),
(1055,1572,o),
(1059,1627,cs),
(1062,1661,o),
(1048,1691,o),
(1024,1709,cs),
(804,1864,l),
(680,1698,l)
);
}
);
width = 1195;
}
);
unicode = (7878,7879);
},
{
color = 5;
glyphname = Ecircumflexgrave;
kernLeft = I;
kernRight = E;
lastChange = "2022-06-05 20:10:17 +0000";
layers = (
{
anchors = (
{
name = bottom;
pos = (488,0);
},
{
name = ogonek;
pos = (906,1);
},
{
name = top;
pos = (1102,2016);
},
{
name = top_viet;
pos = (846,1594);
},
{
name = top_viet_grave;
pos = (1064,1577);
},
{
name = topleft;
pos = (117,1400);
}
);
layerId = m01;
shapes = (
{
closed = 1;
nodes = (
(199,736,ls),
(201,749,o),
(191,761,o),
(177,761,cs),
(163,761,o),
(151,749,o),
(149,736,cs),
(87,28,l),
(137,28,l)
);
},
{
closed = 1;
nodes = (
(114,50,ls),
(100,50,o),
(88,39,o),
(87,25,cs),
(86,11,o),
(96,0,o),
(110,0,cs),
(906,0,ls),
(919,0,o),
(932,11,o),
(933,25,cs),
(934,39,o),
(923,50,o),
(910,50,cs)
);
},
{
closed = 1;
nodes = (
(965,675,ls),
(978,675,o),
(991,686,o),
(992,700,cs),
(993,714,o),
(982,725,o),
(969,725,cs),
(469,725,ls),
(455,725,o),
(443,714,o),
(442,700,cs),
(441,686,o),
(451,675,o),
(465,675,cs)
);
},
{
closed = 1;
nodes = (
(1024,1350,ls),
(1037,1350,o),
(1050,1361,o),
(1051,1375,cs),
(1053,1389,o),
(1041,1400,o),
(1028,1400,cs),
(232,1400,ls),
(218,1400,o),
(207,1389,o),
(205,1375,cs),
(204,1361,o),
(214,1350,o),
(228,1350,cs)
);
},
{
closed = 1;
nodes = (
(391,1605,ls),
(387,1601,o),
(385,1596,o),
(384,1590,cs),
(383,1578,o),
(391,1569,o),
(403,1569,cs),
(408,1569,o),
(413,1571,o),
(418,1575,cs),
(659,1783,ls),
(663,1787,o),
(666,1792,o),
(666,1798,cs),
(667,1810,o),
(659,1819,o),
(647,1819,cs),
(642,1819,o),
(637,1817,o),
(633,1813,cs)
);
},
{
closed = 1;
nodes = (
(832,1575,ls),
(835,1571,o),
(840,1569,o),
(845,1569,cs),
(857,1569,o),
(867,1578,o),
(868,1590,cs),
(869,1596,o),
(867,1601,o),
(863,1605,cs),
(662,1812,l),
(631,1782,l)
);
},
{
closed = 1;
nodes = (
(1052,1749,ls),
(1056,1746,o),
(1060,1745,o),
(1065,1745,cs),
(1077,1745,o),
(1086,1754,o),
(1088,1766,cs),
(1088,1772,o),
(1086,1778,o),
(1081,1782,cs),
(806,2012,ls),
(802,2015,o),
(798,2016,o),
(793,2016,cs),
(781,2016,o),
(772,2007,o),
(771,1995,cs),
(770,1989,o),
(772,1983,o),
(777,1979,cs)
);
}
);
width = 1001;
},
{
anchors = (
{
name = bottom;
pos = (497,0);
},
{
name = ogonek;
pos = (925,0);
},
{
name = top;
pos = (1076,2043);
},
{
name = top_viet;
pos = (875,1594);
},
{
name = top_viet_grave;
pos = (1038,1613);
},
{
name = topleft;
pos = (142,1400);
}
);
layerId = "19FA402B-9607-46D9-AAD6-815AECBA5B6B";
shapes = (
{
closed = 1;
nodes = (
(282,706,ls),
(285,739,o),
(260,766,o),
(227,766,cs),
(194,766,o),
(165,739,o),
(162,706,cs),
(105,60,l),
(225,60,l)
);
},
{
closed = 1;
nodes = (
(170,120,ls),
(137,120,o),
(108,93,o),
(105,60,cs),
(102,27,o),
(127,0,o),
(160,0,cs),
(924,0,ls),
(957,0,o),
(986,27,o),
(989,60,cs),
(992,93,o),
(967,120,o),
(934,120,cs)
);
},
{
closed = 1;
nodes = (
(980,640,ls),
(1013,640,o),
(1042,667,o),
(1045,700,cs),
(1048,733,o),
(1023,760,o),
(990,760,cs),
(553,760,ls),
(520,760,o),
(491,733,o),
(488,700,cs),
(485,667,o),
(510,640,o),
(543,640,cs)
);
},
{
closed = 1;
nodes = (
(1036,1280,ls),
(1069,1280,o),
(1098,1307,o),
(1101,1340,cs),
(1104,1373,o),
(1079,1400,o),
(1046,1400,cs),
(282,1400,ls),
(249,1400,o),
(220,1373,o),
(217,1340,cs),
(214,1307,o),
(239,1280,o),
(272,1280,cs)
);
},
{
closed = 1;
nodes = (
(424,1644,ls),
(414,1635,o),
(407,1622,o),
(406,1608,cs),
(403,1580,o),
(423,1558,o),
(451,1558,cs),
(464,1558,o),
(477,1563,o),
(487,1572,cs),
(705,1763,ls),
(715,1772,o),
(722,1785,o),
(723,1799,cs),
(726,1827,o),
(706,1849,o),
(678,1849,cs),
(665,1849,o),
(652,1844,o),
(643,1835,cs)
);
},
{
closed = 1;
nodes = (
(823,1572,ls),
(831,1563,o),
(842,1558,o),
(855,1558,cs),
(883,1558,o),
(907,1580,o),
(910,1608,cs),
(911,1622,o),
(906,1635,o),
(898,1644,cs),
(713,1833,l),
(639,1761,l)
);
},
{
closed = 1;
nodes = (
(1022,1775,ls),
(1030,1769,o),
(1040,1766,o),
(1051,1766,cs),
(1079,1766,o),
(1102,1788,o),
(1105,1816,cs),
(1106,1833,o),
(1100,1847,o),
(1087,1856,cs),
(819,2058,ls),
(812,2064,o),
(802,2067,o),
(791,2067,cs),
(763,2067,o),
(739,2045,o),
(736,2017,cs),
(735,2000,o),
(742,1986,o),
(754,1977,cs)
);
}
);
width = 1064;
},
{
anchors = (
{
name = bottom;
pos = (587,0);
},
{
name = ogonek;
pos = (929,0);
},
{
name = top;
pos = (1226,2130);
},
{
name = top_viet;
pos = (966,1651);
},
{
name = top_viet_grave;
pos = (1183,1640);
},
{
name = topleft;
pos = (102,1400);
}
);
layerId = "FF87E3F2-B049-41CB-BF2F-09DB15105515";
shapes = (
{
closed = 1;
nodes = (
(472,705,ls),
(479,788,o),
(418,855,o),
(335,855,cs),
(252,855,o),
(179,788,o),
(172,705,cs),
(122,140,l),
(422,140,l)
);
},
{
closed = 1;
nodes = (
(286,300,ls),
(203,300,o),
(130,233,o),
(123,150,cs),
(116,67,o),
(177,0,o),
(260,0,cs),
(943,0,ls),
(1026,0,o),
(1099,67,o),
(1106,150,cs),
(1113,233,o),
(1052,300,o),
(969,300,cs)
);
},
{
closed = 1;
nodes = (
(991,550,ls),
(1074,550,o),
(1147,617,o),
(1154,700,cs),
(1162,783,o),
(1100,850,o),
(1017,850,cs),
(752,850,ls),
(669,850,o),
(597,783,o),
(589,700,cs),
(582,617,o),
(643,550,o),
(726,550,cs)
);
},
{
closed = 1;
nodes = (
(1039,1100,ls),
(1122,1100,o),
(1195,1167,o),
(1202,1250,cs),
(1210,1333,o),
(1148,1400,o),
(1065,1400,cs),
(382,1400,ls),
(299,1400,o),
(227,1333,o),
(219,1250,cs),
(212,1167,o),
(273,1100,o),
(356,1100,cs)
);
},
{
closed = 1;
nodes = (
(450,1709,ls),
(422,1691,o),
(402,1661,o),
(399,1627,cs),
(395,1572,o),
(436,1527,o),
(491,1527,cs),
(512,1527,o),
(531,1533,o),
(548,1544,cs),
(793,1698,ls),
(820,1716,o),
(840,1746,o),
(843,1780,cs),
(848,1835,o),
(806,1880,o),
(751,1880,cs),
(730,1880,o),
(711,1874,o),
(694,1863,cs)
);
},
{
closed = 1;
nodes = (
(895,1544,ls),
(911,1533,o),
(930,1527,o),
(951,1527,cs),
(1006,1527,o),
(1055,1572,o),
(1059,1627,cs),
(1062,1661,o),
(1048,1691,o),
(1024,1709,cs),
(804,1864,l),
(680,1698,l)
);
},
{
closed = 1;
nodes = (
(1101,1784,ls),
(1116,1773,o),
(1135,1767,o),
(1156,1767,cs),
(1211,1767,o),
(1260,1812,o),
(1264,1867,cs),
(1267,1901,o),
(1253,1931,o),
(1229,1949,cs),
(1011,2103,ls),
(996,2114,o),
(977,2120,o),
(956,2120,cs),
(901,2120,o),
(853,2075,o),
(848,2020,cs),
(845,1986,o),
(859,1956,o),
(884,1938,cs)
);
}
);
width = 1195;
}
);
unicode = (7872,7873);
},
{
color = 5;
glyphname = Ecircumflexhookabove;
kernLeft = I;
kernRight = E;
lastChange = "2022-06-05 20:10:17 +0000";
layers = (
{
anchors = (
{
name = bottom;
pos = (488,0);
},
{
name = ogonek;
pos = (906,1);
},
{
name = top;
pos = (890,2097);
},
{
name = top_viet;
pos = (846,1594);
},
{
name = top_viet_grave;
pos = (1064,1577);
},
{
name = topleft;
pos = (117,1400);
}
);
layerId = m01;
shapes = (
{
closed = 1;
nodes = (
(199,736,ls),
(201,749,o),
(191,761,o),
(177,761,cs),
(163,761,o),
(151,749,o),
(149,736,cs),
(87,28,l),
(137,28,l)
);
},
{
closed = 1;
nodes = (
(114,50,ls),
(100,50,o),
(88,39,o),
(87,25,cs),
(86,11,o),
(96,0,o),
(110,0,cs),
(906,0,ls),
(919,0,o),
(932,11,o),
(933,25,cs),
(934,39,o),
(923,50,o),
(910,50,cs)
);
},
{
closed = 1;
nodes = (
(965,675,ls),
(978,675,o),
(991,686,o),
(992,700,cs),
(993,714,o),
(982,725,o),
(969,725,cs),
(469,725,ls),
(455,725,o),
(443,714,o),
(442,700,cs),
(441,686,o),
(451,675,o),
(465,675,cs)
);
},
{
closed = 1;
nodes = (
(1024,1350,ls),
(1037,1350,o),
(1050,1361,o),
(1051,1375,cs),
(1053,1389,o),
(1041,1400,o),
(1028,1400,cs),
(232,1400,ls),
(218,1400,o),
(207,1389,o),
(205,1375,cs),
(204,1361,o),
(214,1350,o),
(228,1350,cs)
);
},
{
closed = 1;
nodes = (
(391,1605,ls),
(387,1601,o),
(385,1596,o),
(384,1590,cs),
(383,1578,o),
(391,1569,o),
(403,1569,cs),
(408,1569,o),
(413,1571,o),
(418,1575,cs),
(659,1783,ls),
(663,1787,o),
(666,1792,o),
(666,1798,cs),
(667,1810,o),
(659,1819,o),
(647,1819,cs),
(642,1819,o),
(637,1817,o),
(633,1813,cs)
);
},
{
closed = 1;
nodes = (
(832,1575,ls),
(835,1571,o),
(840,1569,o),
(845,1569,cs),
(857,1569,o),
(867,1578,o),
(868,1590,cs),
(869,1596,o),
(867,1601,o),
(863,1605,cs),
(662,1812,l),
(631,1782,l)
);
},
{
closed = 1;
nodes = (
(888,2055,o),
(935,2003,o),
(930,1939,cs),
(924,1875,o),
(867,1823,o),
(803,1823,cs),
(791,1823,o),
(782,1814,o),
(781,1802,cs),
(780,1790,o),
(788,1781,o),
(800,1781,cs),
(887,1781,o),
(964,1852,o),
(972,1939,cs),
(979,2026,o),
(914,2097,o),
(827,2097,cs),
(815,2097,o),
(806,2088,o),
(805,2076,cs),
(804,2064,o),
(812,2055,o),
(824,2055,cs)
);
}
);
width = 1001;
},
{
anchors = (
{
name = bottom;
pos = (497,0);
},
{
name = ogonek;
pos = (925,0);
},
{
name = top;
pos = (950,2140);
},
{
name = top_viet;
pos = (875,1594);
},
{
name = top_viet_grave;
pos = (1038,1613);
},
{
name = topleft;
pos = (142,1400);
}
);
layerId = "19FA402B-9607-46D9-AAD6-815AECBA5B6B";
shapes = (
{
closed = 1;
nodes = (
(282,706,ls),
(285,739,o),
(260,766,o),
(227,766,cs),
(194,766,o),
(165,739,o),
(162,706,cs),
(105,60,l),
(225,60,l)
);
},
{
closed = 1;
nodes = (
(170,120,ls),
(137,120,o),
(108,93,o),
(105,60,cs),
(102,27,o),
(127,0,o),
(160,0,cs),
(924,0,ls),
(957,0,o),
(986,27,o),
(989,60,cs),
(992,93,o),
(967,120,o),
(934,120,cs)
);
},
{
closed = 1;
nodes = (
(980,640,ls),
(1013,640,o),
(1042,667,o),
(1045,700,cs),
(1048,733,o),
(1023,760,o),
(990,760,cs),
(553,760,ls),
(520,760,o),
(491,733,o),
(488,700,cs),
(485,667,o),
(510,640,o),
(543,640,cs)
);
},
{
closed = 1;
nodes = (
(1036,1280,ls),
(1069,1280,o),
(1098,1307,o),
(1101,1340,cs),
(1104,1373,o),
(1079,1400,o),
(1046,1400,cs),
(282,1400,ls),
(249,1400,o),
(220,1373,o),
(217,1340,cs),
(214,1307,o),
(239,1280,o),
(272,1280,cs)
);
},
{
closed = 1;
nodes = (
(424,1644,ls),
(414,1635,o),
(407,1622,o),
(406,1608,cs),
(403,1580,o),
(423,1558,o),
(451,1558,cs),
(464,1558,o),
(477,1563,o),
(487,1572,cs),
(705,1763,ls),
(715,1772,o),
(722,1785,o),
(723,1799,cs),
(726,1827,o),
(706,1849,o),
(678,1849,cs),
(665,1849,o),
(652,1844,o),
(643,1835,cs)
);
},
{
closed = 1;
nodes = (
(823,1572,ls),
(831,1563,o),
(842,1558,o),
(855,1558,cs),
(883,1558,o),
(907,1580,o),
(910,1608,cs),
(911,1622,o),
(906,1635,o),
(898,1644,cs),
(713,1833,l),
(639,1761,l)
);
},
{
closed = 1;
nodes = (
(935,2040,o),
(970,2002,o),
(966,1955,cs),
(962,1908,o),
(921,1870,o),
(874,1870,cs),
(846,1870,o),
(822,1848,o),
(819,1820,cs),
(817,1792,o),
(837,1770,o),
(865,1770,cs),
(967,1770,o),
(1057,1853,o),
(1066,1955,cs),
(1075,2057,o),
(999,2140,o),
(897,2140,cs),
(869,2140,o),
(845,2118,o),
(843,2090,cs),
(840,2062,o),
(860,2040,o),
(888,2040,cs)
);
}
);
width = 1064;
},
{
anchors = (
{
name = bottom;
pos = (587,0);
},
{
name = ogonek;
pos = (929,0);
},
{
name = top;
pos = (1079,2231);
},
{
name = top_viet;
pos = (966,1651);
},
{
name = top_viet_grave;
pos = (1183,1640);
},
{
name = topleft;
pos = (102,1400);
}
);
layerId = "FF87E3F2-B049-41CB-BF2F-09DB15105515";
shapes = (
{
closed = 1;
nodes = (
(472,705,ls),
(479,788,o),
(418,855,o),
(335,855,cs),
(252,855,o),
(179,788,o),
(172,705,cs),
(122,140,l),
(422,140,l)
);
},
{
closed = 1;
nodes = (
(286,300,ls),
(203,300,o),
(130,233,o),
(123,150,cs),
(116,67,o),
(177,0,o),
(260,0,cs),
(943,0,ls),
(1026,0,o),
(1099,67,o),
(1106,150,cs),
(1113,233,o),
(1052,300,o),
(969,300,cs)
);
},
{
closed = 1;
nodes = (
(991,550,ls),
(1074,550,o),
(1147,617,o),
(1154,700,cs),
(1162,783,o),
(1100,850,o),
(1017,850,cs),
(752,850,ls),
(669,850,o),
(597,783,o),
(589,700,cs),
(582,617,o),
(643,550,o),
(726,550,cs)
);
},
{
closed = 1;
nodes = (
(1039,1100,ls),
(1122,1100,o),
(1195,1167,o),
(1202,1250,cs),
(1210,1333,o),
(1148,1400,o),
(1065,1400,cs),
(382,1400,ls),
(299,1400,o),
(227,1333,o),
(219,1250,cs),
(212,1167,o),
(273,1100,o),
(356,1100,cs)
);
},
{
closed = 1;
nodes = (
(450,1709,ls),
(422,1691,o),
(402,1661,o),
(399,1627,cs),
(395,1572,o),
(436,1527,o),
(491,1527,cs),
(512,1527,o),
(531,1533,o),
(548,1544,cs),
(793,1698,ls),
(820,1716,o),
(840,1746,o),
(843,1780,cs),
(848,1835,o),
(806,1880,o),
(751,1880,cs),
(730,1880,o),
(711,1874,o),
(694,1863,cs)
);
},
{
closed = 1;
nodes = (
(895,1544,ls),
(911,1533,o),
(930,1527,o),
(951,1527,cs),
(1006,1527,o),
(1055,1572,o),
(1059,1627,cs),
(1062,1661,o),
(1048,1691,o),
(1024,1709,cs),
(804,1864,l),
(680,1698,l)
);
},
{
closed = 1;
nodes = (
(1051,2091,o),
(1077,2062,o),
(1074,2025,cs),
(1071,1988,o),
(1039,1959,o),
(1002,1959,cs),
(963,1959,o),
(930,1928,o),
(926,1889,cs),
(923,1850,o),
(951,1819,o),
(990,1819,cs),
(1104,1819,o),
(1204,1911,o),
(1214,2025,cs),
(1224,2139,o),
(1140,2231,o),
(1026,2231,cs),
(987,2231,o),
(953,2200,o),
(950,2161,cs),
(947,2122,o),
(975,2091,o),
(1014,2091,cs)
);
}
);
width = 1195;
}
);
unicode = (7874,7875);
},
{
color = 5;
glyphname = Ecircumflextilde;
kernLeft = I;
kernRight = E;
lastChange = "2022-06-05 20:10:17 +0000";
layers = (
{
anchors = (
{
name = bottom;
pos = (488,0);
},
{
name = ogonek;
pos = (906,1);
},
{
name = top;
pos = (677,2165);
},
{
name = top_viet;
pos = (846,1594);
},
{
name = top_viet_grave;
pos = (1064,1577);
},
{
name = topleft;
pos = (117,1400);
}
);
layerId = m01;
shapes = (
{
closed = 1;
nodes = (
(199,736,ls),
(201,749,o),
(191,761,o),
(177,761,cs),
(163,761,o),
(151,749,o),
(149,736,cs),
(87,28,l),
(137,28,l)
);
},
{
closed = 1;
nodes = (
(114,50,ls),
(100,50,o),
(88,39,o),
(87,25,cs),
(86,11,o),
(96,0,o),
(110,0,cs),
(906,0,ls),
(919,0,o),
(932,11,o),
(933,25,cs),
(934,39,o),
(923,50,o),
(910,50,cs)
);
},
{
closed = 1;
nodes = (
(965,675,ls),
(978,675,o),
(991,686,o),
(992,700,cs),
(993,714,o),
(982,725,o),
(969,725,cs),
(469,725,ls),
(455,725,o),
(443,714,o),
(442,700,cs),
(441,686,o),
(451,675,o),
(465,675,cs)
);
},
{
closed = 1;
nodes = (
(1024,1350,ls),
(1037,1350,o),
(1050,1361,o),
(1051,1375,cs),
(1053,1389,o),
(1041,1400,o),
(1028,1400,cs),
(232,1400,ls),
(218,1400,o),
(207,1389,o),
(205,1375,cs),
(204,1361,o),
(214,1350,o),
(228,1350,cs)
);
},
{
closed = 1;
nodes = (
(391,1605,ls),
(387,1601,o),
(385,1596,o),
(384,1590,cs),
(383,1578,o),
(391,1569,o),
(403,1569,cs),
(408,1569,o),
(413,1571,o),
(418,1575,cs),
(659,1783,ls),
(663,1787,o),
(666,1792,o),
(666,1798,cs),
(667,1810,o),
(659,1819,o),
(647,1819,cs),
(642,1819,o),
(637,1817,o),
(633,1813,cs)
);
},
{
closed = 1;
nodes = (
(832,1575,ls),
(835,1571,o),
(840,1569,o),
(845,1569,cs),
(857,1569,o),
(867,1578,o),
(868,1590,cs),
(869,1596,o),
(867,1601,o),
(863,1605,cs),
(662,1812,l),
(631,1782,l)
);
},
{
closed = 1;
nodes = (
(875,2061,o),
(784,2034,o),
(685,2112,cs),
(568,2204,o),
(443,2168,o),
(386,2070,cs),
(385,2067,o),
(384,2064,o),
(383,2061,cs),
(382,2049,o),
(390,2040,o),
(402,2040,cs),
(410,2040,o),
(418,2045,o),
(423,2052,cs),
(467,2129,o),
(559,2156,o),
(658,2078,cs),
(775,1986,o),
(900,2022,o),
(956,2120,cs),
(958,2123,o),
(959,2126,o),
(959,2129,cs),
(960,2141,o),
(952,2150,o),
(940,2150,cs),
(932,2150,o),
(925,2145,o),
(920,2138,cs)
);
}
);
width = 1001;
},
{
anchors = (
{
name = bottom;
pos = (497,0);
},
{
name = ogonek;
pos = (925,0);
},
{
name = top;
pos = (709,2189);
},
{
name = top_viet;
pos = (875,1594);
},
{
name = top_viet_grave;
pos = (1038,1613);
},
{
name = topleft;
pos = (142,1400);
}
);
layerId = "19FA402B-9607-46D9-AAD6-815AECBA5B6B";
shapes = (
{
closed = 1;
nodes = (
(282,706,ls),
(285,739,o),
(260,766,o),
(227,766,cs),
(194,766,o),
(165,739,o),
(162,706,cs),
(105,60,l),
(225,60,l)
);
},
{
closed = 1;
nodes = (
(170,120,ls),
(137,120,o),
(108,93,o),
(105,60,cs),
(102,27,o),
(127,0,o),
(160,0,cs),
(924,0,ls),
(957,0,o),
(986,27,o),
(989,60,cs),
(992,93,o),
(967,120,o),
(934,120,cs)
);
},
{
closed = 1;
nodes = (
(980,640,ls),
(1013,640,o),
(1042,667,o),
(1045,700,cs),
(1048,733,o),
(1023,760,o),
(990,760,cs),
(553,760,ls),
(520,760,o),
(491,733,o),
(488,700,cs),
(485,667,o),
(510,640,o),
(543,640,cs)
);
},
{
closed = 1;
nodes = (
(1036,1280,ls),
(1069,1280,o),
(1098,1307,o),
(1101,1340,cs),
(1104,1373,o),
(1079,1400,o),
(1046,1400,cs),
(282,1400,ls),
(249,1400,o),
(220,1373,o),
(217,1340,cs),
(214,1307,o),
(239,1280,o),
(272,1280,cs)
);
},
{
closed = 1;
nodes = (
(424,1644,ls),
(414,1635,o),
(407,1622,o),
(406,1608,cs),
(403,1580,o),
(423,1558,o),
(451,1558,cs),
(464,1558,o),
(477,1563,o),
(487,1572,cs),
(705,1763,ls),
(715,1772,o),
(722,1785,o),
(723,1799,cs),
(726,1827,o),
(706,1849,o),
(678,1849,cs),
(665,1849,o),
(652,1844,o),
(643,1835,cs)
);
},
{
closed = 1;
nodes = (
(823,1572,ls),
(831,1563,o),
(842,1558,o),
(855,1558,cs),
(883,1558,o),
(907,1580,o),
(910,1608,cs),
(911,1622,o),
(906,1635,o),
(898,1644,cs),
(713,1833,l),
(639,1761,l)
);
},
{
closed = 1;
nodes = (
(857,2113,o),
(811,2098,o),
(738,2163,cs),
(621,2271,o),
(486,2225,o),
(428,2110,cs),
(424,2104,o),
(423,2098,o),
(422,2091,cs),
(419,2063,o),
(440,2041,o),
(468,2041,cs),
(489,2041,o),
(508,2054,o),
(516,2072,cs),
(549,2137,o),
(595,2152,o),
(668,2087,cs),
(785,1979,o),
(920,2025,o),
(978,2140,cs),
(982,2146,o),
(983,2152,o),
(984,2159,cs),
(986,2187,o),
(966,2209,o),
(938,2209,cs),
(917,2209,o),
(898,2196,o),
(890,2178,cs)
);
}
);
width = 1064;
},
{
anchors = (
{
name = bottom;
pos = (587,0);
},
{
name = ogonek;
pos = (929,0);
},
{
name = top;
pos = (790,2325);
},
{
name = top_viet;
pos = (966,1651);
},
{
name = top_viet_grave;
pos = (1183,1640);
},
{
name = topleft;
pos = (102,1400);
}
);
layerId = "FF87E3F2-B049-41CB-BF2F-09DB15105515";
shapes = (
{
closed = 1;
nodes = (
(472,705,ls),
(479,788,o),
(418,855,o),
(335,855,cs),
(252,855,o),
(179,788,o),
(172,705,cs),
(122,140,l),
(422,140,l)
);
},
{
closed = 1;
nodes = (
(286,300,ls),
(203,300,o),
(130,233,o),
(123,150,cs),
(116,67,o),
(177,0,o),
(260,0,cs),
(943,0,ls),
(1026,0,o),
(1099,67,o),
(1106,150,cs),
(1113,233,o),
(1052,300,o),
(969,300,cs)
);
},
{
closed = 1;
nodes = (
(991,550,ls),
(1074,550,o),
(1147,617,o),
(1154,700,cs),
(1162,783,o),
(1100,850,o),
(1017,850,cs),
(752,850,ls),
(669,850,o),
(597,783,o),
(589,700,cs),
(582,617,o),
(643,550,o),
(726,550,cs)
);
},
{
closed = 1;
nodes = (
(1039,1100,ls),
(1122,1100,o),
(1195,1167,o),
(1202,1250,cs),
(1210,1333,o),
(1148,1400,o),
(1065,1400,cs),
(382,1400,ls),
(299,1400,o),
(227,1333,o),
(219,1250,cs),
(212,1167,o),
(273,1100,o),
(356,1100,cs)
);
},
{
closed = 1;
nodes = (
(450,1709,ls),
(422,1691,o),
(402,1661,o),
(399,1627,cs),
(395,1572,o),
(436,1527,o),
(491,1527,cs),
(512,1527,o),
(531,1533,o),
(548,1544,cs),
(793,1698,ls),
(820,1716,o),
(840,1746,o),
(843,1780,cs),
(848,1835,o),
(806,1880,o),
(751,1880,cs),
(730,1880,o),
(711,1874,o),
(694,1863,cs)
);
},
{
closed = 1;
nodes = (
(895,1544,ls),
(911,1533,o),
(930,1527,o),
(951,1527,cs),
(1006,1527,o),
(1055,1572,o),
(1059,1627,cs),
(1062,1661,o),
(1048,1691,o),
(1024,1709,cs),
(804,1864,l),
(680,1698,l)
);
},
{
closed = 1;
nodes = (
(933,2202,o),
(891,2208,o),
(852,2247,cs),
(735,2365,o),
(501,2357,o),
(420,2168,cs),
(415,2158,o),
(412,2146,o),
(411,2135,cs),
(406,2080,o),
(447,2035,o),
(502,2035,cs),
(546,2035,o),
(585,2063,o),
(602,2102,cs),
(623,2149,o),
(660,2145,o),
(703,2101,cs),
(819,1983,o),
(1056,1997,o),
(1135,2180,cs),
(1140,2190,o),
(1143,2202,o),
(1144,2213,cs),
(1148,2268,o),
(1107,2313,o),
(1052,2313,cs),
(1008,2313,o),
(969,2285,o),
(952,2246,cs)
);
}
);
width = 1195;
}
);
unicode = (7876,7877);
},
{
color = 5;
glyphname = Edieresis;
kernLeft = I;
kernRight = E;
lastChange = "2022-06-05 20:10:17 +0000";
layers = (
{
anchors = (
{
name = bottom;
pos = (488,0);
},
{
name = ogonek;
pos = (906,1);
},
{
name = top;
pos = (633,1654);
},
{
name = topleft;
pos = (117,1400);
}
);
layerId = m01;
shapes = (
{
closed = 1;
nodes = (
(199,736,ls),
(201,749,o),
(191,761,o),
(177,761,cs),
(163,761,o),
(151,749,o),
(149,736,cs),
(87,28,l),
(137,28,l)
);
},
{
closed = 1;
nodes = (
(114,50,ls),
(100,50,o),
(88,39,o),
(87,25,cs),
(86,11,o),
(96,0,o),
(110,0,cs),
(906,0,ls),
(919,0,o),
(932,11,o),
(933,25,cs),
(934,39,o),
(923,50,o),
(910,50,cs)
);
},
{
closed = 1;
nodes = (
(965,675,ls),
(978,675,o),
(991,686,o),
(992,700,cs),
(993,714,o),
(982,725,o),
(969,725,cs),
(469,725,ls),
(455,725,o),
(443,714,o),
(442,700,cs),
(441,686,o),
(451,675,o),
(465,675,cs)
);
},
{
closed = 1;
nodes = (
(1024,1350,ls),
(1037,1350,o),
(1050,1361,o),
(1051,1375,cs),
(1053,1389,o),
(1041,1400,o),
(1028,1400,cs),
(232,1400,ls),
(218,1400,o),
(207,1389,o),
(205,1375,cs),
(204,1361,o),
(214,1350,o),
(228,1350,cs)
);
},
{
closed = 1;
nodes = (
(823,1594,o),
(839,1608,o),
(840,1624,cs),
(841,1640,o),
(829,1654,o),
(813,1654,cs),
(797,1654,o),
(781,1640,o),
(780,1624,cs),
(779,1608,o),
(791,1594,o),
(807,1594,cs)
);
},
{
closed = 1;
nodes = (
(463,1594,o),
(479,1608,o),
(480,1624,cs),
(481,1640,o),
(469,1654,o),
(453,1654,cs),
(437,1654,o),
(421,1640,o),
(420,1624,cs),
(419,1608,o),
(431,1594,o),
(447,1594,cs)
);
}
);
width = 1001;
},
{
anchors = (
{
name = bottom;
pos = (497,0);
},
{
name = ogonek;
pos = (925,0);
},
{
name = top;
pos = (670,1744);
},
{
name = topleft;
pos = (142,1400);
}
);
layerId = "19FA402B-9607-46D9-AAD6-815AECBA5B6B";
shapes = (
{
closed = 1;
nodes = (
(282,706,ls),
(285,739,o),
(260,766,o),
(227,766,cs),
(194,766,o),
(165,739,o),
(162,706,cs),
(105,60,l),
(225,60,l)
);
},
{
closed = 1;
nodes = (
(170,120,ls),
(137,120,o),
(108,93,o),
(105,60,cs),
(102,27,o),
(127,0,o),
(160,0,cs),
(924,0,ls),
(957,0,o),
(986,27,o),
(989,60,cs),
(992,93,o),
(967,120,o),
(934,120,cs)
);
},
{
closed = 1;
nodes = (
(980,640,ls),
(1013,640,o),
(1042,667,o),
(1045,700,cs),
(1048,733,o),
(1023,760,o),
(990,760,cs),
(553,760,ls),
(520,760,o),
(491,733,o),
(488,700,cs),
(485,667,o),
(510,640,o),
(543,640,cs)
);
},
{
closed = 1;
nodes = (
(1036,1280,ls),
(1069,1280,o),
(1098,1307,o),
(1101,1340,cs),
(1104,1373,o),
(1079,1400,o),
(1046,1400,cs),
(282,1400,ls),
(249,1400,o),
(220,1373,o),
(217,1340,cs),
(214,1307,o),
(239,1280,o),
(272,1280,cs)
);
},
{
closed = 1;
nodes = (
(877,1594,o),
(914,1628,o),
(918,1669,cs),
(922,1710,o),
(891,1744,o),
(850,1744,cs),
(809,1744,o),
(772,1710,o),
(768,1669,cs),
(764,1628,o),
(795,1594,o),
(836,1594,cs)
);
},
{
closed = 1;
nodes = (
(517,1594,o),
(554,1628,o),
(558,1669,cs),
(562,1710,o),
(531,1744,o),
(490,1744,cs),
(449,1744,o),
(412,1710,o),
(408,1669,cs),
(404,1628,o),
(435,1594,o),
(476,1594,cs)
);
}
);
width = 1064;
},
{
anchors = (
{
name = bottom;
pos = (587,0);
},
{
name = ogonek;
pos = (929,0);
},
{
name = top;
pos = (742,1777);
},
{
name = topleft;
pos = (102,1400);
}
);
layerId = "FF87E3F2-B049-41CB-BF2F-09DB15105515";
shapes = (
{
closed = 1;
nodes = (
(472,705,ls),
(479,788,o),
(418,855,o),
(335,855,cs),
(252,855,o),
(179,788,o),
(172,705,cs),
(122,140,l),
(422,140,l)
);
},
{
closed = 1;
nodes = (
(286,300,ls),
(203,300,o),
(130,233,o),
(123,150,cs),
(116,67,o),
(177,0,o),
(260,0,cs),
(943,0,ls),
(1026,0,o),
(1099,67,o),
(1106,150,cs),
(1113,233,o),
(1052,300,o),
(969,300,cs)
);
},
{
closed = 1;
nodes = (
(991,550,ls),
(1074,550,o),
(1147,617,o),
(1154,700,cs),
(1162,783,o),
(1100,850,o),
(1017,850,cs),
(752,850,ls),
(669,850,o),
(597,783,o),
(589,700,cs),
(582,617,o),
(643,550,o),
(726,550,cs)
);
},
{
closed = 1;
nodes = (
(1039,1100,ls),
(1122,1100,o),
(1195,1167,o),
(1202,1250,cs),
(1210,1333,o),
(1148,1400,o),
(1065,1400,cs),
(382,1400,ls),
(299,1400,o),
(227,1333,o),
(219,1250,cs),
(212,1167,o),
(273,1100,o),
(356,1100,cs)
);
},
{
closed = 1;
nodes = (
(980,1534,o),
(1040,1589,o),
(1046,1655,cs),
(1052,1722,o),
(1000,1777,o),
(934,1777,cs),
(868,1777,o),
(808,1722,o),
(802,1655,cs),
(796,1589,o),
(848,1534,o),
(914,1534,cs)
);
},
{
closed = 1;
nodes = (
(596,1534,o),
(656,1589,o),
(662,1655,cs),
(668,1722,o),
(616,1777,o),
(550,1777,cs),
(484,1777,o),
(424,1722,o),
(418,1655,cs),
(412,1589,o),
(464,1534,o),
(530,1534,cs)
);
}
);
width = 1195;
}
);
unicode = (203,235);
},
{
color = 5;
glyphname = Edotaccent;
kernLeft = I;
kernRight = E;
lastChange = "2022-06-05 20:10:17 +0000";
layers = (
{
anchors = (
{
name = bottom;
pos = (488,0);
},
{
name = ogonek;
pos = (906,1);
},
{
name = top;
pos = (633,1654);
},
{
name = topleft;
pos = (117,1400);
}
);
layerId = m01;
shapes = (
{
closed = 1;
nodes = (
(199,736,ls),
(201,749,o),
(191,761,o),
(177,761,cs),
(163,761,o),
(151,749,o),
(149,736,cs),
(87,28,l),
(137,28,l)
);
},
{
closed = 1;
nodes = (
(114,50,ls),
(100,50,o),
(88,39,o),
(87,25,cs),
(86,11,o),
(96,0,o),
(110,0,cs),
(906,0,ls),
(919,0,o),
(932,11,o),
(933,25,cs),
(934,39,o),
(923,50,o),
(910,50,cs)
);
},
{
closed = 1;
nodes = (
(965,675,ls),
(978,675,o),
(991,686,o),
(992,700,cs),
(993,714,o),
(982,725,o),
(969,725,cs),
(469,725,ls),
(455,725,o),
(443,714,o),
(442,700,cs),
(441,686,o),
(451,675,o),
(465,675,cs)
);
},
{
closed = 1;
nodes = (
(1024,1350,ls),
(1037,1350,o),
(1050,1361,o),
(1051,1375,cs),
(1053,1389,o),
(1041,1400,o),
(1028,1400,cs),
(232,1400,ls),
(218,1400,o),
(207,1389,o),
(205,1375,cs),
(204,1361,o),
(214,1350,o),
(228,1350,cs)
);
},
{
closed = 1;
nodes = (
(643,1594,o),
(659,1608,o),
(660,1624,cs),
(661,1640,o),
(649,1654,o),
(633,1654,cs),
(617,1654,o),
(601,1640,o),
(600,1624,cs),
(599,1608,o),
(611,1594,o),
(627,1594,cs)
);
}
);
width = 1001;
},
{
anchors = (
{
name = bottom;
pos = (497,0);
},
{
name = ogonek;
pos = (925,0);
},
{
name = top;
pos = (670,1744);
},
{
name = topleft;
pos = (142,1400);
}
);
layerId = "19FA402B-9607-46D9-AAD6-815AECBA5B6B";
shapes = (
{
closed = 1;
nodes = (
(282,706,ls),
(285,739,o),
(260,766,o),
(227,766,cs),
(194,766,o),
(165,739,o),
(162,706,cs),
(105,60,l),
(225,60,l)
);
},
{
closed = 1;
nodes = (
(170,120,ls),
(137,120,o),
(108,93,o),
(105,60,cs),
(102,27,o),
(127,0,o),
(160,0,cs),
(924,0,ls),
(957,0,o),
(986,27,o),
(989,60,cs),
(992,93,o),
(967,120,o),
(934,120,cs)
);
},
{
closed = 1;
nodes = (
(980,640,ls),
(1013,640,o),
(1042,667,o),
(1045,700,cs),
(1048,733,o),
(1023,760,o),
(990,760,cs),
(553,760,ls),
(520,760,o),
(491,733,o),
(488,700,cs),
(485,667,o),
(510,640,o),
(543,640,cs)
);
},
{
closed = 1;
nodes = (
(1036,1280,ls),
(1069,1280,o),
(1098,1307,o),
(1101,1340,cs),
(1104,1373,o),
(1079,1400,o),
(1046,1400,cs),
(282,1400,ls),
(249,1400,o),
(220,1373,o),
(217,1340,cs),
(214,1307,o),
(239,1280,o),
(272,1280,cs)
);
},
{
closed = 1;
nodes = (
(697,1594,o),
(734,1628,o),
(738,1669,cs),
(742,1710,o),
(711,1744,o),
(670,1744,cs),
(629,1744,o),
(592,1710,o),
(588,1669,cs),
(584,1628,o),
(615,1594,o),
(656,1594,cs)
);
}
);
width = 1064;
},
{
anchors = (
{
name = bottom;
pos = (587,0);
},
{
name = ogonek;
pos = (929,0);
},
{
name = top;
pos = (742,1777);
},
{
name = topleft;
pos = (102,1400);
}
);
layerId = "FF87E3F2-B049-41CB-BF2F-09DB15105515";
shapes = (
{
closed = 1;
nodes = (
(472,705,ls),
(479,788,o),
(418,855,o),
(335,855,cs),
(252,855,o),
(179,788,o),
(172,705,cs),
(122,140,l),
(422,140,l)
);
},
{
closed = 1;
nodes = (
(286,300,ls),
(203,300,o),
(130,233,o),
(123,150,cs),
(116,67,o),
(177,0,o),
(260,0,cs),
(943,0,ls),
(1026,0,o),
(1099,67,o),
(1106,150,cs),
(1113,233,o),
(1052,300,o),
(969,300,cs)
);
},
{
closed = 1;
nodes = (
(991,550,ls),
(1074,550,o),
(1147,617,o),
(1154,700,cs),
(1162,783,o),
(1100,850,o),
(1017,850,cs),
(752,850,ls),
(669,850,o),
(597,783,o),
(589,700,cs),
(582,617,o),
(643,550,o),
(726,550,cs)
);
},
{
closed = 1;
nodes = (
(1039,1100,ls),
(1122,1100,o),
(1195,1167,o),
(1202,1250,cs),
(1210,1333,o),
(1148,1400,o),
(1065,1400,cs),
(382,1400,ls),
(299,1400,o),
(227,1333,o),
(219,1250,cs),
(212,1167,o),
(273,1100,o),
(356,1100,cs)
);
},
{
closed = 1;
nodes = (
(788,1534,o),
(848,1589,o),
(854,1655,cs),
(860,1722,o),
(808,1777,o),
(742,1777,cs),
(676,1777,o),
(616,1722,o),
(610,1655,cs),
(604,1589,o),
(656,1534,o),
(722,1534,cs)
);
}
);
width = 1195;
}
);
unicode = (278,279);
},
{
color = 5;
glyphname = Edotbelow;
kernLeft = I;
kernRight = E;
lastChange = "2022-06-05 20:10:17 +0000";
layers = (
{
anchors = (
{
name = bottom;
pos = (488,0);
},
{
name = ogonek;
pos = (906,1);
},
{
name = top;
pos = (610,1400);
},
{
name = topleft;
pos = (117,1400);
}
);
layerId = m01;
shapes = (
{
closed = 1;
nodes = (
(199,736,ls),
(201,749,o),
(191,761,o),
(177,761,cs),
(163,761,o),
(151,749,o),
(149,736,cs),
(87,28,l),
(137,28,l)
);
},
{
closed = 1;
nodes = (
(114,50,ls),
(100,50,o),
(88,39,o),
(87,25,cs),
(86,11,o),
(96,0,o),
(110,0,cs),
(906,0,ls),
(919,0,o),
(932,11,o),
(933,25,cs),
(934,39,o),
(923,50,o),
(910,50,cs)
);
},
{
closed = 1;
nodes = (
(965,675,ls),
(978,675,o),
(991,686,o),
(992,700,cs),
(993,714,o),
(982,725,o),
(969,725,cs),
(469,725,ls),
(455,725,o),
(443,714,o),
(442,700,cs),
(441,686,o),
(451,675,o),
(465,675,cs)
);
},
{
closed = 1;
nodes = (
(1024,1350,ls),
(1037,1350,o),
(1050,1361,o),
(1051,1375,cs),
(1053,1389,o),
(1041,1400,o),
(1028,1400,cs),
(232,1400,ls),
(218,1400,o),
(207,1389,o),
(205,1375,cs),
(204,1361,o),
(214,1350,o),
(228,1350,cs)
);
},
{
closed = 1;
nodes = (
(498,-206,o),
(513,-192,o),
(515,-176,cs),
(516,-160,o),
(503,-146,o),
(487,-146,cs),
(471,-146,o),
(456,-160,o),
(455,-176,cs),
(453,-192,o),
(466,-206,o),
(482,-206,cs)
);
}
);
width = 1001;
},
{
anchors = (
{
name = bottom;
pos = (497,0);
},
{
name = ogonek;
pos = (925,0);
},
{
name = top;
pos = (639,1400);
},
{
name = topleft;
pos = (142,1400);
}
);
layerId = "19FA402B-9607-46D9-AAD6-815AECBA5B6B";
shapes = (
{
closed = 1;
nodes = (
(282,706,ls),
(285,739,o),
(260,766,o),
(227,766,cs),
(194,766,o),
(165,739,o),
(162,706,cs),
(105,60,l),
(225,60,l)
);
},
{
closed = 1;
nodes = (
(170,120,ls),
(137,120,o),
(108,93,o),
(105,60,cs),
(102,27,o),
(127,0,o),
(160,0,cs),
(924,0,ls),
(957,0,o),
(986,27,o),
(989,60,cs),
(992,93,o),
(967,120,o),
(934,120,cs)
);
},
{
closed = 1;
nodes = (
(980,640,ls),
(1013,640,o),
(1042,667,o),
(1045,700,cs),
(1048,733,o),
(1023,760,o),
(990,760,cs),
(553,760,ls),
(520,760,o),
(491,733,o),
(488,700,cs),
(485,667,o),
(510,640,o),
(543,640,cs)
);
},
{
closed = 1;
nodes = (
(1036,1280,ls),
(1069,1280,o),
(1098,1307,o),
(1101,1340,cs),
(1104,1373,o),
(1079,1400,o),
(1046,1400,cs),
(282,1400,ls),
(249,1400,o),
(220,1373,o),
(217,1340,cs),
(214,1307,o),
(239,1280,o),
(272,1280,cs)
);
},
{
closed = 1;
nodes = (
(547,-296,o),
(584,-262,o),
(588,-221,cs),
(591,-180,o),
(560,-146,o),
(519,-146,cs),
(478,-146,o),
(441,-180,o),
(438,-221,cs),
(434,-262,o),
(465,-296,o),
(506,-296,cs)
);
}
);
width = 1064;
},
{
anchors = (
{
name = bottom;
pos = (587,0);
},
{
name = ogonek;
pos = (929,0);
},
{
name = top;
pos = (709,1400);
},
{
name = topleft;
pos = (102,1400);
}
);
layerId = "FF87E3F2-B049-41CB-BF2F-09DB15105515";
shapes = (
{
closed = 1;
nodes = (
(472,705,ls),
(479,788,o),
(418,855,o),
(335,855,cs),
(252,855,o),
(179,788,o),
(172,705,cs),
(122,140,l),
(422,140,l)
);
},
{
closed = 1;
nodes = (
(286,300,ls),
(203,300,o),
(130,233,o),
(123,150,cs),
(116,67,o),
(177,0,o),
(260,0,cs),
(943,0,ls),
(1026,0,o),
(1099,67,o),
(1106,150,cs),
(1113,233,o),
(1052,300,o),
(969,300,cs)
);
},
{
closed = 1;
nodes = (
(991,550,ls),
(1074,550,o),
(1147,617,o),
(1154,700,cs),
(1162,783,o),
(1100,850,o),
(1017,850,cs),
(752,850,ls),
(669,850,o),
(597,783,o),
(589,700,cs),
(582,617,o),
(643,550,o),
(726,550,cs)
);
},
{
closed = 1;
nodes = (
(1039,1100,ls),
(1122,1100,o),
(1195,1167,o),
(1202,1250,cs),
(1210,1333,o),
(1148,1400,o),
(1065,1400,cs),
(382,1400,ls),
(299,1400,o),
(227,1333,o),
(219,1250,cs),
(212,1167,o),
(273,1100,o),
(356,1100,cs)
);
},
{
closed = 1;
nodes = (
(627,-334,o),
(687,-279,o),
(692,-213,cs),
(698,-146,o),
(647,-91,o),
(581,-91,cs),
(515,-91,o),
(454,-146,o),
(448,-213,cs),
(443,-279,o),
(495,-334,o),
(561,-334,cs)
);
}
);
width = 1195;
}
);
unicode = (7864,7865);
},
